<svg width="544" height="439" viewBox="0 0 544 439" fill="none" xmlns="http://www.w3.org/2000/svg">
<path d="M0 144.203C7.02245 146.205 13.9571 151.549 18.061 158.118C18.4484 158.74 18.8204 159.529 18.4769 159.969C18.1721 160.358 17.4774 160.228 16.8885 160.047C9.78339 157.878 2.95722 151.571 0.149787 144.586" fill="black"/>
<path d="M224.194 191.526C224.067 258.656 119.903 219.484 84.618 188.986C68.0369 174.655 39.0792 148.699 27.5189 150.388C17.9008 151.793 7.95216 161.071 3.79655 172.931C1.86724 178.437 0.893551 184.341 7.76362 196.722C14.2075 208.333 26.3516 215.845 38.2941 221.262C54.3148 228.531 182.026 290.534 197.047 273.063C165.522 300.532 144.894 354.705 146.774 380.512C148.523 404.52 160.026 415.223 168.28 420.808C176.535 426.393 186.274 428.973 195.848 431.308C216.281 436.293 237.288 440.595 258.129 438.06C278.969 435.526 299.894 425.134 307.435 408.565C357.494 435.304 419.779 435.356 469.879 408.7C478.12 404.315 486.411 398.862 490.809 390.353C495.208 381.842 497.049 376.486 491.094 364.651C491.094 379.956 520.01 384.257 533.246 374.036C546.483 363.811 547.449 340.392 535.101 329.014C525.529 320.195 511.73 319.354 499.167 317.058C465.927 310.975 435.146 291.242 414.875 263.017C394.603 234.791 385.052 198.37 388.719 163.276" fill="#2EC4B6"/>
<path d="M214.661 63.9358C220.681 58.4291 224.049 49.896 223.504 41.5494C222.959 33.2028 218.507 25.2318 211.828 20.6329C216.033 17.2716 222.409 18.0309 226.537 21.5003C230.664 24.9697 232.738 30.5737 233.151 36.094C233.564 41.6143 232.497 47.1292 231.317 52.5278C236.299 47.4858 238.838 39.9255 237.965 32.7327C241.865 36.6398 242.232 43.7759 238.758 48.0992C240.491 40.0903 243.035 32.1707 247.307 25.2805C251.579 18.3903 257.705 12.5619 265.115 9.8437C257.821 16.1773 254.613 27.2151 257.305 36.7236C257.475 37.3207 257.697 37.9584 258.196 38.3016C258.896 38.7799 259.825 38.488 260.587 38.1341C267.579 34.8889 272.377 27.0449 272.269 19.0441C272.161 11.0434 267.15 3.34529 260.073 0.308193C268.131 -1.56162 276.363 5.3475 278.449 13.7022C280.536 22.0569 277.682 31.0196 273.116 38.2124C277.579 26.3478 288.104 17.1986 300.072 14.7857C291.505 20.1466 284.441 28.0987 279.958 37.4261C283.747 31.1547 289.728 26.3667 296.505 24.1888C292.381 27.1368 289.036 31.2655 286.936 36.0049C296.562 34.9159 304.99 26.4829 306.454 16.4691C309.127 23.2809 306.028 31.9788 299.744 35.2969C306.583 33.446 311.898 26.6153 312.242 19.2333C312.585 11.8513 307.931 4.51257 301.296 1.97536C309.654 1.00532 318.324 6.38779 321.514 14.529C324.704 22.6703 322.142 32.8705 315.538 38.3178C321.912 29.801 331.834 24.3023 342.15 23.5701C337.953 22.8243 333.764 25.6344 331.421 29.3551C329.079 33.0758 328.201 37.5666 327.369 41.9358C332.576 40.2579 337.682 37.6045 341.166 33.2217C344.65 28.839 346.202 22.4703 343.986 17.2608C341.768 12.054 335.233 8.97364 330.44 11.6838C335.579 9.3195 341.907 10.7273 346.176 14.5425C350.443 18.3578 352.729 24.2591 352.964 30.1279C353.199 35.9967 351.533 41.8196 348.943 47.0319" fill="#2EC4B6"/>
<path d="M394.489 178.184C373.429 200.824 343.033 212.291 312.882 214.026C282.732 215.761 252.681 208.49 224.197 198.003C228.52 223.246 249.525 243.378 273.349 249.412C297.172 255.446 322.88 248.745 343.588 235.029C364.299 221.311 380.452 201.11 393.443 179.364" fill="#1DAB9D"/>
<path d="M500.73 376.794C471.119 364.079 445.356 341.754 427.894 313.691L500.73 376.794Z" fill="#1DAB9D"/>
<path d="M295.599 221.262C361.256 221.262 414.482 180.064 414.482 129.244C414.482 78.424 361.256 37.2261 295.599 37.2261C229.941 37.2261 176.716 78.424 176.716 129.244C176.716 180.064 229.941 221.262 295.599 221.262Z" fill="#2EC4B6"/>
<path d="M296.082 208.622C354.8 208.622 402.4 172.405 402.4 127.728C402.4 83.0518 354.8 46.8345 296.082 46.8345C237.364 46.8345 189.764 83.0518 189.764 127.728C189.764 172.405 237.364 208.622 296.082 208.622Z" fill="#CBF3F0"/>
<path d="M408.197 145.618C412.465 132.385 395.172 114.332 369.573 105.295C343.974 96.2588 319.762 99.6609 315.494 112.894C311.226 126.127 328.519 144.18 354.118 153.217C379.717 162.253 403.929 158.851 408.197 145.618Z" fill="#2EC4B6"/>
<path d="M236.704 151.686C262.303 142.649 279.595 124.596 275.327 111.363C271.059 98.1297 246.847 94.7277 221.248 103.764C195.649 112.801 178.357 130.854 182.625 144.087C186.893 157.32 211.105 160.722 236.704 151.686Z" fill="#2EC4B6"/>
<path d="M297.949 162.774C314.23 162.774 327.428 156.548 327.428 148.869C327.428 141.19 314.23 134.964 297.949 134.964C281.668 134.964 268.47 141.19 268.47 148.869C268.47 156.548 281.668 162.774 297.949 162.774Z" fill="#0E3632"/>
<path d="M243.319 139.15C253.618 139.15 261.966 131.051 261.966 121.06C261.966 111.069 253.618 102.969 243.319 102.969C233.021 102.969 224.672 111.069 224.672 121.06C224.672 131.051 233.021 139.15 243.319 139.15Z" fill="#CBF3F0"/>
<path d="M344.332 139.15C354.631 139.15 362.98 131.051 362.98 121.06C362.98 111.069 354.631 102.969 344.332 102.969C334.034 102.969 325.685 111.069 325.685 121.06C325.685 131.051 334.034 139.15 344.332 139.15Z" fill="#CBF3F0"/>
<path d="M243.319 134.964C251.236 134.964 257.653 128.739 257.653 121.06C257.653 113.38 251.236 107.155 243.319 107.155C235.403 107.155 228.985 113.38 228.985 121.06C228.985 128.739 235.403 134.964 243.319 134.964Z" fill="black"/>
<path d="M344.332 134.964C352.249 134.964 358.667 128.739 358.667 121.06C358.667 113.38 352.249 107.155 344.332 107.155C336.416 107.155 329.998 113.38 329.998 121.06C329.998 128.739 336.416 134.964 344.332 134.964Z" fill="black"/>
<path d="M252.01 154.6C269.491 154.6 283.661 140.854 283.661 123.897C283.661 106.94 269.491 93.1936 252.01 93.1936C234.529 93.1936 220.359 106.94 220.359 123.897C220.359 140.854 234.529 154.6 252.01 154.6Z" stroke="black" stroke-width="2" stroke-miterlimit="10"/>
<path d="M341.998 153.906C359.478 153.906 373.649 140.159 373.649 123.202C373.649 106.245 359.478 92.499 341.998 92.499C324.517 92.499 310.346 106.245 310.346 123.202C310.346 140.159 324.517 153.906 341.998 153.906Z" stroke="black" stroke-width="2" stroke-miterlimit="10"/>
<path d="M252.01 123.202C255.127 123.202 257.653 120.751 257.653 117.728C257.653 114.705 255.127 112.254 252.01 112.254C248.893 112.254 246.367 114.705 246.367 117.728C246.367 120.751 248.893 123.202 252.01 123.202Z" fill="white"/>
<path d="M355.423 123.202C358.539 123.202 361.066 120.751 361.066 117.728C361.066 114.705 358.539 112.254 355.423 112.254C352.306 112.254 349.779 114.705 349.779 117.728C349.779 120.751 352.306 123.202 355.423 123.202Z" fill="white"/>
<path d="M257.708 160.542C265.554 168.483 278.845 173.552 293.77 174.293C308.696 175.036 325.068 171.442 338.191 164.544" stroke="black" stroke-width="2" stroke-miterlimit="10"/>
<path d="M282.404 114.54C291.34 109.57 302.709 109.762 311.488 115.031" stroke="black" stroke-width="2" stroke-miterlimit="10"/>
<path d="M309.342 398.911C315.661 378.197 331.37 361.355 350.113 351.957C368.853 342.559 390.362 340.195 410.998 342.765C431.634 345.334 451.508 352.635 470.403 361.995C442.06 356.567 413.214 351.117 384.595 354.584C355.973 358.053 327.085 371.831 311.627 397.268" fill="#1DAB9D"/>
<path d="M309.517 398.911C303.197 378.197 287.489 361.355 268.746 351.957C250.006 342.559 228.497 340.195 207.861 342.765C187.225 345.334 167.351 352.635 148.455 361.995C176.798 356.567 205.645 351.117 234.264 354.584C262.883 358.05 291.774 371.831 307.231 397.268" fill="#1DAB9D"/>
<path d="M192.68 277.103C160.943 281.461 63.2717 237.602 35.9438 220.168C35.9438 220.168 220.033 273.347 192.68 277.103Z" fill="#1DAB9D"/>
<path d="M519.524 338.666C525.23 343.392 533.458 346.061 540.948 345.618C541.656 345.578 542.485 345.421 542.619 344.87C542.738 344.381 542.227 343.875 541.738 343.486C535.852 338.79 526.952 336.783 519.912 338.563" fill="black"/>
<path d="M519.524 352.344C525.23 357.069 533.458 359.739 540.948 359.296C541.656 359.255 542.485 359.099 542.619 358.548C542.738 358.058 542.227 357.553 541.738 357.164C535.852 352.468 526.952 350.46 519.912 352.241" fill="black"/>
<path d="M513.938 363.352C519.643 368.078 527.872 370.747 535.362 370.304C536.069 370.263 536.898 370.107 537.033 369.556C537.152 369.066 536.64 368.561 536.152 368.172C530.266 363.476 521.366 361.468 514.325 363.249" fill="black"/>
<path d="M311.854 379.396C317.56 384.122 325.788 386.792 333.278 386.349C333.986 386.308 334.815 386.151 334.949 385.6C335.068 385.111 334.557 384.606 334.069 384.217C328.183 379.521 319.282 377.513 312.242 379.294" fill="black"/>
<path d="M305.514 379.396C299.809 384.122 291.58 386.792 284.09 386.349C283.383 386.308 282.554 386.151 282.419 385.6C282.3 385.111 282.812 384.606 283.3 384.217C289.186 379.521 298.086 377.513 305.127 379.294" fill="black"/>
<path d="M307.154 393.752C301.449 398.478 293.22 401.148 285.73 400.705C285.022 400.664 284.193 400.507 284.059 399.956C283.94 399.467 284.452 398.962 284.94 398.573C290.826 393.877 299.726 391.869 306.767 393.65" fill="black"/>
<path d="M308.846 409.784C302.381 413.28 293.817 414.256 286.546 412.324C285.859 412.14 285.074 411.824 285.043 411.256C285.017 410.754 285.612 410.359 286.162 410.075C292.797 406.644 301.901 406.455 308.487 409.611" fill="black"/>
<path d="M29.3425 175.641C22.0695 175.349 14.1612 171.78 8.74517 166.348C8.23379 165.835 7.69917 165.154 7.94194 164.643C8.15631 164.192 8.85883 164.154 9.47093 164.192C16.8627 164.63 24.8717 169.161 29.1126 175.303" fill="black"/>
<path d="M23.9496 188.054C16.6767 187.762 8.76834 184.193 3.35235 178.762C2.84097 178.248 2.30634 177.567 2.54912 177.057C2.76349 176.606 3.466 176.568 4.07811 176.606C11.4699 177.043 19.4789 181.575 23.7198 187.716" fill="black"/>
<path d="M311.854 393.752C317.56 398.478 325.788 401.148 333.278 400.705C333.986 400.664 334.815 400.507 334.949 399.956C335.068 399.467 334.557 398.962 334.069 398.573C328.183 393.877 319.282 391.869 312.242 393.65" fill="black"/>
<path d="M311.488 410.435C318.123 413.564 326.723 414.061 333.883 411.724C334.559 411.502 335.326 411.143 335.329 410.573C335.329 410.067 334.717 409.708 334.151 409.454C327.348 406.398 318.249 406.717 311.834 410.238" fill="black"/>
</svg>
