<svg width="1728" height="974" viewBox="0 0 1728 974" fill="none" xmlns="http://www.w3.org/2000/svg">
<path d="M1212.73 297.399C1210.42 287.422 1208.13 277.457 1205.82 267.48C1207.23 266.892 1208.38 265.38 1208.56 263.721C1208.75 262.062 1207.95 260.339 1206.58 259.426C1183.6 264.025 1160.63 268.499 1137.65 272.983C1135.36 273.193 1133.82 275.629 1134.25 277.845C1134.69 280.061 1137.04 281.678 1139.45 280.933C1140.82 290.615 1142.18 300.297 1144.33 311.155C1135.28 320.04 1128.78 331.602 1125.2 345.127C1138.18 406.182 1151.15 467.237 1163.75 528.712C1166.43 530.854 1169.12 533.007 1171.88 534.687C1173.91 540.347 1179.6 544.39 1185.51 544.359C1217.29 544.222 1249.06 536.231 1277.46 521.193C1279.19 518.357 1279.45 514.64 1277.99 511.616C1281.35 509.536 1283.63 505.724 1284.35 501.723C1271.39 443.724 1258.41 385.725 1245.81 328.63C1243.05 311.859 1228.36 297.955 1211.78 296.433" fill="#CFEA7A"/>
<path d="M1131.98 341.158C1144.23 397.581 1156.47 453.995 1168.72 510.418C1171.52 523.335 1186.74 531.715 1198.87 527.021C1213.92 521.203 1230.73 522.757 1246.28 518.536C1261.83 514.314 1277.46 499.969 1273.74 484.007C1260.74 428.214 1247.73 372.42 1234.73 316.626C1203.14 332.357 1167.5 339.488 1132.5 337.083" fill="#C1E153"/>
<path d="M1277.15 469.547C1242.03 491.799 1199.04 503.004 1158 498.909C1149.34 459.382 1140.85 419.844 1132.27 379.025C1173.59 376.894 1213.02 367.516 1251.21 351.092L1277.15 469.547Z" fill="#B3A9EB"/>
<path d="M1178.1 404.477C1178.8 407.666 1178.83 410.556 1178.19 413.146C1177.55 415.736 1176.36 417.894 1174.64 419.62C1172.91 421.345 1170.76 422.507 1168.19 423.104C1165.62 423.702 1163.19 423.603 1160.91 422.809C1158.64 422.014 1156.67 420.588 1155.01 418.532C1153.36 416.476 1152.18 413.853 1151.48 410.663C1150.79 407.474 1150.76 404.584 1151.4 401.994C1152.04 399.403 1153.22 397.246 1154.95 395.52C1156.67 393.795 1158.82 392.633 1161.4 392.036C1163.97 391.438 1166.39 391.537 1168.67 392.331C1170.95 393.126 1172.91 394.552 1174.57 396.608C1176.23 398.664 1177.4 401.287 1178.1 404.477ZM1174.57 405.298C1174 402.679 1173.08 400.571 1171.81 398.972C1170.55 397.372 1169.08 396.281 1167.39 395.7C1165.72 395.117 1163.97 395.037 1162.14 395.461C1160.32 395.886 1158.77 396.733 1157.49 398.003C1156.22 399.27 1155.34 400.906 1154.86 402.911C1154.39 404.913 1154.44 407.223 1155.02 409.842C1155.59 412.46 1156.5 414.57 1157.76 416.171C1159.03 417.769 1160.5 418.86 1162.17 419.443C1163.86 420.024 1165.61 420.103 1167.44 419.678C1169.27 419.254 1170.81 418.408 1172.08 417.141C1173.36 415.871 1174.24 414.235 1174.71 412.233C1175.19 410.228 1175.14 407.917 1174.57 405.298Z" fill="black"/>
<path d="M1201.57 416.497L1208.19 446.739L1204.54 447.587L1197.92 417.346L1201.57 416.497Z" fill="black"/>
<path d="M1239.6 466.981L1232.99 436.74L1236.64 435.891L1242.54 462.884L1256.56 459.627L1257.27 462.875L1239.6 466.981Z" fill="black"/>
<path d="M1205.24 267.543C1207.03 267.312 1208.6 265.821 1208.94 264.015C1209.28 262.208 1208.37 260.234 1206.79 259.352C1183.43 264.33 1160.3 269.223 1137.16 274.117C1135.83 273.949 1134.63 275.115 1134.32 276.532C1134 277.95 1134.58 279.525 1135.73 280.365C1136.88 281.205 1138.52 281.279 1139.78 280.859C1151.73 278.517 1163.64 275.86 1175.46 272.899" stroke="#84A5B6" stroke-miterlimit="10"/>
<path d="M1139.62 281.395C1139.71 283.127 1140.1 284.839 1140.82 286.918C1143.78 287.349 1146.78 286.74 1149.71 286.131C1157.65 284.472 1165.58 282.823 1173.52 281.164" stroke="#88A7B5" stroke-miterlimit="10"/>
<path d="M1144.3 310.588C1149.78 310.777 1155.29 310.074 1160.57 308.52" stroke="#88A7B5" stroke-miterlimit="10"/>
<path d="M996.165 499.108C1005.95 543.33 1009.38 588.884 1006.3 634.019C1001.03 586.301 995.771 538.593 990.3 490.76C978.062 517.171 947.109 534.067 917.598 530.434C939.448 514.65 959.565 496.578 977.481 476.625" fill="#C1E153"/>
<path d="M1115.3 570.475C1043 551.058 964.205 553.19 893.391 580.819C965.523 607.492 1049.71 604.363 1119.32 572.407" fill="#846ADC"/>
<path d="M997.1 493.563C1015.55 515.879 1049.25 527.777 1080.32 522.946C1060.43 510.681 1040.53 498.426 1020.7 486.129C1061.77 491.484 1105.52 476.719 1131.75 448.681C1087.31 442.432 1039.81 456 1008.24 483.934C1045.42 455.349 1068.27 413.071 1069.86 369.889C1038.58 386.145 1015.37 413.774 1007.04 444.669C1013.46 422.595 1019.9 400.354 1021.3 377.618C1022.68 354.883 1018.68 331.339 1005.42 311.722C1003.51 308.897 1000.48 305.789 996.788 306.43C993.903 306.934 992.231 309.506 990.986 311.827C964.195 361.709 956.991 419.392 972.125 474.409C979.889 450.109 964.361 423.75 941.514 408.24C918.667 392.74 889.82 385.883 861.669 379.981C869.247 420.107 903.086 455.643 946.943 469.557C919.508 462.752 891.326 458.237 862.905 456.084C860.735 455.916 858.161 455.916 856.863 457.449C855.265 459.329 856.832 461.954 858.472 463.803C881.319 489.657 922.996 501.576 958.984 492.555" fill="#C1E153"/>
<path d="M945.77 518.095C963.405 507.121 979.567 493.973 993.518 479.849C992.46 487.557 992.615 495.422 993.975 503.088" stroke="#557842" stroke-miterlimit="10"/>
<path d="M995.677 481.676C1005.7 522.022 1009.04 564.626 1005.4 606.096C1004.43 607.482 1002.41 606.936 1001.42 605.497C1000.42 604.059 1000.18 602.095 999.975 600.257C995.812 562.515 991.64 524.784 987.477 487.042C987.166 484.238 986.875 481.288 987.747 478.715C988.619 476.142 991.11 474.199 993.248 475.344" fill="#0A0A0A"/>
<path d="M1116.16 582.436C1108.62 635.258 1101.09 688.08 1093.55 740.912C1091.99 751.886 1090.23 763.312 1083.14 772.49C1068.88 790.93 1039.45 793.492 1013.95 794.259C984.644 795.141 950.918 794.396 932.224 774.716C921.874 763.826 918.532 749.261 915.698 735.336C905.287 684.268 901.259 630.69 892.177 580.693C968.616 598.115 1047.13 595.868 1120.55 570.423" fill="#B3A9EB"/>
<path d="M1002.27 348.718C987.041 389.537 982.495 433.989 992.522 477.769C1022.8 460.169 1045.75 431.322 1055.47 398.673" stroke="#557842" stroke-miterlimit="10"/>
<path d="M1110.27 456.809C1077.3 481.056 1031.44 488.638 991.795 476.383C1004.72 494.319 1023.48 508.423 1044.85 516.267" stroke="#557842" stroke-miterlimit="10"/>
<path d="M901.187 411.307C930.864 436.048 962.253 458.878 993.892 476.982C963.551 489.689 927.438 488.996 897.647 475.155" stroke="#557842" stroke-miterlimit="10"/>
<path d="M1334.56 192.668C1310.83 201.08 1294.41 223.5 1285.25 247.107C1276.1 270.725 1272.81 296.17 1266.42 320.69C1260.04 345.211 1249.77 369.963 1230.3 386.019C1223.81 391.364 1216.38 395.68 1210.97 402.128C1205.56 408.576 1202.58 418.164 1206.7 425.515C1211.32 433.758 1222.48 435.501 1231.74 433.979C1249.79 431.007 1265.55 419.34 1277.07 405.027C1288.6 390.703 1296.42 373.785 1303.92 356.972C1326.68 305.862 1347.92 250.919 1340.89 195.336C1337.94 194.034 1334.19 194.905 1332.11 197.373" fill="#F0DEB1"/>
<path d="M1436.16 180.456C1459.89 188.867 1476.31 211.288 1485.47 234.895C1494.62 258.502 1497.91 283.957 1504.3 308.477C1510.68 332.998 1520.95 357.75 1540.42 373.806C1546.91 379.151 1554.34 383.468 1559.75 389.915C1565.16 396.363 1568.14 405.951 1564.02 413.302C1559.4 421.545 1548.24 423.289 1538.98 421.766C1520.93 418.794 1505.17 407.127 1493.65 392.814C1482.12 378.5 1474.3 361.572 1466.8 344.76C1444.04 293.65 1422.8 238.706 1429.83 183.123C1432.78 181.821 1436.53 182.692 1438.61 185.16" fill="#F0DEB1"/>
<path d="M1507.27 502.553C1497.62 425.578 1487.97 348.603 1478.33 271.639C1474.91 244.367 1470.96 215.719 1454.53 193.761C1440.04 174.375 1416.3 162.362 1392.22 162.204C1368.14 162.047 1344.25 173.756 1329.51 192.952C1314.44 212.579 1309.38 237.961 1304.75 262.345C1289.94 340.433 1275.11 418.511 1263.88 496.493C1341.3 519.071 1423.84 523.566 1503.22 509.526" fill="#F3AF4C"/>
<path d="M1291.61 332.168C1319.27 385.809 1347.02 447.799 1334.82 512.739C1369.82 520.279 1408.77 521.014 1447.78 516.288C1444.12 461.293 1448.28 386.261 1468.11 334.899" fill="#F5E267"/>
<path d="M1392.96 240.628C1392.72 219.258 1392.47 197.877 1392.23 176.507C1392.2 173.84 1392.16 171.11 1391.29 168.589C1390.42 166.069 1388.54 163.738 1385.97 163.055C1383.41 162.372 1380.26 163.853 1379.72 166.468C1378.15 191.167 1379.22 216.801 1384.05 240.975C1379.76 239.61 1374.66 241.458 1372.21 245.27C1369.76 249.082 1370.14 254.511 1371.22 258.995C1366.2 252.831 1358.06 249.387 1350.17 250.069C1342.28 250.752 1334.86 255.561 1330.96 262.503C1328.53 266.829 1327.44 271.786 1325.36 276.301C1323.29 280.817 1319.74 285.144 1314.87 285.984C1308.9 287.013 1305.57 282.224 1300.26 286.057C1295.76 299.74 1294.32 317.624 1291.99 330.068C1310.84 355.03 1333.39 370.068 1363.48 378.091C1393.57 386.114 1427.43 381.063 1459.1 363.778C1469.56 354.253 1476.57 346.555 1485.47 328.724C1484.53 316.217 1483.67 319.483 1482.74 306.976C1482.53 304.235 1481.53 289.197 1480.2 286.792C1478.08 282.928 1469.84 281.269 1465.5 280.702C1460.7 280.071 1455.81 280.744 1451.02 280.166C1446.22 279.588 1441.14 277.352 1439.18 272.899C1437.7 269.518 1438.3 265.611 1437.88 261.936C1436.86 252.799 1428.56 245.06 1419.44 244.745C1410.31 244.43 1401.51 251.581 1399.87 260.623C1403.16 257.714 1404.16 252.484 1402.17 248.557C1400.17 244.629 1395.38 242.382 1391.11 243.38" fill="white"/>
<path d="M1346.74 194.202C1336.75 194.8 1327.72 203.002 1326.09 212.947C1324.46 222.891 1330.4 233.582 1339.67 237.383C1347.83 240.733 1357.9 238.601 1364.06 232.248C1370.22 225.895 1372.1 215.719 1368.67 207.538C1365.23 199.358 1356.69 193.645 1347.88 193.603" fill="#F5E267"/>
<path d="M1424.13 194.202C1414.14 194.8 1405.11 203.002 1403.48 212.947C1401.85 222.891 1407.79 233.582 1417.06 237.383C1425.22 240.733 1435.3 238.601 1441.45 232.248C1447.61 225.895 1449.5 215.719 1446.06 207.538C1442.63 199.358 1434.08 193.645 1425.27 193.603" fill="#F5E267"/>
<path d="M1346.91 197.478C1338.24 197.982 1330.4 204.966 1328.99 213.43C1327.57 221.894 1332.73 230.988 1340.78 234.222C1347.87 237.068 1356.62 235.252 1361.96 229.854C1367.31 224.446 1368.96 215.793 1365.97 208.83C1362.99 201.868 1355.57 197.006 1347.91 196.974" fill="#2B2B2A"/>
<path d="M1361.97 212.001C1359.66 212.117 1357.57 213.703 1357.19 215.624C1356.8 217.546 1358.18 219.615 1360.33 220.35C1362.22 221.001 1364.56 220.581 1365.98 219.352C1367.4 218.124 1367.85 216.16 1367.05 214.574C1366.25 212.989 1364.28 211.886 1362.23 211.875" fill="white"/>
<path d="M1424.34 196.564C1415.86 197.1 1408.19 204.419 1406.81 213.293C1405.43 222.167 1410.47 231.712 1418.34 235.104C1425.27 238.097 1433.83 236.186 1439.06 230.515C1444.29 224.844 1445.9 215.761 1442.97 208.462C1440.05 201.164 1432.8 196.06 1425.31 196.029" fill="black"/>
<path d="M1438.92 212.001C1436.61 212.117 1434.52 213.703 1434.14 215.624C1433.75 217.546 1435.13 219.615 1437.28 220.35C1439.17 221.001 1441.51 220.581 1442.93 219.352C1444.35 218.124 1444.8 216.16 1444 214.574C1443.2 212.989 1441.23 211.886 1439.18 211.875" fill="white"/>
<path d="M1381.81 241.028C1376.61 238.413 1369.52 241.017 1366.8 245.953C1364.08 250.888 1365.42 257.294 1369.28 261.505C1373.14 265.716 1379.1 267.858 1384.99 268.111C1391.55 268.394 1398.46 266.283 1402.68 261.526C1406.92 256.78 1407.75 249.229 1403.69 244.346C1400.83 240.902 1396.08 239.242 1391.45 238.98C1386.82 238.717 1382.24 239.683 1377.71 240.639" fill="#050504"/>
<path d="M1386.94 257.83C1390.72 272.941 1391.16 288.914 1388.25 304.225" stroke="#0F0D0D" stroke-miterlimit="10"/>
<path d="M1381.87 302.754C1376.13 306.913 1370.12 311.408 1367.44 318.044C1364.77 324.681 1367.17 333.964 1373.95 335.886C1377.4 336.863 1381.13 335.75 1384.26 333.985C1396.63 327.055 1401.62 311.838 1405.55 298.008" fill="#FF8C8C"/>
<path d="M1349.7 261.4C1354.11 276.007 1359.64 292.075 1372.88 299.226C1384.23 305.348 1398.93 302.754 1409.02 294.658C1419.11 286.561 1424.9 273.802 1426.7 260.833" stroke="#0F0D0D" stroke-miterlimit="10"/>
<path d="M1486.57 329.165C1464.93 371.632 1429.52 406.633 1387.23 427.342C1343.46 409.773 1305.24 373.26 1291.61 330.058C1310.56 350.777 1352.85 378.983 1389.34 378.878C1425.82 378.773 1461.82 360.186 1483.49 330.257" fill="#ED3434"/>
<path d="M811.813 520.416C809.758 516.866 807.651 512.865 808.886 509.138C810.173 505.242 814.782 502.816 815.976 498.899C816.972 495.622 815.322 492.094 813.215 489.143C811.107 486.192 808.481 483.472 807.173 480.206C805.004 474.83 807.682 471.333 812.104 465.137C813.37 462.533 810.9 463.184 810.889 462.921C802.44 462.196 793.99 461.482 785.551 460.758C781.555 466.807 778.192 472.971 781.161 478.306C783.942 483.315 791.24 485.436 794.115 490.403C796.243 494.079 795.423 498.468 793.762 502.207C792.101 505.945 789.641 509.379 788.479 513.275C787.316 517.171 787.731 521.855 790.741 524.27C795.817 523.304 800.904 522.327 805.98 521.361C808.139 520.952 810.495 520.426 811.741 518.841" fill="#E38E34"/>
<path d="M811.813 520.416C809.758 516.866 807.651 512.865 808.886 509.138C810.173 505.242 814.782 502.816 815.976 498.899C816.972 495.622 815.322 492.094 813.215 489.143C811.107 486.192 808.481 483.472 807.173 480.206C805.004 474.83 807.682 471.333 812.104 465.137C813.37 462.533 810.9 463.184 810.889 462.921C802.44 462.196 793.99 461.482 785.551 460.758C781.555 466.807 778.192 472.971 781.161 478.306C783.942 483.315 791.24 485.436 794.115 490.403C796.243 494.079 795.423 498.468 793.762 502.207C792.101 505.945 789.641 509.379 788.479 513.275C787.316 517.171 787.731 521.855 790.741 524.27C795.817 523.304 800.904 522.327 805.98 521.361C808.139 520.952 810.495 520.426 811.741 518.841" stroke="#BF6E3B" stroke-miterlimit="10"/>
<path d="M796.679 466.113C793.814 467.972 791.167 470.156 790.482 473.275C789.797 476.394 790.44 479.775 792.267 482.6C793.658 484.743 795.662 486.528 797.52 488.376C799.803 490.644 801.9 493.049 803.789 495.58C804.962 497.145 806.104 498.909 805.907 500.747C805.658 503.13 803.312 504.758 801.506 506.48C796.191 511.584 794.883 519.691 798.34 526.17" fill="#E38E34"/>
<path d="M796.679 466.113C793.814 467.972 791.167 470.156 790.482 473.275C789.797 476.394 790.44 479.775 792.267 482.6C793.658 484.743 795.662 486.528 797.52 488.376C799.803 490.644 801.9 493.049 803.789 495.58C804.962 497.145 806.104 498.909 805.907 500.747C805.658 503.13 803.312 504.758 801.506 506.48C796.191 511.584 794.883 519.691 798.34 526.17" stroke="#BF6E3B" stroke-miterlimit="10"/>
<path d="M828.961 514.965C828.515 510.775 828.183 506.123 830.518 502.91C832.958 499.56 837.639 498.804 840.006 495.391C841.988 492.535 841.874 488.502 841.168 484.89C840.462 481.277 839.258 477.686 839.321 474.042C839.424 468.025 842.881 465.546 848.725 461.052C850.697 458.951 848.424 458.731 848.507 458.468C841.77 454.803 835.034 451.128 828.297 447.463C822.847 451.968 817.896 456.82 818.467 463.068C819.007 468.949 824.3 473.569 824.923 479.439C825.38 483.777 823.159 487.788 820.46 490.854C817.761 493.921 814.512 496.42 812.176 499.823C809.841 503.214 808.533 507.94 810.163 511.364C814.709 512.204 819.256 513.033 823.802 513.873C825.733 514.23 827.871 514.545 829.47 513.432" fill="#E38E34"/>
<path d="M828.961 514.965C828.515 510.775 828.183 506.123 830.518 502.91C832.958 499.56 837.639 498.804 840.006 495.391C841.988 492.535 841.874 488.502 841.168 484.89C840.462 481.277 839.258 477.686 839.321 474.042C839.424 468.025 842.881 465.546 848.725 461.052C850.697 458.951 848.424 458.731 848.507 458.468C841.77 454.803 835.034 451.128 828.297 447.463C822.847 451.968 817.896 456.82 818.467 463.068C819.007 468.949 824.3 473.569 824.923 479.439C825.38 483.777 823.159 487.788 820.46 490.854C817.761 493.921 814.512 496.42 812.176 499.823C809.841 503.214 808.533 507.94 810.163 511.364C814.709 512.204 819.256 513.033 823.802 513.873C825.733 514.23 827.871 514.545 829.47 513.432" stroke="#BF6E3B" stroke-miterlimit="10"/>
<path d="M835.615 456.588C832.584 457.397 829.625 458.615 827.954 461.419C826.283 464.223 825.619 467.751 826.138 471.154C826.532 473.737 827.56 476.184 828.453 478.641C829.542 481.655 830.425 484.742 831.1 487.882C831.515 489.825 831.836 491.946 831.027 493.669C829.978 495.905 827.466 496.672 825.359 497.733C819.152 500.852 815.218 508.318 815.789 515.868" fill="#E38E34"/>
<path d="M835.615 456.588C832.584 457.397 829.625 458.615 827.954 461.419C826.283 464.223 825.619 467.751 826.138 471.154C826.532 473.737 827.56 476.184 828.453 478.641C829.542 481.655 830.425 484.742 831.1 487.882C831.515 489.825 831.836 491.946 831.027 493.669C829.978 495.905 827.466 496.672 825.359 497.733C819.152 500.852 815.218 508.318 815.789 515.868" stroke="#BF6E3B" stroke-miterlimit="10"/>
<path d="M801.091 515.05C797.779 511.164 794.26 506.764 794.136 502.396C794.011 497.838 797.707 494.677 797.468 490.088C797.271 486.255 794.375 482.359 791.24 479.167C788.105 475.974 784.524 473.076 782.053 469.453C777.974 463.488 779.375 459.256 781.514 451.811C781.835 448.723 779.624 449.679 779.521 449.385C770.905 449.269 762.289 449.154 753.674 449.028C751.888 456.274 750.788 463.614 755.636 469.463C760.193 474.966 768.175 476.772 772.805 482.223C776.23 486.245 776.998 491.338 776.697 495.748C776.396 500.159 775.202 504.296 775.441 508.854C775.69 513.401 777.787 518.725 781.628 521.235C786.309 519.702 790.98 518.169 795.662 516.635C797.655 515.984 799.793 515.186 800.457 513.265" fill="#E38E34"/>
<path d="M801.091 515.05C797.779 511.164 794.26 506.764 794.136 502.396C794.011 497.838 797.707 494.677 797.468 490.088C797.271 486.255 794.375 482.359 791.24 479.167C788.105 475.974 784.524 473.076 782.053 469.453C777.974 463.488 779.375 459.256 781.514 451.811C781.835 448.723 779.624 449.679 779.521 449.385C770.905 449.269 762.289 449.154 753.674 449.028C751.888 456.274 750.788 463.614 755.636 469.463C760.193 474.966 768.175 476.772 772.805 482.223C776.23 486.245 776.998 491.338 776.697 495.748C776.396 500.159 775.202 504.296 775.441 508.854C775.69 513.401 777.787 518.725 781.628 521.235C786.309 519.702 790.98 518.169 795.662 516.635C797.655 515.984 799.793 515.186 800.457 513.265" stroke="#BF6E3B" stroke-miterlimit="10"/>
<path d="M766.618 454.226C764.448 456.588 762.621 459.319 763.057 462.942C763.493 466.565 765.351 470.377 768.175 473.454C770.323 475.785 772.939 477.654 775.451 479.618C778.524 482.023 781.461 484.595 784.233 487.326C785.956 489.016 787.71 490.938 788.177 493.049C788.779 495.79 787.056 497.848 785.883 499.98C782.458 506.26 784.077 515.637 789.828 522.768" fill="#E38E34"/>
<path d="M766.618 454.226C764.448 456.588 762.621 459.319 763.057 462.942C763.493 466.565 765.351 470.377 768.175 473.454C770.323 475.785 772.939 477.654 775.451 479.618C778.524 482.023 781.461 484.595 784.233 487.326C785.956 489.016 787.71 490.938 788.177 493.049C788.779 495.79 787.056 497.848 785.883 499.98C782.458 506.26 784.077 515.637 789.828 522.768" stroke="#BF6E3B" stroke-miterlimit="10"/>
<path d="M837.11 497.04C843.068 555.774 869.984 613.142 913.197 659.191C868.417 698.571 807.173 721.485 744.851 721.821C740.45 666.668 716.741 608.102 676.757 558.42C673.985 551.489 671.203 544.558 668.432 537.638" fill="#13BFD6"/>
<path d="M837.483 497.449C843.514 552.392 868.821 606.201 908.993 649.54C868.167 686.043 812.042 707.046 754.701 706.941C750.134 655.358 727.786 600.446 690.531 553.736C687.915 547.236 685.3 540.746 682.673 534.246" fill="#21E5FF"/>
<path d="M829.729 605.277C825.152 599.984 818.332 594.314 813.484 588.695C816.37 577.816 814.169 570.486 811.647 559.785C804.454 565.676 803.436 573.973 796.866 578.394C785.437 580.242 781.192 582.038 773.759 585.429C766.441 579.874 756.539 576.85 746.76 577.207" fill="#F4E7C5"/>
<path d="M758.688 580.053C761.719 591.457 758.293 599.155 769.389 606.002C769.971 612.481 770.552 618.95 770.926 625.03C782.053 632.685 796.7 636.529 811.668 635.384C822.806 628.401 829.626 617.091 829.719 605.287L828.92 604.363" fill="#F4E7C5"/>
<path d="M768.507 605.298C757.982 598.063 750.29 587.876 747.238 576.577C756.86 576.346 766.556 579.444 773.407 585.062C776.78 583.256 780.538 581.954 784.451 581.271C786.299 586.249 789.06 590.943 790.908 595.931C793.015 601.602 791.209 608.312 787.596 613.384C783.984 618.456 777.714 622.1 770.677 622.972C769.971 617.028 769.254 611.084 768.549 605.141" fill="#F3AF4C"/>
<path d="M815.799 589.724C820.325 594.545 824.934 599.974 828.847 604.143C824.373 607.209 817.803 607.829 811.45 606.684C807.08 605.897 801.527 603.576 798.381 600.814C790.669 594.04 788.375 583.34 786.538 580.305C789.579 579.192 793.762 578.372 797.157 576.976C799.835 570.381 803.447 564.07 807.89 558.21C809.146 556.561 812.665 556.929 813.433 558.787C817.533 568.743 818.384 579.643 815.872 589.955" fill="#F3AF4C"/>
<path d="M804.135 594.437C804.88 593.488 804.614 592.02 803.54 591.158C802.467 590.296 800.993 590.368 800.248 591.317C799.504 592.267 799.77 593.735 800.843 594.597C801.917 595.458 803.391 595.387 804.135 594.437Z" fill="black"/>
<path d="M786.484 600.114C787.228 599.164 786.962 597.696 785.889 596.834C784.815 595.973 783.341 596.044 782.597 596.994C781.852 597.943 782.118 599.411 783.192 600.273C784.265 601.135 785.739 601.063 786.484 600.114Z" fill="black"/>
<path d="M801.693 615.862C801.776 616.933 801.34 618.026 800.51 618.834C799.679 619.643 798.465 620.157 797.676 620.168C798.288 622.037 798.911 623.938 800.157 625.555C801.402 627.183 803.385 628.516 805.648 628.653C807.911 628.789 810.34 627.424 810.568 625.503C810.879 622.888 809.457 619.296 808.097 616.923C807.703 616.23 805.7 617.343 804.797 617.364C803.904 617.385 804.88 617.154 803.987 617.143C803.084 617.133 802.087 616.807 801.776 616.083" fill="#F38FA7"/>
<path d="M803.488 610.979C804.153 612.554 803.083 614.508 801.236 615.075C799.388 615.642 797.094 614.739 796.399 613.174C795.714 613.426 794.655 613.079 794.219 612.397C793.783 611.714 794.042 610.769 794.624 610.286C797.042 609.53 799.461 608.763 801.879 608.007C802.834 607.703 804.038 608.165 804.402 608.984C804.765 609.803 804.246 610.822 803.301 611.147" fill="black"/>
<path d="M788.261 614.917C788.935 616.766 790.306 618.477 792.257 619.475C794.209 620.473 796.772 620.662 798.755 619.737C800.748 618.813 801.952 616.703 801.132 614.77C801.88 616.619 804.443 617.669 806.686 617.291C808.928 616.902 810.713 615.295 811.398 613.437C812.083 611.578 811.782 609.53 810.941 607.713" stroke="black" stroke-miterlimit="10"/>
<path d="M-234 754.472C-162.551 637.044 -34.1301 565.672 126.056 543.698C286.241 521.724 466.686 588.841 525.675 710.679C549.954 760.825 560.349 823.862 620.014 848.196C667.316 867.499 728.273 850.644 762.875 818.305C797.476 785.966 810.237 741.969 813.944 699.391C817.855 654.442 813.666 606.851 839.78 566.993C865.894 527.125 938.973 503.12 978.536 535.003C1003.29 554.947 1003.89 587.053 997.237 614.72C990.585 642.386 978.258 670.063 982.906 697.992C987.555 725.921 1017.85 754.034 1052.25 748.789C1075.52 745.243 1091.59 728.301 1103.46 711.815C1142.69 657.298 1161.24 594.524 1199.2 539.423C1237.15 484.323 1304.69 434.595 1382.85 438.335C1449.47 441.521 1513.28 482.837 1576.96 466.798C1625.35 454.607 1652.89 412.747 1661.63 372.559C1671.77 325.92 1663.61 278.144 1657.72 231.039C1651.83 183.934 1648.47 135.148 1667.58 90.3546C1686.68 45.5711 1733.32 5.36314 1791.84 0.389352C1812.75 -1.38839 1836.79 2.71111 1847.93 17.0496C1855.21 26.424 1855.46 38.1299 1855.5 49.1849C1856.33 348.855 1857.17 648.536 1858 948.206C1222.71 954.132 592.547 956.221 -42.6175 944.641C-105.868 943.485 -170.737 945.797 -233.988 944.641" fill="#FCFFFF"/>
<path d="M542.146 564.605C541.877 551.51 541.607 538.404 541.326 525.309C543.205 524.899 545.022 523.272 545.665 521.234C546.319 519.187 545.78 516.824 544.326 515.354C514.815 515.648 485.336 515.805 455.866 515.952C453.001 515.669 450.458 518.367 450.427 521.266C450.396 524.164 452.877 526.758 456.032 526.39C455.223 538.898 454.423 551.415 454.278 565.592C440.836 574.623 429.854 587.613 421.965 603.775C422.255 683.711 422.536 763.647 422.266 844.025C425.016 847.364 427.778 850.703 430.746 853.486C431.795 861.089 437.774 867.537 445.061 868.913C484.287 876.327 525.497 873.859 564.36 861.719C567.225 858.569 568.502 853.948 567.474 849.8C572.156 847.994 575.944 843.731 577.854 838.868C576.785 762.776 575.716 686.683 574.865 611.829C575.778 590.06 561.246 569.068 541.191 563.187" fill="#CFEA7A"/>
<path d="M431.358 600.394C431.94 674.323 432.521 748.252 433.113 822.182C433.248 839.11 449.845 853.287 466.018 850.273C486.062 846.545 506.386 852.52 526.638 850.914C546.89 849.317 569.851 834.983 569.373 814.022C567.692 740.702 566.01 667.371 564.339 594.051C521.334 606.306 475.588 606.768 433.05 595.374" fill="#C1E153"/>
<path d="M577.283 796.643C528.268 816.259 472.392 820.103 422.868 805.139C422.349 753.325 422.058 701.532 421.975 648.112C473.471 655.295 524.479 652.911 575.778 641.349L577.283 796.643Z" fill="#B3A9EB"/>
<path d="M472.23 690.734C472.269 694.881 471.555 698.496 470.087 701.579C468.619 704.662 466.589 707.077 463.995 708.824C461.401 710.571 458.429 711.515 455.079 711.654C451.728 711.793 448.74 711.098 446.116 709.569C443.491 708.039 441.417 705.795 439.892 702.836C438.367 699.878 437.585 696.325 437.546 692.178C437.507 688.031 438.221 684.416 439.689 681.333C441.157 678.25 443.187 675.835 445.781 674.088C448.374 672.341 451.346 671.398 454.697 671.258C458.048 671.119 461.036 671.814 463.66 673.344C466.285 674.873 468.359 677.117 469.884 680.076C471.409 683.034 472.191 686.587 472.23 690.734ZM467.626 690.926C467.594 687.521 466.998 684.671 465.837 682.376C464.69 680.081 463.145 678.372 461.202 677.249C459.272 676.126 457.118 675.613 454.739 675.712C452.36 675.811 450.211 676.503 448.291 677.786C446.384 679.069 444.873 680.906 443.757 683.295C442.653 685.684 442.118 688.581 442.15 691.986C442.182 695.391 442.772 698.241 443.919 700.537C445.08 702.832 446.625 704.541 448.555 705.664C450.497 706.787 452.658 707.299 455.037 707.2C457.415 707.101 459.558 706.41 461.465 705.127C463.385 703.843 464.897 702.007 466 699.618C467.116 697.228 467.658 694.331 467.626 690.926Z" fill="black"/>
<path d="M497.844 711.639L498.215 750.96L493.458 751.158L493.087 711.837L497.844 711.639Z" fill="black"/>
<path d="M531.698 783.943L531.327 744.622L536.085 744.424L536.416 779.521L554.679 778.761L554.719 782.985L531.698 783.943Z" fill="black"/>
<path d="M540.6 525.246C542.863 525.393 545.177 523.881 546.07 521.686C546.952 519.491 546.34 516.782 544.617 515.301C514.546 515.984 484.765 516.614 454.984 517.255C453.385 516.729 451.61 517.916 450.853 519.617C450.095 521.319 450.406 523.44 451.6 524.784C452.794 526.128 454.818 526.59 456.468 526.38C471.81 526.286 487.163 525.792 502.505 524.878" stroke="#84A5B6" stroke-miterlimit="10"/>
<path d="M456.157 527.01C455.835 529.205 455.866 531.452 456.219 534.246C459.748 535.495 463.6 535.443 467.368 535.369C477.582 535.18 487.785 534.991 497.999 534.802" stroke="#88A7B5" stroke-miterlimit="10"/>
<path d="M454.413 564.868C461.119 566.411 468.094 566.842 474.997 566.149" stroke="#88A7B5" stroke-miterlimit="10"/>
<path d="M470.461 932.215C471.883 936.248 473.305 940.28 474.582 944.166C547.679 973.927 634.333 973.423 706.527 942.276C706.87 938.705 707.202 935.124 707.098 931.921C711.011 901.341 709.247 870.11 699.23 838.932C702.697 832.516 704.503 823.443 699.219 818.108C693.292 812.122 684.947 808.436 678.023 805.947C663.854 802.639 657.699 801.054 645.357 799.174C599.289 793.22 546.423 790.72 502.972 805.548C487.619 810.778 478.204 813.529 471.312 826.026C464.42 838.522 464.222 854.012 470.793 866.761" fill="#B3A9EB"/>
<path d="M586.913 868.94C645.13 868.433 692.23 856.963 692.114 843.322C691.997 829.681 644.709 819.034 586.492 819.542C528.276 820.05 481.176 831.52 481.292 845.161C481.408 858.802 528.697 869.448 586.913 868.94Z" fill="#C1E153"/>
<path d="M700.87 820.376C710.689 823.453 712.589 830.415 708.177 839.005C713.17 839.856 716.004 848.131 711.79 852.584C717.758 875.75 719.191 900.375 717.052 924.707C643.883 970.43 538.835 972.236 460.89 928.435C458.005 903.106 457.268 879.467 460.454 856.322C458.575 851.901 460.402 843.395 466.381 841.799C462.997 835.12 467.772 827.947 471.561 825.522C475.9 836.202 494.263 842.345 506.573 844.949C561.298 856.543 627.689 860.061 680.089 840.476C687.739 837.619 698.306 828.662 700.019 824.409L700.87 820.376Z" fill="#846ADC"/>
<path d="M539.614 892.216C539.686 894.715 537.87 896.458 535.835 896.511C534.974 896.532 534.361 896.385 533.22 895.933C531.029 895.062 530.282 894.873 529.026 894.904C525.559 894.988 523.836 896.889 523.95 901.005C524.095 906.161 526.016 908.01 528.881 907.947C530.272 907.915 531.694 907.558 533.188 906.834C534.434 906.235 535.285 905.972 536.199 905.951C538.233 905.899 540.143 907.548 540.216 909.963C540.268 911.738 539.084 913.019 536.344 914.017C534.538 914.668 531.611 915.14 529.047 915.203C519.123 915.445 512.999 910.719 512.75 902.055C512.511 893.749 517.379 887.984 528.953 887.69C531.6 887.627 533.946 887.889 536.219 888.677C538.576 889.496 539.572 890.725 539.614 892.216Z" fill="white"/>
<path d="M546.703 914.184C543.922 913.806 542.759 912.746 542.686 910.288C542.634 908.314 543.06 905.321 542.935 900.806C542.832 897.057 542.541 894.442 542.448 891.333C542.375 888.96 543.776 887.585 546.278 887.406C549.174 887.175 551.686 887.112 554.551 887.038C565.99 886.755 569.841 889.244 569.976 894.085C570.069 897.351 567.568 899.43 564.08 900.081C569.436 900.68 571.367 903.21 571.45 906.193C571.595 911.275 566.696 914.342 555.817 914.604C552.921 914.678 549.184 914.531 546.703 914.184ZM559.212 895.24C559.17 893.749 558.194 893.203 555.34 893.276C554.821 893.287 554.125 893.308 553.305 893.371C553.253 894.536 553.201 895.912 553.201 897.487L556.274 897.414C558.495 897.351 559.253 896.605 559.212 895.24ZM560.602 906.014C560.551 904.324 559.751 903.61 555.983 903.704L553.295 903.767C553.347 905.458 553.419 906.791 553.513 908.241C554.551 908.293 555.506 908.314 556.284 908.293C559.544 908.22 560.644 907.432 560.602 906.014Z" fill="white"/>
<path d="M576.349 887.711C579.183 886.871 582.557 886.345 585.411 886.272C597.805 885.967 602.86 891.407 603.099 899.556C603.369 908.986 596.601 913.439 585.162 913.722C582.567 913.785 580.782 913.67 577.948 913.334C574.948 912.924 573.993 911.696 573.931 909.28C573.868 907.065 574.19 904.796 574.076 900.806C573.931 895.723 573.578 894.074 573.515 891.659C573.443 889.401 574.543 888.246 576.349 887.711ZM592.044 899.871C591.909 895.314 590.165 893.423 585.484 893.539C585.006 893.549 584.57 893.56 584.093 893.612C584.072 895.954 584.093 898.296 584.155 900.512C584.228 902.885 584.321 904.702 584.404 906.277L585.006 906.266C589.231 906.151 592.169 904.145 592.044 899.871Z" fill="white"/>
<path d="M613.199 902.654C613.033 896.931 617.019 892.069 625.468 891.859C633.399 891.659 638.485 895.009 638.672 901.499C638.859 908.073 634.167 912.179 626.319 912.378C618.69 912.567 613.396 909.385 613.199 902.654ZM625.665 897.141C624.067 897.183 623.236 898.779 623.33 902.045C623.434 905.636 624.513 907.054 626.164 907.012C627.897 906.97 628.582 905.3 628.499 902.276C628.395 898.611 627.44 897.099 625.665 897.141Z" fill="white"/>
<path d="M650.246 886.209C650.319 888.666 648.689 890.725 645.482 890.809C642.45 890.882 640.499 889.36 640.416 886.703C640.343 884.077 642.108 882.261 645.232 882.187C648.564 882.093 650.184 883.909 650.246 886.209ZM650.62 902.171C650.692 904.755 650.993 906.078 651.035 907.485C651.108 910.026 649.374 911.717 646.302 911.801C642.44 911.895 641.143 910.352 641.07 907.852C641.039 906.603 641.194 904.744 641.132 902.528C641.039 899.304 640.592 897.498 640.561 896.133C640.489 893.634 641.869 891.785 645.513 891.691C649.239 891.596 650.495 893.056 650.578 895.881C650.63 898.097 650.537 899.189 650.62 902.171Z" fill="white"/>
<path d="M653.609 896.248C653.443 890.399 653.069 887.952 653.017 886.093C652.945 883.468 654.751 881.41 658.041 881.326C661.425 881.242 662.899 882.901 662.982 885.883C663.096 889.874 662.993 892.216 663.138 897.256C663.262 901.688 663.74 904.828 663.823 907.527C663.906 910.268 662.391 911.843 659.048 911.916C655.799 912 653.9 910.919 653.806 907.684C653.744 905.405 653.806 902.864 653.609 896.248Z" fill="white"/>
<path d="M1024.69 680.214C1008.41 693.561 999.186 713.472 995.263 733.624C991.339 753.776 992.242 774.443 990.944 799.341C964.672 791.739 948.884 760.802 958.652 736.029C940.829 765.023 942.386 803.857 962.461 831.15C942.22 827.979 925.57 810.336 924.252 790.667C918.086 809.055 920.805 829.942 931.487 846.167C903.356 830.037 889.084 794.616 898.488 764.278C907.903 733.939 940.133 711.498 972.987 712.401C970.392 697.205 949.029 692.532 933.76 697.395C899.547 708.284 882.575 744.882 873.43 778.36C866.143 805.075 861.535 834.7 874.603 859.126C886.582 881.504 911.276 895.019 936.272 902.633C970.371 913.008 1007.39 914.573 1042.45 907.106C1067.58 901.751 1091.76 891.858 1117.33 889.254C1143.6 886.576 1169.89 891.711 1196.17 893.77C1222.45 895.828 1250.62 894.316 1272.62 880.139C1295.26 865.542 1307.72 839.352 1310.35 813.361C1312.99 787.37 1306.94 761.358 1299.11 736.428C1287.38 699.096 1267.28 658.97 1228.68 646.915" fill="#FFA8A8"/>
<path d="M1041.93 599.112C1010.37 639.847 1003.72 697.048 1025.22 743.065C1046.72 789.082 1095.47 822.045 1147.93 826.046C1175.69 828.157 1205.1 822.108 1226.51 804.834C1249.48 786.309 1260.7 757.053 1262.92 728.415C1265.13 699.778 1259.34 671.257 1253.58 643.145C1249.5 623.224 1243.84 601.024 1225.76 590.585C1212.32 582.814 1195.44 583.749 1179.74 584.925C1133.12 588.412 1173.21 587.55 1129.26 587.739C1096.01 588.643 1059.12 603.187 1060.36 593.862C1045.9 597.222 1090.08 591.005 1055.85 594.292" fill="#FFDEDE"/>
<path d="M1180.29 591.184C1194.02 564.71 1205.97 537.249 1216.04 509.074C1223.18 537.123 1228.05 565.781 1230.59 594.629" fill="#FFA8A8"/>
<path d="M1034.85 609.267C1040.13 581.596 1043.43 553.589 1044.71 525.509C1059.75 548.276 1072.81 572.261 1083.72 597.128" fill="#FFA8A8"/>
<path d="M1218.89 615.694C1167.4 632.812 1113.38 642.305 1060.39 647.954C1059.67 663.244 1059.87 680.813 1071.44 690.8C1084.45 702.026 1105.83 696.754 1117.57 684.195C1129.31 671.635 1133.86 654.171 1141.6 636.277C1151.11 650.937 1162.13 666.741 1179.02 671.141C1193.05 674.796 1209.05 668.768 1217.2 656.765C1225.35 644.762 1225.06 627.634 1216.51 615.904" fill="#F7A539"/>
<path d="M1153.33 677.096C1158.09 707.781 1160.92 721.726 1163.53 759.3C1147.56 772.343 1136.83 754.743 1134.59 754.165" stroke="#363636" stroke-miterlimit="10"/>
<path d="M1163.53 758.943C1166.34 763.238 1171.65 765.717 1176.71 765.076C1181.76 764.446 1186.32 760.739 1188.02 755.877" stroke="#363636" stroke-miterlimit="10"/>
<path d="M1061.73 648.899C1064.11 657.132 1067.87 665.145 1073.85 671.267C1079.84 677.39 1088.28 681.443 1096.81 680.855C1104.04 680.351 1110.7 676.654 1116.36 672.128C1127.4 663.286 1135.57 650.895 1143.8 637.831C1153.27 646.957 1165.25 653.446 1178.05 656.397C1184.89 657.973 1192.31 658.508 1198.75 655.683C1205.61 652.669 1210.45 646.158 1213.12 639.133C1215.79 632.118 1216.57 624.547 1217.32 617.07" fill="#855C28"/>
<path d="M1062.78 648.616C1069.86 663.423 1087.78 672.129 1103.79 668.527C1119.78 664.925 1132.27 649.383 1132.35 632.958C1133.05 633.263 1133.74 633.578 1134.43 633.883" fill="black"/>
<path d="M1150.5 630.816C1157.86 638.86 1166.82 646.369 1177.6 647.912C1185.81 649.088 1194.48 646.484 1200.69 640.971C1206.88 635.458 1210.51 627.141 1210.31 618.834" fill="black"/>
<path d="M1119.8 640.961C1116.45 640.226 1113.48 644.101 1114.7 647.65C1115.9 651.189 1120.72 652.764 1123 650.359C1125.28 647.955 1123.99 642.693 1120.76 641.276" fill="white"/>
<path d="M1196.1 627.309C1192.75 626.574 1189.78 630.449 1190.99 633.998C1192.2 637.537 1197.01 639.112 1199.3 636.707C1201.58 634.303 1200.28 629.042 1197.05 627.624" fill="white"/>
<path d="M1060.39 637.642C1084.32 627.614 1109.2 619.843 1134.57 614.466" stroke="#262121" stroke-miterlimit="10"/>
<path d="M1161.53 610.045C1177.81 607.136 1194.26 605.214 1210.77 604.3" stroke="#262121" stroke-miterlimit="10"/>
<path d="M1043.14 675.919C1049.99 693.992 1064.18 709.156 1081.74 717.158C1099.3 725.16 1120.04 725.906 1138.14 719.185" stroke="white" stroke-miterlimit="10"/>
<path d="M1037.99 707.591C1052.62 732.164 1084.22 745.186 1111.87 738.056" stroke="white" stroke-miterlimit="10"/>
<path d="M1053.31 746.226C1064.29 756.139 1079.21 761.568 1093.98 761.033C1108.76 760.497 1123.24 754.007 1133.47 743.317" stroke="white" stroke-miterlimit="10"/>
<path d="M1180.22 711.162C1192.55 713.441 1205.27 707.654 1214.38 699.022C1223.49 690.39 1229.65 679.164 1235.66 668.127" stroke="white" stroke-miterlimit="10"/>
<path d="M1182.23 728.153C1198.64 731.808 1216.57 727.891 1229.97 717.736C1243.37 707.571 1252.01 691.357 1252.96 674.544" stroke="white" stroke-miterlimit="10"/>
<path d="M1186.95 742.551C1193.14 749.072 1202.47 752.475 1211.4 751.456C1220.33 750.437 1228.65 745.019 1233.21 737.269" stroke="white" stroke-miterlimit="10"/>
<path d="M1022.16 751.938C1021.49 770.725 1024.25 789.617 1029.54 811.985C1032.04 804.676 1034.54 797.357 1039.75 791.55C1042.76 807.134 1050.7 821.73 1062.14 832.725C1058.53 827.548 1059.1 819.851 1063.43 815.251C1068.18 827.842 1078.12 838.375 1090.4 843.836" stroke="white" stroke-miterlimit="10"/>
<path d="M1276.09 723.974C1290.3 747.812 1287.35 780.67 1269.12 801.589C1273.42 792.736 1270.41 779.998 1267.24 770.673C1261.87 793.534 1247.45 844.172 1230.56 856.28C1234.45 853.466 1237.94 826.645 1237.44 821.857C1225.33 836.464 1219.23 850.735 1207.11 865.343" stroke="white" stroke-miterlimit="10"/>
<path d="M1120.57 736.397C1123.82 723.312 1123.49 703.034 1134.51 687.702C1147.15 670.133 1158.51 663.696 1171.57 678.618C1185.83 694.906 1194.61 711.561 1196.62 723.806" stroke="#363636" stroke-miterlimit="10"/>
<path d="M1166.7 668.81C1158.28 666.185 1147.6 668.432 1140.75 675.226C1145.12 681.926 1149.5 688.637 1155.58 696.261C1161.02 687.334 1164.44 677.6 1165.52 667.938" fill="#FF91B8"/>
<path d="M993.986 817.173C992.989 836.17 1004.95 855.177 1026.74 862.99C1026.3 855.713 1025.85 848.435 1028.06 842.649C1037.85 853.35 1049.44 862.392 1062.18 869.281" stroke="white" stroke-miterlimit="10"/>
<path d="M1150.91 840.15C1161.17 845.621 1173.58 846.871 1184.71 843.542" stroke="white" stroke-miterlimit="10"/>
<path d="M1130.92 790.185C1137.26 803.217 1152.34 811.397 1166.69 809.591" stroke="white" stroke-miterlimit="10"/>
<path d="M1054.48 604.909C1048.99 595.815 1049.71 583.361 1056.19 574.959C1063.77 582.384 1069.55 591.615 1072.93 601.675" fill="#FFBFBF"/>
<path d="M1195.98 591.909C1196.87 580.179 1201.68 567.892 1209.77 556.771C1217.77 566.978 1219.52 581.134 1214.45 594.964" fill="#FFBFBF"/>
<path d="M1426.59 651.855C1460.38 629.001 1482.54 602.559 1476.09 592.796C1469.64 583.032 1437.02 593.645 1403.23 616.5C1369.44 639.354 1347.28 665.796 1353.73 675.559C1360.18 685.322 1392.8 674.71 1426.59 651.855Z" fill="#B05659"/>
<path d="M1427.75 656.054C1461.54 633.2 1483.7 606.758 1477.25 596.995C1470.8 587.232 1438.17 597.844 1404.39 620.699C1370.6 643.553 1348.44 669.995 1354.89 679.758C1361.34 689.522 1393.96 678.909 1427.75 656.054Z" fill="#FFC7C9"/>
<path d="M1404.09 617.647C1413.97 629.073 1422.8 641.286 1430.48 654.14" stroke="#B2595C" stroke-miterlimit="10"/>
<path d="M1396.44 645.612C1393.07 646.914 1390.18 649.34 1388.44 652.312C1387.12 654.559 1386.48 657.321 1387.6 659.548C1389.05 662.404 1393.1 663.475 1396.48 662.53C1399.85 661.585 1402.57 659.085 1404.51 656.324" stroke="#B05659" stroke-miterlimit="10"/>
<path d="M1443.31 633.504C1439.88 628.821 1435.55 622.32 1431.61 617.521C1434.31 614.738 1437.63 612.47 1441.27 610.905C1442.34 610.443 1443.57 610.044 1444.6 610.475C1445.41 610.821 1445.9 611.63 1445.99 612.47C1446.08 613.31 1445.86 614.161 1445.54 614.969C1444.2 618.498 1441.31 621.564 1437.83 623.276C1440.96 621.606 1444.22 620.178 1447.58 619.012C1448.65 618.645 1449.75 618.298 1450.86 618.309C1451.98 618.319 1453.12 618.771 1453.63 619.663C1454.06 620.409 1453.98 621.354 1453.64 622.163C1453.29 622.982 1452.7 623.685 1452.08 624.368C1449.36 627.392 1446.17 630.039 1442.63 632.192" stroke="#B2595C" stroke-miterlimit="10"/>
<path d="M1428.79 572.063C1469.24 564.964 1500.45 549.926 1498.48 538.474C1496.52 527.022 1462.13 523.494 1421.68 530.592C1381.22 537.691 1350.02 552.729 1351.98 564.181C1353.95 575.633 1388.33 579.162 1428.79 572.063Z" fill="#B05659"/>
<path d="M1427.74 576.4C1468.19 569.301 1499.4 554.263 1497.43 542.811C1495.47 531.359 1461.08 527.83 1420.63 534.929C1380.17 542.028 1348.97 557.066 1350.93 568.518C1352.9 579.97 1387.28 583.499 1427.74 576.4Z" fill="#FFC7C9"/>
<path d="M1423.85 531.641C1426.84 546.248 1428.55 561.15 1428.94 576.135" stroke="#B2595C" stroke-miterlimit="10"/>
<path d="M1403.55 554.062C1400 553.841 1396.3 554.849 1393.33 556.855C1391.09 558.367 1389.18 560.625 1389.07 563.135C1388.92 566.359 1391.92 569.036 1395.31 569.593C1398.71 570.15 1402.28 568.984 1405.32 567.272" stroke="#B05659" stroke-miterlimit="10"/>
<path d="M1450.15 562.62C1449.46 556.887 1448.89 549.116 1447.81 543.077C1451.51 541.66 1455.5 540.977 1459.42 541.061C1460.57 541.093 1461.84 541.24 1462.53 542.069C1463.07 542.72 1463.09 543.676 1462.77 544.474C1462.44 545.272 1461.82 545.965 1461.16 546.574C1458.26 549.242 1454.26 550.838 1450.4 550.953C1453.93 550.733 1457.46 550.785 1460.94 551.132C1462.04 551.237 1463.17 551.384 1464.14 551.867C1465.1 552.35 1465.87 553.232 1465.88 554.272C1465.89 555.133 1465.36 555.962 1464.66 556.572C1463.96 557.17 1463.1 557.58 1462.24 557.937C1458.41 559.564 1454.33 560.646 1450.21 561.14" stroke="#B2595C" stroke-miterlimit="10"/>
<path d="M1426.59 651.855C1460.38 629.001 1482.54 602.559 1476.09 592.796C1469.64 583.032 1437.02 593.645 1403.23 616.5C1369.44 639.354 1347.28 665.796 1353.73 675.559C1360.18 685.322 1392.8 674.71 1426.59 651.855Z" fill="#B05659"/>
<path d="M1427.75 656.054C1461.54 633.2 1483.7 606.758 1477.25 596.995C1470.8 587.232 1438.17 597.844 1404.39 620.699C1370.6 643.553 1348.44 669.995 1354.89 679.758C1361.34 689.522 1393.96 678.909 1427.75 656.054Z" fill="#FFD97A"/>
<path d="M1404.09 617.647C1413.97 629.073 1422.8 641.286 1430.48 654.14" stroke="#B2595C" stroke-miterlimit="10"/>
<path d="M1396.44 645.612C1393.07 646.914 1390.18 649.34 1388.44 652.312C1387.12 654.559 1386.48 657.321 1387.6 659.548C1389.05 662.404 1393.1 663.475 1396.48 662.53C1399.85 661.585 1402.57 659.085 1404.51 656.324" stroke="#B05659" stroke-miterlimit="10"/>
<path d="M1443.31 633.504C1439.88 628.821 1435.55 622.32 1431.61 617.521C1434.31 614.738 1437.63 612.47 1441.27 610.905C1442.34 610.443 1443.57 610.044 1444.6 610.475C1445.41 610.821 1445.9 611.63 1445.99 612.47C1446.08 613.31 1445.86 614.161 1445.54 614.969C1444.2 618.498 1441.31 621.564 1437.83 623.276C1440.96 621.606 1444.22 620.178 1447.58 619.012C1448.65 618.645 1449.75 618.298 1450.86 618.309C1451.98 618.319 1453.12 618.771 1453.63 619.663C1454.06 620.409 1453.98 621.354 1453.64 622.163C1453.29 622.982 1452.7 623.685 1452.08 624.368C1449.36 627.392 1446.17 630.039 1442.63 632.192" stroke="#B2595C" stroke-miterlimit="10"/>
<path d="M1428.79 572.063C1469.24 564.964 1500.45 549.926 1498.48 538.474C1496.52 527.022 1462.13 523.494 1421.68 530.592C1381.22 537.691 1350.02 552.729 1351.98 564.181C1353.95 575.633 1388.33 579.162 1428.79 572.063Z" fill="#B05659"/>
<path d="M1427.74 576.4C1468.19 569.301 1499.4 554.263 1497.43 542.811C1495.47 531.359 1461.08 527.83 1420.63 534.929C1380.17 542.028 1348.97 557.066 1350.93 568.518C1352.9 579.97 1387.28 583.499 1427.74 576.4Z" fill="#FFD97A"/>
<path d="M1423.85 531.641C1426.84 546.248 1428.55 561.15 1428.94 576.135" stroke="#B2595C" stroke-miterlimit="10"/>
<path d="M1403.55 554.062C1400 553.841 1396.3 554.849 1393.33 556.855C1391.09 558.367 1389.18 560.625 1389.07 563.135C1388.92 566.359 1391.92 569.036 1395.31 569.593C1398.71 570.15 1402.28 568.984 1405.32 567.272" stroke="#B05659" stroke-miterlimit="10"/>
<path d="M1450.15 562.62C1449.46 556.887 1448.89 549.116 1447.81 543.077C1451.51 541.66 1455.5 540.977 1459.42 541.061C1460.57 541.093 1461.84 541.24 1462.53 542.069C1463.07 542.72 1463.09 543.676 1462.77 544.474C1462.44 545.272 1461.82 545.965 1461.16 546.574C1458.26 549.242 1454.26 550.838 1450.4 550.953C1453.93 550.733 1457.46 550.785 1460.94 551.132C1462.04 551.237 1463.17 551.384 1464.14 551.867C1465.1 552.35 1465.87 553.232 1465.88 554.272C1465.89 555.133 1465.36 555.962 1464.66 556.572C1463.96 557.17 1463.1 557.58 1462.24 557.937C1458.41 559.564 1454.33 560.646 1450.21 561.14" stroke="#B2595C" stroke-miterlimit="10"/>
<path d="M795.911 957.481C807.609 957.03 818.695 961.419 830.145 963.488C841.584 965.557 855.607 964.433 861.929 956.169C873.97 940.448 879.347 921.199 876.887 902.633C874.427 884.056 864.15 866.277 848.289 853.15" fill="#D59941"/>
<path d="M712.236 861.615C709.081 891.292 711.406 921.378 719.658 951.643C714.665 952.147 710.44 955.938 710.171 960.159C709.901 964.37 713.617 968.518 718.516 969.474C723.904 970.524 729.384 971.574 734.917 971.322C740.45 971.07 746.117 969.306 749.532 965.641C752.937 961.976 753.362 956.232 749.906 953.659C749.781 948.303 749.657 942.948 749.543 937.602C758.127 950.666 776.874 958.448 793.544 956.547C794.613 964.58 802.378 971.679 811.845 973.234C821.301 974.798 831.702 970.703 836.321 963.604C838.241 960.642 838.117 956.82 835.999 953.964C833.882 951.107 829.854 949.312 826.335 950.425C834.286 929.023 838.106 906.54 838.148 883.741C842.694 891.964 847.241 900.197 852.369 907.705C854.196 909.196 857.382 908.671 859.334 907.296C861.285 905.92 862.438 903.925 863.932 902.181C865.427 900.449 867.617 898.842 870.171 898.926C872.724 899.01 874.946 901.719 873.337 903.389C860.995 916.201 856.292 933.948 859.863 947.768C852.192 951.905 851.414 962.113 857.372 967.899C863.33 973.685 874.084 974.935 882.492 971.973C890.89 969.002 897.004 962.512 900.304 955.381C903.605 948.251 904.405 940.49 904.633 932.845C906.097 883.626 884.215 834.175 844.812 797.683C829.792 806.85 818.332 819.431 806.468 831.423C794.593 843.405 781.669 855.251 764.999 862.108C748.318 868.976 726.997 869.9 712.039 860.659" fill="#F4AE4C"/>
<path d="M710.825 802.019C701.078 820.418 699.22 841.672 705.666 861.068C712.112 880.464 726.81 897.844 747.311 909.469C747.892 919.561 748.671 928.865 749.522 937.697C752.792 945.027 760.162 948.87 766.442 951.748C774.715 955.539 782.801 958.038 793.524 956.526C795.818 940.711 798.849 925.641 799.876 908.556C816.796 900.837 830.02 887.605 836.155 872.294C842.29 856.983 841.262 839.73 833.487 826.172C833.591 816.532 838.345 806.976 847.501 800.675C847.833 796.118 845.715 784.85 845.414 779.998C821.654 797.787 799.42 808.877 771.704 822.339C771.362 817.761 766.68 824.797 761.76 822.781C744.851 815.839 731.024 804.592 714.115 797.64" fill="#F0DEB1"/>
<path d="M852.452 775.241C847.179 759.395 836.975 740.975 831.411 724.152C849.857 700.818 852.421 682.01 857.808 655.022C834.411 663.412 823.169 682.073 802.803 687.502C773.635 683.239 761.615 684.258 740.315 686.599C728.813 668.075 708.447 653.552 684.791 647.009" fill="#F4E7C5"/>
<path d="M710.15 662.667C705.219 691.671 688.881 707.129 708.032 731.534C702.52 747.139 697.019 762.755 691.455 777.268C709.797 803.584 740.595 823.6 777.455 832.19C811.419 824.198 839.674 802.828 852.452 775.241L851.538 772.49" fill="#F4E7C5"/>
<path d="M706.651 729.224C689.285 704.346 681.822 674.701 686.566 645.917C709.734 652.606 729.519 667.161 739.847 685.497C749.802 683.795 760.12 683.585 770.168 684.919C769.275 697.983 770.842 711.057 769.95 724.121C768.933 739.001 757.494 753.367 743.491 762.534C729.488 771.702 710.7 775.525 693.012 772.28C697.641 757.819 702.281 743.359 706.911 728.899" fill="#F3AF4C"/>
<path d="M835.823 728.3C841.48 743.012 846.66 759.184 851.549 771.912C837.65 775.735 821.311 772.248 807.422 764.782C797.852 759.636 787.108 750.048 782.551 741.196C771.393 719.51 777.309 692.721 776.178 684.226C784.586 683.911 795.423 685.15 805.014 684.404C818.405 670.963 833.726 658.886 850.542 648.5C855.275 645.57 863.278 649.088 863.122 654.014C862.282 680.424 852.722 706.604 835.781 728.878" fill="#F3AF4C"/>
<path d="M799.918 731.43C803.151 731.43 805.772 728.768 805.772 725.486C805.772 722.203 803.151 719.542 799.918 719.542C796.684 719.542 794.063 722.203 794.063 725.486C794.063 728.768 796.684 731.43 799.918 731.43Z" fill="black"/>
<path d="M751.857 731.43C755.091 731.43 757.712 728.768 757.712 725.486C757.712 722.203 755.091 719.542 751.857 719.542C748.624 719.542 746.003 722.203 746.003 725.486C746.003 728.768 748.624 731.43 751.857 731.43Z" fill="black"/>
<path d="M774.434 778.927C773.479 781.5 771.279 783.736 768.434 785.007C765.59 786.278 762.154 786.561 760.265 785.984C759.736 790.814 759.206 795.739 760.442 800.476C761.677 805.212 764.978 809.832 770.23 811.87C775.483 813.907 782.697 812.531 785.292 808.194C788.811 802.313 789.247 792.799 788.53 786.246C788.323 784.335 782.365 785.427 780.206 784.797C778.046 784.167 780.631 784.356 778.503 783.673C776.375 782.98 774.341 781.458 774.361 779.536" fill="#F38FA7"/>
<path d="M783.901 768.856C783.797 773.057 779.178 776.806 774.175 776.753C769.172 776.701 764.667 772.857 764.687 768.657C762.777 768.73 760.629 767.123 760.328 765.191C760.027 763.259 761.625 761.243 763.545 760.539C770.116 760.581 776.676 760.613 783.247 760.655C785.852 760.665 788.209 762.65 788.23 764.834C788.25 767.018 785.915 769.024 783.309 769.066" fill="black"/>
<path d="M743.46 766.62C743.107 771.461 744.529 776.491 748.12 780.292C751.712 784.094 757.608 786.467 763.327 785.795C769.047 785.123 774.175 781.09 774.268 775.934C774.071 780.817 779.074 785.228 784.825 786.005C790.575 786.782 796.534 784.367 800.146 780.534C803.758 776.701 805.211 771.671 805.139 766.788" stroke="black" stroke-miterlimit="10"/>
<path d="M1440.32 952.683C1568.45 952.683 1672.32 930.444 1672.32 903.011C1672.32 875.578 1568.45 853.34 1440.32 853.34C1312.19 853.34 1208.33 875.578 1208.33 903.011C1208.33 930.444 1312.19 952.683 1440.32 952.683Z" fill="#E38E34"/>
<path d="M1337.7 871.549C1369.4 864.702 1397.35 844.183 1412.58 816.596C1386.54 823.085 1362.12 838.858 1344.22 859.935C1372.95 829.974 1388.97 788.368 1386.48 747.087C1357.68 774.538 1341.14 811.628 1340.05 849.685C1348.11 804.288 1343.74 755.709 1325.69 712.055C1306.78 758.691 1307.44 810.4 1327.81 853.455C1316.66 815.997 1294.19 781.542 1265.25 756.685C1273.5 792.695 1290.99 826.887 1317.28 855.346C1295.08 844.099 1272.89 832.841 1250.14 820.765C1264.76 845.758 1292.77 863.127 1321.9 866.193C1311.09 875.855 1300.27 885.516 1291.53 892.751C1308.88 901.698 1333.17 889.107 1332.17 870.173C1334.59 887.511 1356.08 900.018 1372.25 894.148C1360.63 885.211 1349.02 876.275 1337.4 867.349" fill="#C1E153"/>
<path d="M1332.28 868.094L1332.14 907.222" stroke="#5A8045" stroke-miterlimit="10"/>
<path d="M1286.6 792.905C1304.44 823.128 1315.26 839.279 1333.1 869.502" stroke="#5A8045" stroke-miterlimit="10"/>
<path d="M1325.86 754.911C1332.56 798.491 1334.98 825.312 1332.71 869.113" stroke="#5A8045" stroke-miterlimit="10"/>
<path d="M1372.48 784.199C1357.18 818.57 1348.24 836.096 1332.94 870.467" stroke="#5A8045" stroke-miterlimit="10"/>
<path d="M1384.66 838.459C1364.75 850.746 1353.63 858.412 1333.71 870.699" stroke="#5A8045" stroke-miterlimit="10"/>
<path d="M1276.01 841.809C1298.69 852.3 1309.6 857.593 1332.28 868.083" stroke="#5A8045" stroke-miterlimit="10"/>
<path d="M1307.93 886.524C1315.74 884.623 1324.06 880.538 1331.63 868.882" stroke="#5A8045" stroke-miterlimit="10"/>
<path d="M1354.55 887.5C1342.57 883.048 1336.68 876.296 1331.29 865.017" stroke="#5A8045" stroke-miterlimit="10"/>
<path d="M1468.64 890.189C1491.56 885.211 1511.78 870.32 1522.8 850.294C1503.97 855.009 1486.3 866.456 1473.35 881.756C1494.13 860.008 1505.73 829.796 1503.92 799.814C1483.09 819.746 1471.12 846.671 1470.33 874.3C1476.17 841.337 1473 806.063 1459.95 774.37C1446.27 808.236 1446.74 845.779 1461.48 877.031C1453.41 849.832 1437.16 824.818 1416.22 806.766C1422.19 832.915 1434.84 857.74 1453.85 878.396C1437.79 870.226 1421.73 862.056 1405.28 853.287C1415.87 871.434 1436.12 884.046 1457.19 886.272C1449.37 893.287 1441.55 900.302 1435.23 905.552C1447.78 912.053 1465.34 902.906 1464.62 889.16C1466.38 901.751 1481.92 910.824 1493.62 906.571C1485.21 900.081 1476.81 893.602 1468.4 887.112" fill="#C1E153"/>
<path d="M1464.72 887.679L1464.62 916.096" stroke="#5A8045" stroke-miterlimit="10"/>
<path d="M1431.68 833.093C1444.58 855.041 1452.42 866.771 1465.32 888.708" stroke="#5A8045" stroke-miterlimit="10"/>
<path d="M1460.08 805.506C1464.92 837.147 1466.67 856.616 1465.03 888.425" stroke="#5A8045" stroke-miterlimit="10"/>
<path d="M1493.8 826.771C1482.73 851.723 1476.27 864.45 1465.19 889.401" stroke="#5A8045" stroke-miterlimit="10"/>
<path d="M1502.63 866.172C1488.21 875.088 1480.17 880.654 1465.77 889.58" stroke="#5A8045" stroke-miterlimit="10"/>
<path d="M1424.01 868.598C1440.42 876.212 1448.31 880.066 1464.72 887.679" stroke="#5A8045" stroke-miterlimit="10"/>
<path d="M1447.11 901.068C1452.76 899.682 1458.77 896.721 1464.25 888.257" stroke="#5A8045" stroke-miterlimit="10"/>
<path d="M1480.84 901.772C1472.17 898.538 1467.9 893.633 1464.01 885.442" stroke="#5A8045" stroke-miterlimit="10"/>
<path d="M1599.13 860.239C1628.74 854.001 1654.87 835.319 1669.1 810.2C1644.77 816.112 1621.94 830.468 1605.21 849.664C1632.06 822.382 1647.03 784.493 1644.71 746.898C1617.79 771.891 1602.34 805.674 1601.32 840.318C1608.86 798.974 1604.77 754.742 1587.91 714.984C1570.23 757.452 1570.84 804.54 1589.88 843.741C1579.47 809.633 1558.45 778.255 1531.41 755.625C1539.12 788.42 1555.47 819.557 1580.03 845.464C1559.29 835.214 1538.54 824.975 1517.28 813.97C1530.95 836.726 1557.13 852.541 1584.35 855.345C1574.25 864.145 1564.15 872.946 1555.97 879.53C1572.18 887.679 1594.88 876.211 1593.95 858.968C1596.21 874.762 1616.29 886.146 1631.4 880.801C1620.54 872.662 1609.69 864.523 1598.83 856.395" fill="#C1E153"/>
<path d="M1594.05 857.099L1593.93 892.73" stroke="#5A8045" stroke-miterlimit="10"/>
<path d="M1551.37 788.62C1568.04 816.144 1578.16 830.857 1594.83 858.37" stroke="#5A8045" stroke-miterlimit="10"/>
<path d="M1588.05 754.029C1594.31 793.713 1596.57 818.129 1594.46 858.024" stroke="#5A8045" stroke-miterlimit="10"/>
<path d="M1631.63 780.702C1617.33 811.996 1608.98 827.958 1594.68 859.252" stroke="#5A8045" stroke-miterlimit="10"/>
<path d="M1643.03 830.111C1624.41 841.295 1614.03 848.278 1595.4 859.462" stroke="#5A8045" stroke-miterlimit="10"/>
<path d="M1541.46 833.167C1562.66 842.723 1572.85 847.543 1594.05 857.099" stroke="#5A8045" stroke-miterlimit="10"/>
<path d="M1571.3 873.881C1578.6 872.148 1586.36 868.43 1593.45 857.813" stroke="#5A8045" stroke-miterlimit="10"/>
<path d="M1614.88 874.773C1603.68 870.72 1598.18 864.576 1593.13 854.295" stroke="#5A8045" stroke-miterlimit="10"/>
<path d="M1446.31 119.579C1444.02 122.74 1441.74 125.911 1439.41 129.093C1439.19 130.059 1439.63 131.11 1440.49 131.666C1441.35 132.223 1442.58 132.244 1443.55 131.614C1446.09 128.642 1448.64 125.68 1451.18 122.708" fill="#CFEA7A"/>
<path d="M1477.41 75.7993C1466.98 88.653 1456.55 101.517 1445.74 113.174C1444.53 116.292 1445.68 120.031 1448.47 122.026C1451.26 124.011 1455.48 124.095 1458.7 122.215C1469.88 108.437 1481.06 94.6702 1492.25 80.8925" fill="#CFEA7A"/>
<path d="M1489.58 53.0532C1495.41 46.1749 1501.24 39.2965 1506.95 32.6281C1510.09 29.3832 1515.87 28.7531 1519.62 31.2419C1523.36 33.7308 1524.56 39.0024 1522.49 42.7199C1517.11 49.8188 1511.73 56.9282 1506.34 64.0271" fill="white"/>
<path d="M1498.34 91.4253L1464.88 69.488L1481.52 47.8447L1514.98 69.7925L1498.34 91.4253Z" fill="#B3A9EB"/>
<path d="M1440.15 146.431C1442.65 149.382 1443.31 153.603 1441.84 157.153C1440.83 159.568 1441.72 162.509 1443.91 164.042C1446.11 165.575 1449.41 165.564 1451.65 164.031C1454.15 162.309 1455.04 159.033 1454.28 156.271C1453.53 153.509 1451.36 151.241 1448.81 149.644C1446.27 148.059 1443.36 147.061 1440.48 146.084" fill="#CFEA7A"/>
<path d="M337.283 778.864C331.096 778.518 324.941 783.495 324.453 789.229C323.976 794.963 329.259 800.382 336.297 800.508C340.937 808.678 345.587 816.858 349.999 824.713C346.48 832.379 351.431 842.093 359.995 844.33C366.939 849.265 370.344 858.055 368.174 867.275C371.932 875.13 380.994 880.433 390.419 880.286C399.844 880.139 409.124 874.542 413.453 866.645C417.159 864.692 420.875 862.728 426.179 861.237C434.4 860.061 440.898 851.933 439.621 844.424C438.344 836.916 429.532 831.497 422.276 833.261C419.671 828.336 417.065 823.411 415.02 818.15C418.155 808.909 410.629 798.25 400.208 797.536C396.357 788.378 392.506 779.211 388.862 769.98C391.032 764.477 387.035 757.841 381.253 757.326C372.991 755.845 363.742 759.426 358.739 766.504C349.978 767.659 341.726 772.458 336.733 779.316" fill="#FFA8A8"/>
<path d="M346.688 791.97C341.944 791.256 338.601 786.394 339.878 782.046C341.155 777.698 346.781 774.8 351.338 776.134" stroke="#9E5B34" stroke-miterlimit="10"/>
<path d="M373.801 763.165C374.714 759.08 380.049 756.591 384.274 757.883C388.343 759.132 391.904 764.446 388.042 769.424" stroke="#9E5B34" stroke-miterlimit="10"/>
<path d="M365.538 790.321C364.915 788.798 365.579 786.887 367.064 785.921C368.548 784.955 370.697 785.049 372.005 786.131" stroke="#9E5B34" stroke-miterlimit="10"/>
<path d="M383.091 780.566C381.762 779.663 381.741 777.541 383.059 776.533C384.378 775.525 386.62 775.956 387.305 777.342" stroke="#9E5B34" stroke-miterlimit="10"/>
<path d="M372.565 791.644C374.6 788.914 377.257 786.425 380.579 785.207C383.9 783.989 387.969 784.272 390.471 786.488C392.973 788.704 393.232 792.988 390.554 795.194" stroke="#9E5B34" stroke-miterlimit="10"/>
<path d="M381.706 790.424C383.635 789.314 384.915 787.912 384.567 787.292C384.218 786.672 382.372 787.069 380.444 788.179C378.515 789.288 377.235 790.691 377.583 791.311C377.932 791.931 379.778 791.534 381.706 790.424Z" stroke="#9E5B34" stroke-miterlimit="10"/>
<path d="M374.382 814.695C380.226 815.493 386.485 813.97 391.281 810.589C396.076 807.207 399.481 802.975 400.239 797.515" stroke="#9E5B34" stroke-miterlimit="10"/>
<path d="M363.659 834.479C368.143 838.837 376.562 839.069 381.627 834.963C386.703 830.856 387.596 823.085 383.547 818.381" stroke="#9E5B34" stroke-miterlimit="10"/>
<path d="M400.312 812.973C400.654 816.06 403.394 818.706 406.706 819.168C410.027 819.63 413.173 818.202 414.698 815.377" stroke="#9E5B34" stroke-miterlimit="10"/>
<path d="M377.932 846.766C380.216 849.78 382.499 852.804 384.295 855.556C383.081 862.812 386.247 870.415 391.53 874.196C397.333 876.59 404.983 874.689 408.927 869.859C412.872 865.028 412.706 857.793 408.543 853.392C404.381 848.992 396.658 847.9 390.98 850.904" stroke="#9E5B34" stroke-miterlimit="10"/>
<path d="M416.733 836.254C414.439 840.308 414.044 845.191 415.674 849.381C417.304 853.571 420.937 857.005 425.432 858.622C430.528 860.449 436.871 857.162 438.926 852.363C440.981 847.564 439.279 841.967 435.635 838.25C431.992 834.532 428.4 834.332 422.66 833.177C420.065 828.746 417.086 821.048 414.48 816.617" stroke="#9E5B34" stroke-miterlimit="10"/>
<path d="M615.596 642.536C612.026 638.503 604.78 637.611 600.493 640.666C596.206 643.733 595.687 650.17 599.933 654.602C597.099 662.268 594.265 669.923 591.514 677.264C584.01 679.584 580.293 688.332 584.01 694.937C584.85 702.131 580.823 709.387 573.069 713.441C569.903 720.361 571.802 729.088 577.709 734.832C583.615 740.576 593.227 743.044 601.386 741.091C605.029 742.235 608.683 743.391 612.981 745.806C618.866 750.206 628.52 749.471 632.963 744.273C637.405 739.085 635.755 730.453 630.056 726.998C631.883 722.503 633.71 717.998 636.118 713.651C644.485 710.175 647.266 699.274 641.36 692.407C645.367 684.657 649.374 676.907 653.567 669.241C658.726 667.361 660.896 661.008 657.699 657.122C653.65 651.136 645.46 647.513 637.447 648.563C631.26 643.817 622.831 641.528 614.984 642.441" fill="#FFD97A"/>
<path d="M612.264 656.04C609.835 652.69 611.174 647.765 614.984 646.011C618.793 644.258 624.274 646.032 626.153 649.645" stroke="#9E5B34" stroke-miterlimit="10"/>
<path d="M649.01 655.946C652.415 654.118 657.429 655.967 659.131 659.338C660.771 662.593 659.255 667.907 653.411 668.432" stroke="#9E5B34" stroke-miterlimit="10"/>
<path d="M625.011 666.741C625.686 665.471 627.43 664.757 629.018 665.114C630.606 665.471 631.862 666.857 631.914 668.296" stroke="#9E5B34" stroke-miterlimit="10"/>
<path d="M642.616 671.887C642.419 670.532 643.893 669.282 645.398 669.503C646.903 669.723 647.993 671.362 647.443 672.611" stroke="#9E5B34" stroke-miterlimit="10"/>
<path d="M628.416 671.866C631.572 671.519 634.935 671.708 637.831 673.053C640.727 674.397 643.031 677.075 643.031 679.931C643.031 682.787 640.208 685.444 637.011 685.077" stroke="#9E5B34" stroke-miterlimit="10"/>
<path d="M638.817 676.69C638.972 676.096 637.503 675.188 635.535 674.663C633.567 674.137 631.846 674.193 631.691 674.787C631.536 675.382 633.006 676.29 634.973 676.815C636.941 677.341 638.662 677.285 638.817 676.69Z" stroke="#9E5B34" stroke-miterlimit="10"/>
<path d="M613.479 686.494C616.521 690.579 621.431 693.562 626.745 694.538C632.06 695.525 637.094 695.147 641.36 692.417" stroke="#9E5B34" stroke-miterlimit="10"/>
<path d="M593.102 691.451C592.822 696.775 597.846 702.12 603.825 702.855C609.804 703.59 615.773 699.6 616.551 694.328" stroke="#9E5B34" stroke-miterlimit="10"/>
<path d="M630.648 701.532C628.717 703.548 628.551 706.793 630.274 709.125C631.997 711.445 634.924 712.559 637.841 711.855" stroke="#9E5B34" stroke-miterlimit="10"/>
<path d="M593.341 707.476C592.646 710.658 591.95 713.84 591.141 716.56C585.349 720.057 581.996 726.473 582.608 731.955C584.508 736.953 590.549 740.566 596.341 740.177C602.133 739.789 607.074 735.441 607.573 730.285C608.071 725.129 604.085 719.71 598.5 717.956" stroke="#9E5B34" stroke-miterlimit="10"/>
<path d="M624.544 725.328C620.309 726.284 616.666 728.898 614.756 732.364C612.835 735.829 612.68 740.093 614.33 743.81C616.199 748.032 622.385 750.038 626.994 748.494C631.603 746.95 634.447 742.624 634.8 738.192C635.153 733.761 633.077 731.419 630.347 727.187C631.831 722.976 635.36 716.633 636.845 712.422" stroke="#9E5B34" stroke-miterlimit="10"/>
<path d="M1639.82 520.531C1642.31 518.546 1642.39 514.734 1641.87 511.531C1640.28 501.933 1635.26 493.081 1628.48 486.192C1621.71 479.303 1613.25 474.315 1604.32 470.87C1590.95 465.714 1575.99 463.971 1562.38 468.192C1548.78 472.424 1536.81 483.188 1533 497.187C1531.41 503.015 1531.24 509.19 1531.96 515.207C1532.71 521.455 1534.47 527.714 1538.09 532.828C1541.72 537.942 1547.41 541.765 1553.56 542.038C1554.27 540.179 1554.98 538.32 1555.14 535.558C1550.35 532.293 1545.8 528.491 1542.49 523.681C1539.17 518.872 1537.19 512.918 1537.91 507.11C1538.55 501.986 1541.21 497.344 1544.42 493.375C1553.37 482.285 1567.16 475.417 1581.28 475.008C1595.4 474.598 1609.63 480.657 1619.34 491.201C1622.11 494.204 1624.56 497.649 1625.7 501.597C1626.84 505.546 1626.51 510.082 1624.1 513.369" fill="#363636"/>
<path d="M1542.82 640.803C1550.12 626.868 1559.39 613.657 1570.38 600.541C1568.17 598.693 1565.95 596.844 1563.74 594.996C1553.52 612.901 1541.51 630.081 1527.93 646.243" fill="#808080"/>
<path d="M1498.63 683.68C1496.18 669.545 1491.58 655.883 1484.98 643.197C1495.13 642.105 1505.65 644.573 1514.3 649.592C1544.07 638.303 1573.64 627.088 1603.22 616.597C1611.53 619.401 1619.57 622.782 1627.52 628.075C1590.4 637.001 1553.74 648.154 1518.37 661.501C1515.03 670.753 1507.77 679.028 1498.55 684.1" fill="#A8A8A8"/>
<path d="M1579.38 484.953C1612.3 504.17 1645.23 523.388 1679.12 542.027C1676.01 555.238 1670.34 567.997 1664.69 580.662C1659.5 592.308 1654.28 604.006 1647.17 614.875C1642.6 621.848 1636.72 628.853 1628.98 632.15C1596.49 615.117 1564 598.084 1531.5 581.05C1527.35 578.877 1522.95 576.44 1521.23 572.324C1519.23 567.577 1521.36 562.001 1523.58 557.034C1529.32 544.201 1535.86 531.631 1543.15 519.387C1547.45 512.172 1552.05 505.01 1558.03 498.825C1564.02 492.64 1571.55 487.431 1580.03 485.11" fill="#808080"/>
<path d="M1499.06 683.554C1491.54 680.193 1485.85 674.155 1483.43 666.941C1481.01 659.726 1481.89 651.42 1485.82 642.893C1488.87 643.596 1491.02 645.78 1492.77 648.007C1500.46 657.815 1503.5 670.585 1501.14 683.176" fill="#363636"/>
<path d="M1473.01 689.928C1481.36 691.23 1488.5 696.607 1491.41 703.79C1483 703.065 1475.65 697.689 1473.13 690.422" fill="#67AEB8"/>
<path d="M1481.31 721.642C1481.08 712.464 1476.3 703.79 1467.79 697.899C1466.36 707.644 1471.69 717.452 1480.81 721.821" fill="#67AEB8"/>
<path d="M1456.53 712.464C1461.56 706.531 1462.74 698.203 1460.01 691.346C1456.36 693.656 1453.74 697.363 1453 701.269C1452.25 705.176 1453.39 709.219 1456.05 712.096" fill="#67AEB8"/>
<path d="M1524.13 574.823C1553.18 552.718 1573.47 520.205 1579.36 485.005C1569.09 488.659 1560.25 495.611 1553.18 503.718C1546.11 511.825 1540.69 521.077 1535.7 530.423C1531.42 538.415 1527.42 546.543 1523.71 554.765C1522.18 558.136 1520.69 561.602 1520.33 565.214C1519.98 568.827 1520.95 572.681 1523.71 575.033" fill="#363636"/>
<path d="M1675.69 314.442C1699.95 275.157 1708.9 226.903 1699.67 185.213C1680.49 218.302 1670.81 258.439 1671.91 296.779C1673.46 238.864 1652.92 183.175 1615.03 146.988C1611.24 202.624 1627.42 254.606 1659.12 291.465C1627.73 240.471 1581.77 199.389 1527.06 177.106C1549.18 240.513 1594.28 288.388 1650.71 307.7C1607.88 284.083 1556.85 275.031 1507.93 281.699C1546.76 306.955 1592.82 320.932 1642.3 320.407C1611.5 332.851 1580.71 345.306 1548.66 357.55C1584.08 365.857 1625.67 353.129 1656.03 325.805C1654.06 346.083 1652.09 366.361 1649.99 382.218C1674.19 372.641 1686.47 335.623 1669.24 318.874C1686.46 332.652 1717.66 322.119 1728 299.835C1709.26 303.489 1690.52 307.144 1671.78 310.798" fill="#87CF57"/>
<path d="M1667.55 316.826L1701.08 353.717" stroke="#5A8045" stroke-miterlimit="10"/>
<path d="M1559.41 293.565C1602.38 303.458 1626.58 307.396 1669.55 317.288" stroke="#5A8045" stroke-miterlimit="10"/>
<path d="M1564.08 217.189C1607.93 251.172 1633.3 273.855 1668.83 317.33" stroke="#5A8045" stroke-miterlimit="10"/>
<path d="M1633.64 196.354C1648.64 244.503 1655.22 270.221 1670.23 318.359" stroke="#5A8045" stroke-miterlimit="10"/>
<path d="M1691.92 234.674C1683.53 266.871 1679.56 285.584 1671.16 317.781" stroke="#5A8045" stroke-miterlimit="10"/>
<path d="M1591.4 350.493C1622.01 336.821 1636.93 330.488 1667.55 316.826" stroke="#5A8045" stroke-miterlimit="10"/>
<path d="M1660.24 359.367C1666.03 349.485 1670.43 337.031 1667.61 318.223" stroke="#5A8045" stroke-miterlimit="10"/>
<path d="M1705.45 311.954C1690.23 320.187 1678.81 319.966 1663.97 314.957" stroke="#5A8045" stroke-miterlimit="10"/>
<path d="M910.674 259.1C926.078 272.615 934.092 293.702 931.362 313.529C915.127 301.242 906.667 279.872 910.342 260.36" fill="#21E5FF"/>
<path d="M889.249 340.727C899.847 319.85 900.615 294.353 890.432 270.336C875.744 290.362 874.748 319.126 887.993 340.475" fill="#21E5FF"/>
<path d="M849.919 288.724C867.316 281.793 879.803 264.634 882.523 245.805C872.309 246.351 862.499 251.339 856.261 259.152C850.022 266.965 847.448 277.477 849.379 287.296" fill="#21E5FF"/>
</svg>
