<svg width="1728" height="949" viewBox="0 0 1728 949" fill="none" xmlns="http://www.w3.org/2000/svg">
<path d="M1240.1 297.837C1237.78 287.846 1235.47 277.865 1233.15 267.875C1234.56 267.286 1235.72 265.771 1235.91 264.109C1236.1 262.448 1235.29 260.723 1233.91 259.808C1210.76 264.414 1187.63 268.895 1164.48 273.385C1162.18 273.596 1160.62 276.036 1161.06 278.255C1161.5 280.474 1163.88 282.093 1166.3 281.347C1167.68 291.043 1169.05 300.74 1171.21 311.614C1162.1 320.511 1155.55 332.09 1151.95 345.636C1165.02 406.781 1178.08 467.925 1190.78 529.491C1193.47 531.636 1196.18 533.792 1198.96 535.475C1201 541.144 1206.74 545.192 1212.69 545.161C1244.7 545.024 1276.69 537.021 1305.3 521.961C1307.04 519.121 1307.3 515.398 1305.83 512.37C1309.22 510.287 1311.52 506.47 1312.24 502.463C1299.18 444.378 1286.11 386.294 1273.42 329.114C1270.64 312.319 1255.84 298.394 1239.15 296.869" fill="#CFEA7A"/>
<path d="M1158.77 341.661C1171.11 398.167 1183.44 454.664 1195.77 511.171C1198.6 524.106 1213.92 532.499 1226.14 527.798C1241.3 521.971 1258.23 523.528 1273.89 519.3C1289.55 515.072 1305.3 500.706 1301.55 484.721C1288.45 428.845 1275.35 372.969 1262.27 317.093C1230.44 332.847 1194.55 339.988 1159.3 337.58" fill="#C1E153"/>
<path d="M1304.98 470.239C1269.61 492.524 1226.31 503.745 1184.98 499.644C1176.25 460.058 1167.71 420.462 1159.07 379.584C1200.69 377.449 1240.39 368.057 1278.86 351.609L1304.98 470.239Z" fill="#B3A9EB"/>
<path d="M1205.02 405.076C1205.72 408.265 1205.75 411.153 1205.11 413.741C1204.47 416.329 1203.29 418.485 1201.57 420.207C1199.84 421.93 1197.69 423.088 1195.12 423.683C1192.55 424.277 1190.12 424.176 1187.84 423.379C1185.56 422.582 1183.59 421.155 1181.93 419.098C1180.27 417.041 1179.09 414.418 1178.39 411.229C1177.69 408.04 1177.66 405.152 1178.3 402.564C1178.93 399.976 1180.12 397.82 1181.84 396.098C1183.57 394.375 1185.72 393.217 1188.29 392.622C1190.86 392.028 1193.29 392.129 1195.57 392.926C1197.85 393.723 1199.82 395.15 1201.48 397.207C1203.14 399.264 1204.32 401.887 1205.02 405.076ZM1201.48 405.893C1200.91 403.275 1199.98 401.166 1198.71 399.567C1197.45 397.966 1195.98 396.874 1194.3 396.291C1192.62 395.707 1190.87 395.625 1189.04 396.047C1187.22 396.469 1185.66 397.314 1184.38 398.582C1183.11 399.847 1182.24 401.481 1181.76 403.484C1181.3 405.485 1181.35 407.794 1181.93 410.412C1182.5 413.03 1183.42 415.14 1184.68 416.741C1185.95 418.34 1187.42 419.432 1189.1 420.017C1190.78 420.6 1192.54 420.68 1194.37 420.258C1196.19 419.836 1197.74 418.992 1199.01 417.727C1200.29 416.459 1201.16 414.825 1201.63 412.824C1202.11 410.821 1202.06 408.511 1201.48 405.893Z" fill="black"/>
<path d="M1228.81 417.105L1235.46 447.339L1231.81 448.183L1225.16 417.949L1228.81 417.105Z" fill="black"/>
<path d="M1267.13 467.606L1260.48 437.372L1264.13 436.528L1270.07 463.514L1284.09 460.274L1284.8 463.522L1267.13 467.606Z" fill="black"/>
<path d="M1232.56 267.937C1234.36 267.706 1235.94 266.213 1236.29 264.404C1236.63 262.595 1235.71 260.618 1234.12 259.734C1210.6 264.719 1187.3 269.62 1163.99 274.521C1162.65 274.353 1161.44 275.52 1161.13 276.94C1160.81 278.36 1161.39 279.937 1162.55 280.779C1163.71 281.62 1165.36 281.693 1166.63 281.273C1178.67 278.928 1190.66 276.267 1202.57 273.301" stroke="#84A5B6" stroke-miterlimit="10"/>
<path d="M1166.47 281.809C1166.56 283.545 1166.95 285.259 1167.68 287.341C1170.66 287.773 1173.68 287.163 1176.63 286.553C1184.63 284.891 1192.62 283.24 1200.61 281.578" stroke="#88A7B5" stroke-miterlimit="10"/>
<path d="M1171.18 311.046C1176.7 311.235 1182.26 310.531 1187.57 308.974" stroke="#88A7B5" stroke-miterlimit="10"/>
<path d="M1021.99 499.844C1031.84 544.13 1035.29 589.752 1032.19 634.953C1026.89 587.165 1021.59 539.387 1016.08 491.483C1003.75 517.933 972.577 534.854 942.855 531.215C964.862 515.409 985.123 497.309 1003.17 477.327" fill="#C1E153"/>
<path d="M1141.97 571.316C1069.16 551.87 989.796 554.005 918.475 581.675C991.124 608.387 1075.91 605.253 1146.02 573.251" fill="#846ADC"/>
<path d="M1022.93 494.291C1041.51 516.639 1075.45 528.555 1106.74 523.717C1086.71 511.433 1066.67 499.16 1046.7 486.845C1088.06 492.209 1132.13 477.422 1158.54 449.342C1113.79 443.085 1065.95 456.672 1034.14 484.647C1071.59 456.02 1094.6 413.68 1096.21 370.434C1064.7 386.715 1041.33 414.384 1032.94 445.325C1039.4 423.218 1045.9 400.944 1047.3 378.175C1048.69 355.406 1044.66 331.827 1031.31 312.182C1029.39 309.353 1026.34 306.24 1022.61 306.881C1019.71 307.386 1018.02 309.963 1016.77 312.287C989.786 362.242 982.531 420.011 997.773 475.108C1005.59 450.772 989.953 424.375 966.943 408.842C943.932 393.319 914.879 386.452 886.526 380.541C894.158 420.726 928.24 456.315 972.41 470.25C944.779 463.435 916.395 458.912 887.77 456.756C885.585 456.588 882.992 456.588 881.685 458.124C880.075 460.006 881.654 462.635 883.306 464.486C906.316 490.379 948.292 502.315 984.538 493.281" fill="#C1E153"/>
<path d="M971.229 518.858C988.992 507.868 1005.27 494.701 1019.32 480.556C1018.25 488.275 1018.41 496.152 1019.78 503.829" stroke="#557842" stroke-miterlimit="10"/>
<path d="M1021.5 482.386C1031.59 522.791 1034.95 565.458 1031.29 606.989C1030.31 608.377 1028.28 607.83 1027.28 606.389C1026.27 604.949 1026.03 602.982 1025.82 601.142C1021.63 563.344 1017.43 525.557 1013.24 487.76C1012.92 484.952 1012.63 481.997 1013.51 479.42C1014.39 476.843 1016.89 474.898 1019.05 476.044" fill="#0A0A0A"/>
<path d="M1142.84 583.295C1135.25 636.195 1127.66 689.094 1120.07 742.004C1118.49 752.994 1116.73 764.437 1109.59 773.628C1095.22 792.096 1065.58 794.662 1039.9 795.43C1010.38 796.313 976.415 795.566 957.586 775.858C947.163 764.952 943.797 750.365 940.942 736.42C930.456 685.277 926.4 631.62 917.252 581.549C994.24 598.997 1073.32 596.746 1147.26 571.264" fill="#B3A9EB"/>
<path d="M1028.13 349.232C1012.8 390.111 1008.22 434.629 1018.32 478.473C1048.81 460.847 1071.93 431.957 1081.71 399.26" stroke="#557842" stroke-miterlimit="10"/>
<path d="M1136.91 457.482C1103.7 481.765 1057.51 489.358 1017.58 477.085C1030.6 495.048 1049.49 509.172 1071.02 517.028" stroke="#557842" stroke-miterlimit="10"/>
<path d="M926.326 411.913C956.216 436.69 987.831 459.554 1019.7 477.685C989.138 490.41 952.766 489.716 922.761 475.855" stroke="#557842" stroke-miterlimit="10"/>
<path d="M1362.81 192.952C1338.91 201.376 1322.37 223.83 1313.15 247.471C1303.93 271.124 1300.61 296.606 1294.18 321.163C1287.75 345.719 1277.41 370.508 1257.8 386.588C1251.27 391.941 1243.78 396.263 1238.33 402.721C1232.89 409.178 1229.88 418.78 1234.03 426.142C1238.68 434.397 1249.93 436.143 1259.25 434.618C1277.43 431.642 1293.3 419.958 1304.91 405.623C1316.51 391.278 1324.4 374.336 1331.95 357.498C1354.87 306.313 1376.26 251.289 1369.18 195.623C1366.22 194.319 1362.43 195.192 1360.34 197.664" fill="#F0DEB1"/>
<path d="M1465.14 180.722C1489.04 189.146 1505.58 211.599 1514.8 235.241C1524.02 258.883 1527.33 284.375 1533.76 308.932C1540.19 333.489 1550.53 358.277 1570.14 374.357C1576.68 379.71 1584.16 384.033 1589.61 390.49C1595.06 396.948 1598.07 406.549 1593.92 413.911C1589.26 422.167 1578.02 423.913 1568.69 422.388C1550.51 419.411 1534.64 407.727 1523.03 393.393C1511.43 379.058 1503.55 362.105 1496 345.268C1473.07 294.082 1451.68 239.058 1458.76 183.393C1461.73 182.089 1465.51 182.962 1467.6 185.433" fill="#F0DEB1"/>
<path d="M1536.75 503.294C1527.04 426.205 1517.32 349.117 1507.6 272.039C1504.16 244.727 1500.18 216.037 1483.64 194.046C1469.05 174.632 1445.14 162.601 1420.88 162.443C1396.63 162.286 1372.57 174.012 1357.73 193.237C1342.55 212.893 1337.44 238.312 1332.78 262.732C1317.86 340.935 1302.93 419.127 1291.62 497.225C1369.59 519.837 1452.73 524.338 1532.67 510.277" fill="#F3AF4C"/>
<path d="M1319.55 332.658C1347.41 386.378 1375.35 448.458 1363.07 513.494C1398.32 521.045 1437.55 521.782 1476.84 517.049C1473.16 461.973 1477.35 386.83 1497.32 335.392" fill="#F5E267"/>
<path d="M1421.62 240.983C1421.38 219.581 1421.13 198.169 1420.89 176.767C1420.86 174.096 1420.82 171.361 1419.94 168.837C1419.06 166.313 1417.17 163.979 1414.59 163.295C1412.01 162.611 1408.84 164.094 1408.3 166.713C1406.71 191.449 1407.78 217.12 1412.65 241.33C1408.33 239.963 1403.19 241.814 1400.73 245.631C1398.26 249.449 1398.65 254.886 1399.73 259.377C1394.67 253.203 1386.48 249.754 1378.53 250.437C1370.59 251.121 1363.11 255.938 1359.18 262.889C1356.73 267.222 1355.64 272.186 1353.54 276.708C1351.45 281.231 1347.88 285.564 1342.97 286.405C1336.96 287.436 1333.61 282.64 1328.26 286.478C1323.73 300.182 1322.27 318.092 1319.93 330.554C1338.92 355.553 1361.63 370.613 1391.93 378.648C1422.24 386.683 1456.34 381.624 1488.24 364.313C1498.78 354.775 1505.84 347.066 1514.8 329.208C1513.86 316.683 1512.99 319.954 1512.05 307.428C1511.84 304.683 1510.83 289.623 1509.5 287.215C1507.35 283.344 1499.06 281.683 1494.68 281.115C1489.85 280.484 1484.93 281.157 1480.1 280.579C1475.27 280 1470.15 277.76 1468.18 273.301C1466.68 269.914 1467.29 266.002 1466.87 262.321C1465.84 253.172 1457.48 245.421 1448.29 245.105C1439.1 244.79 1430.24 251.952 1428.59 261.007C1431.9 258.094 1432.91 252.856 1430.9 248.923C1428.89 244.99 1424.06 242.739 1419.76 243.738" fill="white"/>
<path d="M1375.07 194.488C1365.01 195.087 1355.92 203.301 1354.28 213.26C1352.63 223.22 1358.61 233.926 1367.95 237.733C1376.17 241.088 1386.32 238.953 1392.52 232.59C1398.72 226.227 1400.62 216.037 1397.16 207.844C1393.7 199.651 1385.1 193.93 1376.22 193.888" fill="#F5E267"/>
<path d="M1453.02 194.488C1442.96 195.087 1433.87 203.301 1432.23 213.26C1430.58 223.22 1436.56 233.926 1445.9 237.733C1454.12 241.088 1464.27 238.953 1470.47 232.59C1476.67 226.227 1478.57 216.037 1475.11 207.844C1471.65 199.651 1463.05 193.93 1454.17 193.888" fill="#F5E267"/>
<path d="M1375.25 197.769C1366.52 198.274 1358.61 205.267 1357.19 213.744C1355.77 222.221 1360.97 231.328 1369.07 234.567C1376.21 237.417 1385.02 235.598 1390.41 230.192C1395.79 224.776 1397.45 216.11 1394.44 209.138C1391.44 202.165 1383.97 197.296 1376.25 197.264" fill="#2B2B2A"/>
<path d="M1390.42 212.314C1388.09 212.43 1385.98 214.018 1385.6 215.943C1385.21 217.867 1386.6 219.939 1388.77 220.675C1390.67 221.327 1393.02 220.906 1394.45 219.676C1395.89 218.445 1396.33 216.479 1395.53 214.891C1394.72 213.303 1392.74 212.199 1390.68 212.188" fill="white"/>
<path d="M1453.23 196.854C1444.69 197.391 1436.96 204.721 1435.57 213.608C1434.18 222.494 1439.26 232.054 1447.19 235.451C1454.17 238.448 1462.78 236.534 1468.05 230.855C1473.32 225.176 1474.94 216.079 1471.99 208.77C1469.06 201.461 1461.75 196.349 1454.21 196.318" fill="black"/>
<path d="M1467.92 212.314C1465.59 212.43 1463.49 214.018 1463.1 215.943C1462.71 217.867 1464.1 219.939 1466.27 220.675C1468.17 221.327 1470.52 220.906 1471.95 219.676C1473.39 218.445 1473.84 216.479 1473.03 214.891C1472.23 213.303 1470.24 212.199 1468.18 212.188" fill="white"/>
<path d="M1410.4 241.383C1405.16 238.764 1398.02 241.372 1395.28 246.315C1392.54 251.258 1393.89 257.673 1397.78 261.89C1401.67 266.108 1407.67 268.253 1413.6 268.506C1420.2 268.79 1427.17 266.676 1431.42 261.911C1435.69 257.158 1436.52 249.596 1432.43 244.706C1429.55 241.256 1424.77 239.595 1420.11 239.332C1415.45 239.069 1410.83 240.037 1406.27 240.994" fill="#050504"/>
<path d="M1415.56 258.21C1419.37 273.344 1419.82 289.34 1416.88 304.673" stroke="#0F0D0D" stroke-miterlimit="10"/>
<path d="M1410.46 303.2C1404.68 307.365 1398.62 311.866 1395.93 318.513C1393.23 325.159 1395.66 334.456 1402.48 336.381C1405.95 337.359 1409.71 336.244 1412.86 334.477C1425.33 327.536 1430.34 312.297 1434.31 298.447" fill="#FF8C8C"/>
<path d="M1378.06 261.785C1382.49 276.414 1388.06 292.505 1401.4 299.667C1412.83 305.798 1427.64 303.2 1437.8 295.092C1447.96 286.984 1453.79 274.206 1455.61 261.217" stroke="#0F0D0D" stroke-miterlimit="10"/>
<path d="M1515.9 329.65C1494.12 372.18 1458.45 407.233 1415.85 427.972C1371.77 410.377 1333.27 373.811 1319.55 330.544C1338.64 351.294 1381.23 379.542 1417.98 379.437C1454.72 379.332 1490.98 360.717 1512.81 330.744" fill="#ED3434"/>
<path d="M836.313 521.183C834.243 517.628 832.12 513.621 833.364 509.888C834.661 505.986 839.303 503.556 840.505 499.634C841.509 496.352 839.846 492.819 837.724 489.864C835.602 486.908 832.957 484.184 831.639 480.914C829.454 475.529 832.152 472.027 836.605 465.822C837.881 463.214 835.393 463.866 835.382 463.603C826.872 462.877 818.362 462.162 809.862 461.437C805.837 467.494 802.45 473.668 805.44 479.01C808.242 484.027 815.592 486.151 818.488 491.125C820.631 494.806 819.805 499.202 818.132 502.946C816.459 506.69 813.982 510.129 812.811 514.031C811.64 517.933 812.058 522.623 815.09 525.042C820.202 524.075 825.325 523.097 830.437 522.129C832.612 521.719 834.985 521.193 836.239 519.605" fill="#E38E34"/>
<path d="M836.313 521.183C834.243 517.628 832.12 513.621 833.364 509.888C834.661 505.986 839.303 503.556 840.505 499.634C841.509 496.352 839.846 492.819 837.724 489.864C835.602 486.908 832.957 484.184 831.639 480.914C829.454 475.529 832.152 472.027 836.605 465.822C837.881 463.214 835.393 463.866 835.382 463.603C826.872 462.877 818.362 462.162 809.862 461.437C805.837 467.494 802.45 473.668 805.44 479.01C808.242 484.027 815.592 486.151 818.488 491.125C820.631 494.806 819.805 499.202 818.132 502.946C816.459 506.69 813.982 510.129 812.811 514.031C811.64 517.933 812.058 522.623 815.09 525.042C820.202 524.075 825.325 523.097 830.437 522.129C832.612 521.719 834.985 521.193 836.239 519.605" stroke="#BF6E3B" stroke-miterlimit="10"/>
<path d="M821.069 466.8C818.184 468.662 815.518 470.849 814.828 473.973C814.138 477.096 814.786 480.483 816.626 483.312C818.027 485.457 820.045 487.245 821.916 489.096C824.216 491.368 826.328 493.776 828.231 496.31C829.412 497.877 830.562 499.644 830.364 501.485C830.113 503.872 827.75 505.502 825.931 507.227C820.578 512.338 819.261 520.457 822.742 526.946" fill="#E38E34"/>
<path d="M821.069 466.8C818.184 468.662 815.518 470.849 814.828 473.973C814.138 477.096 814.786 480.483 816.626 483.312C818.027 485.457 820.045 487.245 821.916 489.096C824.216 491.368 826.328 493.776 828.231 496.31C829.412 497.877 830.562 499.644 830.364 501.485C830.113 503.872 827.75 505.502 825.931 507.227C820.578 512.338 819.261 520.457 822.742 526.946" stroke="#BF6E3B" stroke-miterlimit="10"/>
<path d="M853.583 515.724C853.134 511.528 852.799 506.869 855.151 503.651C857.608 500.296 862.323 499.539 864.707 496.121C866.704 493.26 866.589 489.222 865.878 485.604C865.167 481.986 863.954 478.389 864.017 474.74C864.121 468.714 867.603 466.232 873.489 461.731C875.475 459.627 873.185 459.407 873.269 459.144C866.484 455.473 859.699 451.792 852.914 448.122C847.425 452.634 842.438 457.493 843.013 463.75C843.557 469.639 848.889 474.267 849.516 480.146C849.976 484.489 847.739 488.507 845.021 491.578C842.303 494.648 839.03 497.151 836.678 500.559C834.326 503.956 833.008 508.688 834.65 512.117C839.229 512.958 843.808 513.789 848.387 514.63C850.332 514.988 852.485 515.304 854.095 514.189" fill="#E38E34"/>
<path d="M853.583 515.724C853.134 511.528 852.799 506.869 855.151 503.651C857.608 500.296 862.323 499.539 864.707 496.121C866.704 493.26 866.589 489.222 865.878 485.604C865.167 481.986 863.954 478.389 864.017 474.74C864.121 468.714 867.603 466.232 873.489 461.731C875.475 459.627 873.185 459.407 873.269 459.144C866.484 455.473 859.699 451.792 852.914 448.122C847.425 452.634 842.438 457.493 843.013 463.75C843.557 469.639 848.889 474.267 849.516 480.146C849.976 484.489 847.739 488.507 845.021 491.578C842.303 494.648 839.03 497.151 836.678 500.559C834.326 503.956 833.008 508.688 834.65 512.117C839.229 512.958 843.808 513.789 848.387 514.63C850.332 514.988 852.485 515.304 854.095 514.189" stroke="#BF6E3B" stroke-miterlimit="10"/>
<path d="M860.285 457.261C857.232 458.071 854.253 459.291 852.569 462.099C850.886 464.907 850.217 468.441 850.74 471.848C851.137 474.435 852.172 476.886 853.071 479.347C854.169 482.365 855.058 485.457 855.737 488.601C856.155 490.547 856.48 492.671 855.664 494.396C854.608 496.636 852.078 497.404 849.956 498.466C843.704 501.59 839.742 509.067 840.317 516.629" fill="#E38E34"/>
<path d="M860.285 457.261C857.232 458.071 854.253 459.291 852.569 462.099C850.886 464.907 850.217 468.441 850.74 471.848C851.137 474.435 852.172 476.886 853.071 479.347C854.169 482.365 855.058 485.457 855.737 488.601C856.155 490.547 856.48 492.671 855.664 494.396C854.608 496.636 852.078 497.404 849.956 498.466C843.704 501.59 839.742 509.067 840.317 516.629" stroke="#BF6E3B" stroke-miterlimit="10"/>
<path d="M825.513 515.809C822.178 511.917 818.634 507.511 818.508 503.136C818.383 498.572 822.104 495.406 821.864 490.81C821.665 486.972 818.749 483.07 815.591 479.873C812.434 476.676 808.827 473.773 806.339 470.145C802.23 464.171 803.642 459.933 805.795 452.476C806.119 449.384 803.893 450.341 803.788 450.047C795.111 449.931 786.433 449.816 777.756 449.689C775.958 456.946 774.85 464.297 779.732 470.155C784.322 475.666 792.361 477.475 797.024 482.933C800.474 486.961 801.248 492.062 800.944 496.479C800.641 500.896 799.439 505.039 799.679 509.604C799.93 514.158 802.042 519.49 805.91 522.003C810.625 520.468 815.33 518.932 820.045 517.397C822.052 516.745 824.206 515.945 824.875 514.021" fill="#E38E34"/>
<path d="M825.513 515.809C822.178 511.917 818.634 507.511 818.508 503.136C818.383 498.572 822.104 495.406 821.864 490.81C821.665 486.972 818.749 483.07 815.591 479.873C812.434 476.676 808.827 473.773 806.339 470.145C802.23 464.171 803.642 459.933 805.795 452.476C806.119 449.384 803.893 450.341 803.788 450.047C795.111 449.931 786.433 449.816 777.756 449.689C775.958 456.946 774.85 464.297 779.732 470.155C784.322 475.666 792.361 477.475 797.024 482.933C800.474 486.961 801.248 492.062 800.944 496.479C800.641 500.896 799.439 505.039 799.679 509.604C799.93 514.158 802.042 519.49 805.91 522.003C810.625 520.468 815.33 518.932 820.045 517.397C822.052 516.745 824.206 515.945 824.875 514.021" stroke="#BF6E3B" stroke-miterlimit="10"/>
<path d="M790.793 454.895C788.608 457.261 786.768 459.996 787.207 463.624C787.646 467.252 789.517 471.07 792.361 474.151C794.525 476.486 797.16 478.358 799.69 480.325C802.784 482.733 805.743 485.31 808.534 488.044C810.27 489.737 812.037 491.662 812.507 493.776C813.113 496.521 811.378 498.582 810.197 500.717C806.747 507.006 808.377 516.397 814.169 523.538" fill="#E38E34"/>
<path d="M790.793 454.895C788.608 457.261 786.768 459.996 787.207 463.624C787.646 467.252 789.517 471.07 792.361 474.151C794.525 476.486 797.16 478.358 799.69 480.325C802.784 482.733 805.743 485.31 808.534 488.044C810.27 489.737 812.037 491.662 812.507 493.776C813.113 496.521 811.378 498.582 810.197 500.717C806.747 507.006 808.377 516.397 814.169 523.538" stroke="#BF6E3B" stroke-miterlimit="10"/>
<path d="M861.791 497.772C867.792 556.593 894.901 614.046 938.423 660.162C893.322 699.6 831.64 722.548 768.87 722.885C764.437 667.65 740.559 608.998 700.288 559.243C697.497 552.302 694.695 545.361 691.903 538.43" fill="#13BFD6"/>
<path d="M862.167 498.182C868.241 553.206 893.729 607.094 934.189 650.497C893.071 687.054 836.542 708.087 778.791 707.982C774.191 656.324 751.682 601.331 714.161 554.552C711.526 548.042 708.892 541.543 706.247 535.033" fill="#21E5FF"/>
<path d="M854.357 606.169C849.746 600.868 842.878 595.189 837.995 589.563C840.902 578.667 838.686 571.327 836.145 560.61C828.9 566.51 827.875 574.818 821.258 579.246C809.747 581.097 805.471 582.895 797.986 586.292C790.615 580.729 780.641 577.7 770.793 578.057" fill="#F4E7C5"/>
<path d="M782.806 580.908C785.858 592.329 782.408 600.038 793.584 606.895C794.17 613.384 794.755 619.862 795.132 625.951C806.339 633.618 821.09 637.467 836.166 636.321C847.384 629.327 854.253 618.001 854.347 606.18L853.542 605.254" fill="#F4E7C5"/>
<path d="M792.696 606.19C782.095 598.944 774.348 588.743 771.274 577.427C780.966 577.195 790.73 580.298 797.63 585.924C801.028 584.115 804.813 582.811 808.754 582.128C810.615 587.113 813.396 591.814 815.257 596.809C817.379 602.488 815.56 609.208 811.922 614.288C808.284 619.368 801.969 623.017 794.881 623.89C794.17 617.937 793.448 611.985 792.738 606.032" fill="#F3AF4C"/>
<path d="M840.327 590.593C844.886 595.42 849.527 600.858 853.469 605.033C848.963 608.104 842.345 608.724 835.947 607.578C831.545 606.789 825.952 604.465 822.784 601.699C815.017 594.916 812.706 584.199 810.856 581.16C813.919 580.045 818.132 579.225 821.551 577.826C824.248 571.221 827.886 564.901 832.361 559.032C833.626 557.381 837.17 557.749 837.944 559.611C842.073 569.581 842.93 580.497 840.4 590.825" fill="#F3AF4C"/>
<path d="M828.58 595.314C829.33 594.363 829.062 592.892 827.981 592.029C826.9 591.166 825.415 591.238 824.665 592.189C823.915 593.14 824.184 594.61 825.265 595.473C826.346 596.336 827.83 596.265 828.58 595.314Z" fill="black"/>
<path d="M810.801 600.998C811.551 600.047 811.283 598.576 810.202 597.713C809.121 596.85 807.636 596.922 806.886 597.873C806.136 598.824 806.404 600.294 807.485 601.157C808.566 602.02 810.051 601.949 810.801 600.998Z" fill="black"/>
<path d="M826.119 616.77C826.203 617.842 825.764 618.936 824.927 619.746C824.091 620.556 822.868 621.071 822.073 621.081C822.69 622.953 823.317 624.857 824.572 626.477C825.826 628.107 827.823 629.442 830.102 629.579C832.381 629.716 834.828 628.349 835.058 626.424C835.371 623.805 833.939 620.209 832.57 617.832C832.172 617.138 830.155 618.252 829.245 618.273C828.346 618.294 829.329 618.063 828.43 618.053C827.52 618.042 826.516 617.716 826.203 616.99" fill="#F38FA7"/>
<path d="M827.927 611.88C828.596 613.457 827.52 615.413 825.659 615.981C823.798 616.549 821.487 615.645 820.787 614.078C820.097 614.33 819.03 613.983 818.591 613.299C818.152 612.616 818.414 611.669 818.999 611.186C821.435 610.428 823.871 609.661 826.307 608.903C827.269 608.598 828.481 609.061 828.847 609.882C829.213 610.702 828.691 611.722 827.739 612.048" fill="black"/>
<path d="M812.591 615.823C813.27 617.674 814.65 619.389 816.616 620.388C818.581 621.387 821.163 621.576 823.16 620.651C825.167 619.725 826.38 617.611 825.554 615.676C826.307 617.527 828.889 618.579 831.148 618.2C833.406 617.811 835.204 616.202 835.894 614.341C836.584 612.479 836.281 610.428 835.434 608.609" stroke="black" stroke-miterlimit="10"/>
<path d="M-217 755.583C-145.039 637.982 -15.697 566.505 145.637 544.499C306.971 522.493 488.71 589.708 548.122 711.726C572.575 761.946 583.044 825.076 643.137 849.446C690.779 868.777 752.173 851.898 787.022 819.511C821.872 787.124 834.725 743.062 838.458 700.421C842.397 655.407 838.178 607.745 864.479 567.828C890.781 527.902 964.383 503.862 1004.23 535.792C1029.16 555.765 1029.77 587.918 1023.07 615.626C1016.37 643.333 1003.95 671.05 1008.63 699.021C1013.31 726.991 1043.82 755.146 1078.48 749.892C1101.91 746.341 1118.09 729.374 1130.05 712.865C1169.57 658.267 1188.24 595.4 1226.47 540.218C1264.7 485.037 1332.72 435.235 1411.44 438.981C1478.54 442.172 1542.81 483.548 1606.95 467.486C1655.68 455.277 1683.42 413.355 1692.22 373.108C1702.44 326.4 1694.22 278.554 1688.28 231.379C1682.35 184.205 1678.97 135.347 1698.22 90.4878C1717.45 45.6383 1764.43 5.37104 1823.37 0.389925C1844.43 -1.39043 1868.64 2.7151 1879.86 17.0747C1887.19 26.463 1887.45 38.1861 1887.48 49.2574C1888.32 349.37 1889.16 649.492 1890 949.604C1250.16 955.538 615.474 957.63 -24.2452 946.033C-87.9496 944.876 -153.283 947.191 -216.988 946.033" fill="#FCFFFF"/>
<path d="M564.712 565.436C564.44 552.322 564.169 539.197 563.886 526.082C565.779 525.672 567.608 524.042 568.256 522.002C568.915 519.951 568.371 517.585 566.908 516.112C537.185 516.407 507.494 516.565 477.814 516.712C474.928 516.428 472.367 519.131 472.335 522.033C472.304 524.936 474.803 527.534 477.981 527.165C477.165 539.691 476.36 552.227 476.214 566.425C462.675 575.469 451.614 588.479 443.669 604.664C443.961 684.718 444.244 764.772 443.972 845.268C446.742 848.612 449.523 851.956 452.513 854.743C453.569 862.358 459.591 868.815 466.93 870.193C506.438 877.617 547.943 875.146 587.085 862.989C589.971 859.834 591.257 855.206 590.222 851.052C594.937 849.243 598.752 844.973 600.676 840.104C599.599 763.899 598.522 687.694 597.665 612.73C598.585 590.929 583.949 569.906 563.75 564.016" fill="#CFEA7A"/>
<path d="M453.129 601.277C453.715 675.316 454.3 749.354 454.896 823.393C455.032 840.346 471.749 854.543 488.037 851.525C508.225 847.792 528.695 853.776 549.092 852.167C569.489 850.568 592.615 836.213 592.134 815.221C590.44 741.793 588.747 668.354 587.064 594.925C543.75 607.198 497.677 607.661 454.834 596.25" fill="#C1E153"/>
<path d="M600.102 797.817C550.735 817.462 494.458 821.311 444.579 806.325C444.056 754.435 443.763 702.566 443.68 649.067C495.545 656.26 546.919 653.873 598.586 642.294L600.102 797.817Z" fill="#B3A9EB"/>
<path d="M494.022 691.716C494.061 695.863 493.347 699.478 491.88 702.56C490.412 705.643 488.381 708.058 485.788 709.804C483.194 711.55 480.222 712.493 476.871 712.631C473.521 712.77 470.533 712.074 467.908 710.544C465.284 709.013 463.209 706.769 461.684 703.81C460.159 700.851 459.377 697.298 459.337 693.151C459.298 689.004 460.012 685.389 461.48 682.307C462.947 679.224 464.978 676.809 467.571 675.063C470.165 673.317 473.137 672.374 476.488 672.236C479.839 672.097 482.826 672.793 485.451 674.323C488.076 675.854 490.15 678.098 491.675 681.057C493.2 684.016 493.983 687.569 494.022 691.716ZM489.418 691.906C489.385 688.502 488.789 685.652 487.629 683.356C486.481 681.061 484.936 679.351 482.993 678.228C481.063 677.104 478.909 676.591 476.53 676.69C474.151 676.788 472.002 677.479 470.082 678.762C468.175 680.045 466.664 681.881 465.548 684.27C464.445 686.659 463.909 689.556 463.941 692.961C463.974 696.365 464.564 699.216 465.711 701.511C466.872 703.807 468.417 705.516 470.347 706.64C472.29 707.763 474.45 708.276 476.829 708.177C479.208 708.079 481.351 707.388 483.258 706.106C485.178 704.823 486.689 702.987 487.792 700.598C488.908 698.208 489.45 695.311 489.418 691.906Z" fill="black"/>
<path d="M520.025 712.672L520.398 751.993L515.64 752.19L515.267 712.869L520.025 712.672Z" fill="black"/>
<path d="M554.154 785.023L553.781 745.702L558.539 745.505L558.872 780.602L577.135 779.846L577.175 784.07L554.154 785.023Z" fill="black"/>
<path d="M563.154 526.02C565.433 526.167 567.764 524.652 568.663 522.454C569.552 520.256 568.935 517.543 567.2 516.06C536.913 516.744 506.918 517.375 476.924 518.016C475.314 517.49 473.526 518.679 472.763 520.382C472 522.086 472.314 524.211 473.516 525.557C474.718 526.903 476.757 527.366 478.419 527.155C493.871 527.061 509.333 526.566 524.785 525.651" stroke="#84A5B6" stroke-miterlimit="10"/>
<path d="M478.106 527.787C477.781 529.985 477.813 532.235 478.168 535.033C481.723 536.284 485.601 536.232 489.397 536.158C499.684 535.969 509.961 535.779 520.248 535.59" stroke="#88A7B5" stroke-miterlimit="10"/>
<path d="M476.349 565.7C483.103 567.246 490.129 567.677 497.081 566.983" stroke="#88A7B5" stroke-miterlimit="10"/>
<path d="M492.512 933.589C493.944 937.627 495.377 941.666 496.663 945.557C570.284 975.362 657.559 974.857 730.271 943.664C730.616 940.088 730.951 936.502 730.846 933.294C734.787 902.669 733.01 871.392 722.921 840.168C726.413 833.742 728.232 824.656 722.911 819.313C716.941 813.318 708.536 809.627 701.563 807.135C687.292 803.822 681.092 802.234 668.662 800.351C622.264 794.388 569.019 791.885 525.256 806.735C509.794 811.972 500.311 814.728 493.369 827.243C486.427 839.758 486.229 855.27 492.847 868.037" fill="#B3A9EB"/>
<path d="M609.799 870.221C668.433 869.712 715.871 858.225 715.754 844.564C715.637 830.903 668.009 820.241 609.375 820.75C550.741 821.258 503.303 832.745 503.42 846.406C503.538 860.067 551.165 870.729 609.799 870.221Z" fill="#C1E153"/>
<path d="M724.573 821.585C734.463 824.667 736.376 831.64 731.933 840.242C736.962 841.094 739.816 849.381 735.571 853.841C741.583 877.041 743.026 901.703 740.872 926.07C667.177 971.86 561.377 973.669 482.873 929.803C479.966 904.437 479.224 880.764 482.434 857.584C480.541 853.157 482.382 844.638 488.403 843.04C484.995 836.351 489.804 829.168 493.62 826.739C497.99 837.434 516.484 843.587 528.884 846.195C584 857.805 650.868 861.329 703.643 841.715C711.348 838.854 721.991 829.883 723.716 825.624L724.573 821.585Z" fill="#846ADC"/>
<path d="M562.16 893.531C562.234 896.034 560.404 897.779 558.355 897.832C557.487 897.853 556.87 897.706 555.72 897.253C553.514 896.381 552.762 896.191 551.497 896.223C548.005 896.307 546.269 898.21 546.384 902.333C546.531 907.497 548.465 909.348 551.35 909.285C552.751 909.253 554.184 908.896 555.689 908.17C556.944 907.571 557.801 907.308 558.721 907.287C560.77 907.234 562.694 908.885 562.767 911.304C562.819 913.081 561.627 914.364 558.867 915.363C557.048 916.015 554.1 916.489 551.518 916.552C541.523 916.794 535.355 912.061 535.104 903.385C534.863 895.066 539.767 889.292 551.424 888.998C554.089 888.935 556.452 889.198 558.742 889.986C561.115 890.807 562.119 892.037 562.16 893.531Z" fill="white"/>
<path d="M569.301 915.532C566.499 915.153 565.328 914.091 565.255 911.63C565.203 909.653 565.632 906.655 565.506 902.133C565.402 898.379 565.109 895.76 565.015 892.647C564.941 890.27 566.353 888.892 568.872 888.714C571.789 888.482 574.319 888.419 577.205 888.346C588.726 888.062 592.604 890.554 592.74 895.402C592.834 898.673 590.315 900.755 586.802 901.408C592.197 902.007 594.141 904.541 594.225 907.528C594.371 912.618 589.437 915.689 578.48 915.952C575.563 916.026 571.8 915.879 569.301 915.532ZM581.899 896.559C581.857 895.066 580.874 894.519 577.999 894.593C577.477 894.603 576.776 894.624 575.95 894.687C575.898 895.855 575.846 897.232 575.846 898.81L578.94 898.736C581.178 898.673 581.941 897.926 581.899 896.559ZM583.3 907.349C583.248 905.656 582.442 904.941 578.647 905.036L575.94 905.099C575.992 906.792 576.065 908.128 576.159 909.579C577.205 909.632 578.167 909.653 578.951 909.632C582.233 909.558 583.342 908.769 583.3 907.349Z" fill="white"/>
<path d="M599.16 889.018C602.014 888.177 605.411 887.651 608.286 887.578C620.769 887.273 625.861 892.72 626.101 900.881C626.373 910.326 619.557 914.785 608.036 915.069C605.422 915.132 603.624 915.016 600.77 914.679C597.748 914.269 596.786 913.039 596.724 910.62C596.661 908.401 596.985 906.129 596.87 902.133C596.724 897.043 596.368 895.392 596.305 892.973C596.232 890.712 597.34 889.555 599.16 889.018ZM614.967 901.197C614.831 896.633 613.075 894.74 608.36 894.855C607.879 894.866 607.44 894.876 606.959 894.929C606.938 897.274 606.959 899.619 607.021 901.838C607.095 904.215 607.189 906.035 607.272 907.612L607.879 907.602C612.134 907.486 615.092 905.477 614.967 901.197Z" fill="white"/>
<path d="M636.274 903.984C636.106 898.252 640.121 893.383 648.631 893.172C656.618 892.973 661.741 896.328 661.929 902.827C662.117 909.41 657.392 913.523 649.488 913.722C641.804 913.912 636.472 910.725 636.274 903.984ZM648.83 898.462C647.219 898.504 646.383 900.103 646.477 903.374C646.582 906.971 647.669 908.39 649.331 908.348C651.077 908.306 651.767 906.634 651.684 903.605C651.579 899.935 650.617 898.42 648.83 898.462Z" fill="white"/>
<path d="M673.587 887.515C673.66 889.976 672.019 892.037 668.789 892.121C665.736 892.195 663.77 890.67 663.687 888.009C663.614 885.38 665.391 883.561 668.538 883.487C671.894 883.392 673.525 885.212 673.587 887.515ZM673.964 903.5C674.037 906.088 674.34 907.413 674.382 908.822C674.455 911.367 672.709 913.06 669.614 913.144C665.725 913.239 664.419 911.693 664.345 909.19C664.314 907.939 664.471 906.077 664.408 903.858C664.314 900.629 663.864 898.82 663.833 897.453C663.76 894.95 665.15 893.099 668.82 893.005C672.573 892.91 673.838 894.372 673.922 897.201C673.974 899.42 673.88 900.514 673.964 903.5Z" fill="white"/>
<path d="M676.974 897.569C676.806 891.711 676.43 889.261 676.378 887.399C676.304 884.77 678.123 882.709 681.438 882.625C684.846 882.54 686.33 884.202 686.414 887.189C686.529 891.185 686.424 893.531 686.571 898.579C686.696 903.017 687.177 906.161 687.261 908.864C687.344 911.609 685.818 913.187 682.452 913.26C679.179 913.344 677.266 912.261 677.172 909.022C677.109 906.74 677.172 904.195 676.974 897.569Z" fill="white"/>
<path d="M1050.72 681.216C1034.32 694.583 1025.03 714.523 1021.08 734.705C1017.13 754.887 1018.04 775.584 1016.73 800.519C990.268 792.905 974.366 761.923 984.204 737.113C966.254 766.15 967.822 805.042 988.041 832.375C967.655 829.199 950.885 811.53 949.558 791.832C943.348 810.247 946.087 831.165 956.844 847.414C928.512 831.26 914.137 795.787 923.609 765.404C933.092 735.021 965.553 712.546 998.642 713.451C996.028 698.233 974.513 693.553 959.134 698.422C924.676 709.328 907.582 745.979 898.372 779.507C891.033 806.261 886.391 835.929 899.553 860.392C911.618 882.803 936.489 896.338 961.664 903.963C996.007 914.353 1033.29 915.92 1068.6 908.443C1093.91 903.079 1118.26 893.172 1144.02 890.564C1170.47 887.883 1196.96 893.025 1223.43 895.087C1249.9 897.148 1278.26 895.633 1300.42 881.436C1323.23 866.817 1335.77 840.588 1338.43 814.559C1341.08 788.53 1334.99 762.48 1327.11 737.513C1315.29 700.126 1295.04 659.941 1256.17 647.868" fill="#FFA8A8"/>
<path d="M1068.08 599.995C1036.29 640.79 1029.6 698.075 1051.25 744.16C1072.9 790.245 1122.01 823.257 1174.84 827.264C1202.8 829.378 1232.42 823.32 1253.99 806.02C1277.12 787.468 1288.42 758.168 1290.65 729.489C1292.88 700.81 1287.05 672.246 1281.25 644.092C1277.14 624.142 1271.43 601.909 1253.23 591.456C1239.69 583.673 1222.69 584.609 1206.88 585.787C1159.93 589.279 1200.3 588.416 1156.04 588.606C1122.55 589.51 1085.39 604.076 1086.64 594.737C1072.07 598.102 1116.57 591.876 1082.1 595.168" fill="#FFDEDE"/>
<path d="M1207.43 592.055C1221.26 565.542 1233.3 538.041 1243.44 509.824C1250.63 537.915 1255.53 566.615 1258.09 595.505" fill="#FFA8A8"/>
<path d="M1060.95 610.165C1066.26 582.453 1069.59 554.405 1070.88 526.283C1086.03 549.083 1099.18 573.104 1110.17 598.007" fill="#FFA8A8"/>
<path d="M1246.31 616.602C1194.45 633.744 1140.04 643.251 1086.67 648.909C1085.95 664.222 1086.15 681.816 1097.8 691.818C1110.9 703.06 1132.44 697.781 1144.26 685.203C1156.09 672.625 1160.67 655.135 1168.47 637.215C1178.04 651.896 1189.15 667.724 1206.16 672.13C1220.28 675.79 1236.4 669.754 1244.61 657.733C1252.81 645.712 1252.52 628.559 1243.91 616.812" fill="#F7A539"/>
<path d="M1180.28 678.093C1185.07 708.823 1187.92 722.79 1190.55 760.419C1174.47 773.481 1163.66 755.855 1161.4 755.276" stroke="#363636" stroke-miterlimit="10"/>
<path d="M1190.55 760.062C1193.38 764.363 1198.73 766.845 1203.82 766.203C1208.92 765.572 1213.5 761.86 1215.22 756.991" stroke="#363636" stroke-miterlimit="10"/>
<path d="M1088.02 649.855C1090.42 658.101 1094.21 666.125 1100.23 672.256C1106.26 678.388 1114.76 682.447 1123.35 681.858C1130.63 681.353 1137.34 677.651 1143.04 673.119C1154.16 664.264 1162.39 651.854 1170.68 638.771C1180.22 647.91 1192.28 654.409 1205.17 657.364C1212.06 658.942 1219.54 659.478 1226.02 656.649C1232.93 653.631 1237.81 647.111 1240.5 640.075C1243.18 633.05 1243.97 625.467 1244.72 617.979" fill="#855C28"/>
<path d="M1089.07 649.572C1096.21 664.4 1114.26 673.119 1130.38 669.512C1146.49 665.904 1159.07 650.339 1159.15 633.891C1159.85 634.196 1160.55 634.512 1161.24 634.817" fill="black"/>
<path d="M1177.43 631.745C1184.84 639.801 1193.86 647.321 1204.72 648.867C1212.99 650.045 1221.72 647.436 1227.97 641.915C1234.22 636.394 1237.86 628.064 1237.67 619.746" fill="black"/>
<path d="M1146.51 641.905C1143.13 641.169 1140.14 645.05 1141.37 648.604C1142.58 652.149 1147.43 653.726 1149.73 651.318C1152.03 648.909 1150.72 643.64 1147.47 642.221" fill="white"/>
<path d="M1223.35 628.233C1219.98 627.497 1216.99 631.378 1218.21 634.933C1219.42 638.477 1224.27 640.054 1226.57 637.646C1228.87 635.237 1227.57 629.969 1224.31 628.549" fill="white"/>
<path d="M1086.67 638.582C1110.78 628.539 1135.83 620.756 1161.39 615.372" stroke="#262121" stroke-miterlimit="10"/>
<path d="M1188.54 610.944C1204.93 608.03 1221.5 606.106 1238.13 605.191" stroke="#262121" stroke-miterlimit="10"/>
<path d="M1069.29 676.916C1076.19 695.015 1090.48 710.201 1108.17 718.215C1125.86 726.229 1146.75 726.976 1164.97 720.245" stroke="white" stroke-miterlimit="10"/>
<path d="M1064.11 708.634C1078.85 733.243 1110.67 746.284 1138.52 739.143" stroke="white" stroke-miterlimit="10"/>
<path d="M1079.54 747.325C1090.6 757.253 1105.62 762.69 1120.5 762.154C1135.39 761.618 1149.97 755.118 1160.28 744.412" stroke="white" stroke-miterlimit="10"/>
<path d="M1207.36 712.21C1219.78 714.492 1232.59 708.697 1241.76 700.052C1250.94 691.407 1257.14 680.165 1263.2 669.112" stroke="white" stroke-miterlimit="10"/>
<path d="M1209.39 729.226C1225.91 732.886 1243.97 728.963 1257.47 718.793C1270.96 708.613 1279.66 692.375 1280.62 675.538" stroke="white" stroke-miterlimit="10"/>
<path d="M1214.14 743.645C1220.37 750.176 1229.77 753.583 1238.76 752.563C1247.75 751.543 1256.14 746.116 1260.73 738.355" stroke="white" stroke-miterlimit="10"/>
<path d="M1048.16 753.046C1047.5 771.861 1050.28 790.781 1055.6 813.182C1058.12 805.862 1060.64 798.532 1065.89 792.716C1068.92 808.323 1076.91 822.941 1088.44 833.952C1084.8 828.767 1085.37 821.059 1089.73 816.452C1094.52 829.062 1104.53 839.61 1116.89 845.079" stroke="white" stroke-miterlimit="10"/>
<path d="M1303.92 725.041C1318.23 748.914 1315.26 781.821 1296.9 802.771C1301.23 793.905 1298.2 781.148 1295.01 771.809C1289.59 794.704 1275.07 845.417 1258.06 857.542C1261.98 854.724 1265.5 827.864 1264.99 823.068C1252.79 837.697 1246.65 851.99 1234.45 866.618" stroke="white" stroke-miterlimit="10"/>
<path d="M1147.29 737.482C1150.56 724.378 1150.22 704.07 1161.33 688.716C1174.05 671.121 1185.5 664.674 1198.65 679.619C1213.01 695.93 1221.86 712.61 1223.88 724.873" stroke="#363636" stroke-miterlimit="10"/>
<path d="M1193.75 669.796C1185.27 667.167 1174.51 669.417 1167.61 676.222C1172.01 682.931 1176.42 689.652 1182.55 697.287C1188.03 688.348 1191.47 678.599 1192.55 668.923" fill="#FF91B8"/>
<path d="M1019.79 818.377C1018.79 837.402 1030.83 856.437 1052.78 864.262C1052.34 856.974 1051.89 849.686 1054.11 843.891C1063.97 854.607 1075.64 863.662 1088.48 870.561" stroke="white" stroke-miterlimit="10"/>
<path d="M1177.84 841.388C1188.17 846.867 1200.68 848.118 1211.88 844.785" stroke="white" stroke-miterlimit="10"/>
<path d="M1157.71 791.349C1164.1 804.4 1179.28 812.593 1193.74 810.784" stroke="white" stroke-miterlimit="10"/>
<path d="M1080.72 605.801C1075.19 596.694 1075.91 584.221 1082.45 575.807C1090.08 583.243 1095.9 592.487 1099.3 602.562" fill="#FFBFBF"/>
<path d="M1223.24 592.781C1224.13 581.033 1228.98 568.729 1237.12 557.591C1245.18 567.814 1246.94 581.99 1241.84 595.841" fill="#FFBFBF"/>
<path d="M1455.5 652.816C1489.53 629.928 1511.85 603.447 1505.35 593.67C1498.85 583.892 1466 594.521 1431.97 617.409C1397.94 640.297 1375.62 666.778 1382.12 676.555C1388.61 686.333 1421.47 675.705 1455.5 652.816Z" fill="#B05659"/>
<path d="M1456.67 657.023C1490.7 634.134 1513.02 607.653 1506.52 597.876C1500.02 588.098 1467.17 598.727 1433.13 621.615C1399.1 644.503 1376.78 670.984 1383.28 680.761C1389.78 690.539 1422.64 679.911 1456.67 657.023Z" fill="#FFC7C9"/>
<path d="M1432.83 618.558C1442.78 630 1451.68 642.231 1459.42 655.104" stroke="#B2595C" stroke-miterlimit="10"/>
<path d="M1425.13 646.564C1421.74 647.869 1418.82 650.298 1417.08 653.274C1415.75 655.525 1415.1 658.291 1416.23 660.52C1417.68 663.381 1421.77 664.454 1425.17 663.507C1428.57 662.561 1431.31 660.057 1433.26 657.292" stroke="#B05659" stroke-miterlimit="10"/>
<path d="M1472.34 634.438C1468.88 629.747 1464.52 623.237 1460.56 618.431C1463.28 615.644 1466.62 613.373 1470.28 611.806C1471.36 611.343 1472.6 610.943 1473.64 611.374C1474.45 611.721 1474.94 612.531 1475.04 613.373C1475.13 614.214 1474.9 615.066 1474.59 615.876C1473.23 619.409 1470.32 622.48 1466.82 624.194C1469.97 622.522 1473.25 621.092 1476.64 619.925C1477.71 619.557 1478.82 619.209 1479.94 619.22C1481.07 619.231 1482.22 619.683 1482.73 620.577C1483.16 621.323 1483.09 622.27 1482.74 623.08C1482.39 623.9 1481.79 624.605 1481.17 625.288C1478.43 628.317 1475.21 630.967 1471.65 633.123" stroke="#B2595C" stroke-miterlimit="10"/>
<path d="M1457.71 572.906C1498.45 565.797 1529.88 550.736 1527.9 539.268C1525.93 527.799 1491.29 524.265 1450.55 531.374C1409.8 538.483 1378.38 553.544 1380.35 565.012C1382.33 576.481 1416.97 580.015 1457.71 572.906Z" fill="#B05659"/>
<path d="M1456.65 577.249C1497.4 570.14 1528.83 555.08 1526.85 543.611C1524.87 532.142 1490.24 528.608 1449.49 535.717C1408.75 542.827 1377.32 557.887 1379.3 569.356C1381.27 580.824 1415.91 584.358 1456.65 577.249Z" fill="#FFC7C9"/>
<path d="M1452.74 532.425C1455.75 547.054 1457.47 561.977 1457.86 576.985" stroke="#B2595C" stroke-miterlimit="10"/>
<path d="M1432.29 554.878C1428.71 554.657 1424.99 555.667 1422 557.675C1419.74 559.19 1417.82 561.451 1417.7 563.965C1417.56 567.193 1420.58 569.875 1424 570.432C1427.42 570.99 1431.01 569.822 1434.08 568.108" stroke="#B05659" stroke-miterlimit="10"/>
<path d="M1479.23 563.449C1478.53 557.707 1477.95 549.925 1476.87 543.878C1480.6 542.458 1484.61 541.774 1488.56 541.858C1489.72 541.89 1491 542.037 1491.69 542.868C1492.23 543.52 1492.25 544.477 1491.93 545.276C1491.61 546.076 1490.98 546.77 1490.31 547.38C1487.39 550.051 1483.37 551.65 1479.48 551.765C1483.03 551.544 1486.59 551.597 1490.09 551.944C1491.2 552.049 1492.34 552.196 1493.31 552.68C1494.28 553.164 1495.06 554.047 1495.07 555.089C1495.08 555.951 1494.54 556.782 1493.84 557.392C1493.13 557.991 1492.27 558.401 1491.4 558.759C1487.54 560.389 1483.43 561.472 1479.28 561.967" stroke="#B2595C" stroke-miterlimit="10"/>
<path d="M1455.5 652.816C1489.53 629.928 1511.85 603.447 1505.35 593.67C1498.85 583.892 1466 594.521 1431.97 617.409C1397.94 640.297 1375.62 666.778 1382.12 676.555C1388.61 686.333 1421.47 675.705 1455.5 652.816Z" fill="#B05659"/>
<path d="M1456.67 657.023C1490.7 634.134 1513.02 607.653 1506.52 597.876C1500.02 588.098 1467.17 598.727 1433.13 621.615C1399.1 644.503 1376.78 670.984 1383.28 680.761C1389.78 690.539 1422.64 679.911 1456.67 657.023Z" fill="#FFD97A"/>
<path d="M1432.83 618.558C1442.78 630 1451.68 642.231 1459.42 655.104" stroke="#B2595C" stroke-miterlimit="10"/>
<path d="M1425.13 646.564C1421.74 647.869 1418.82 650.298 1417.08 653.274C1415.75 655.525 1415.1 658.291 1416.23 660.52C1417.68 663.381 1421.77 664.454 1425.17 663.507C1428.57 662.561 1431.31 660.057 1433.26 657.292" stroke="#B05659" stroke-miterlimit="10"/>
<path d="M1472.34 634.438C1468.88 629.747 1464.52 623.237 1460.56 618.431C1463.28 615.644 1466.62 613.373 1470.28 611.806C1471.36 611.343 1472.6 610.943 1473.64 611.374C1474.45 611.721 1474.94 612.531 1475.04 613.373C1475.13 614.214 1474.9 615.066 1474.59 615.876C1473.23 619.409 1470.32 622.48 1466.82 624.194C1469.97 622.522 1473.25 621.092 1476.64 619.925C1477.71 619.557 1478.82 619.209 1479.94 619.22C1481.07 619.231 1482.22 619.683 1482.73 620.577C1483.16 621.323 1483.09 622.27 1482.74 623.08C1482.39 623.9 1481.79 624.605 1481.17 625.288C1478.43 628.317 1475.21 630.967 1471.65 633.123" stroke="#B2595C" stroke-miterlimit="10"/>
<path d="M1457.71 572.906C1498.45 565.797 1529.88 550.736 1527.9 539.268C1525.93 527.799 1491.29 524.265 1450.55 531.374C1409.8 538.483 1378.38 553.544 1380.35 565.012C1382.33 576.481 1416.97 580.015 1457.71 572.906Z" fill="#B05659"/>
<path d="M1456.65 577.249C1497.4 570.14 1528.83 555.08 1526.85 543.611C1524.87 532.142 1490.24 528.608 1449.49 535.717C1408.75 542.827 1377.32 557.887 1379.3 569.356C1381.27 580.824 1415.91 584.358 1456.65 577.249Z" fill="#FFD97A"/>
<path d="M1452.74 532.425C1455.75 547.054 1457.47 561.977 1457.86 576.985" stroke="#B2595C" stroke-miterlimit="10"/>
<path d="M1432.29 554.878C1428.71 554.657 1424.99 555.667 1422 557.675C1419.74 559.19 1417.82 561.451 1417.7 563.965C1417.56 567.193 1420.58 569.875 1424 570.432C1427.42 570.99 1431.01 569.822 1434.08 568.108" stroke="#B05659" stroke-miterlimit="10"/>
<path d="M1479.23 563.449C1478.53 557.707 1477.95 549.925 1476.87 543.878C1480.6 542.458 1484.61 541.774 1488.56 541.858C1489.72 541.89 1491 542.037 1491.69 542.868C1492.23 543.52 1492.25 544.477 1491.93 545.276C1491.61 546.076 1490.98 546.77 1490.31 547.38C1487.39 550.051 1483.37 551.65 1479.48 551.765C1483.03 551.544 1486.59 551.597 1490.09 551.944C1491.2 552.049 1492.34 552.196 1493.31 552.68C1494.28 553.164 1495.06 554.047 1495.07 555.089C1495.08 555.951 1494.54 556.782 1493.84 557.392C1493.13 557.991 1492.27 558.401 1491.4 558.759C1487.54 560.389 1483.43 561.472 1479.28 561.967" stroke="#B2595C" stroke-miterlimit="10"/>
<path d="M820.296 958.892C832.079 958.44 843.244 962.836 854.776 964.908C866.297 966.98 880.421 965.854 886.788 957.578C898.915 941.834 904.331 922.557 901.853 903.963C899.375 885.359 889.025 867.554 873.05 854.408" fill="#D59941"/>
<path d="M736.021 862.884C732.843 892.605 735.185 922.735 743.496 953.045C738.468 953.55 734.212 957.346 733.941 961.574C733.669 965.791 737.412 969.946 742.346 970.903C747.772 971.954 753.292 973.006 758.864 972.754C764.437 972.501 770.145 970.734 773.585 967.064C777.014 963.394 777.442 957.641 773.961 955.064C773.835 949.701 773.71 944.337 773.595 938.984C782.241 952.067 801.122 959.86 817.912 957.956C818.989 966.002 826.809 973.111 836.344 974.668C845.868 976.235 856.343 972.133 860.996 965.024C862.93 962.058 862.804 958.23 860.672 955.369C858.539 952.509 854.482 950.71 850.938 951.825C858.946 930.392 862.794 907.875 862.836 885.043C867.415 893.278 871.994 901.523 877.158 909.043C878.998 910.536 882.208 910.01 884.174 908.632C886.139 907.255 887.299 905.257 888.805 903.511C890.31 901.776 892.516 900.166 895.088 900.251C897.66 900.335 899.897 903.048 898.277 904.72C885.846 917.551 881.11 935.324 884.707 949.164C876.981 953.308 876.197 963.53 882.198 969.325C888.199 975.12 899.03 976.371 907.498 973.406C915.956 970.429 922.113 963.93 925.438 956.789C928.762 949.648 929.567 941.876 929.797 934.22C931.272 884.928 909.233 835.404 869.547 798.858C854.42 808.039 842.878 820.638 830.928 832.648C818.968 844.648 805.952 856.511 789.162 863.379C772.361 870.257 750.888 871.182 735.822 861.927" fill="#F4AE4C"/>
<path d="M734.6 803.201C724.783 821.627 722.912 842.913 729.404 862.337C735.896 881.762 750.7 899.167 771.348 910.809C771.933 920.916 772.717 930.234 773.575 939.079C776.868 946.419 784.291 950.268 790.616 953.15C798.948 956.947 807.092 959.45 817.892 957.935C820.202 942.097 823.255 927.005 824.29 909.894C841.331 902.165 854.65 888.913 860.829 873.58C867.008 858.246 865.973 840.967 858.142 827.39C858.247 817.736 863.035 808.165 872.256 801.855C872.59 797.291 870.458 786.006 870.154 781.147C846.224 798.963 823.83 810.069 795.916 823.551C795.571 818.966 790.856 826.012 785.901 823.993C768.87 817.041 754.945 805.778 737.914 798.816" fill="#F0DEB1"/>
<path d="M877.242 776.384C871.931 760.514 861.654 742.067 856.05 725.219C874.628 701.851 877.211 683.015 882.636 655.987C859.072 664.39 847.749 683.079 827.237 688.516C797.86 684.246 785.754 685.266 764.301 687.611C752.717 669.06 732.205 654.515 708.379 647.963" fill="#F4E7C5"/>
<path d="M733.92 663.643C728.954 692.691 712.498 708.171 731.787 732.612C726.236 748.24 720.695 763.879 715.091 778.413C733.564 804.768 764.583 824.813 801.708 833.416C835.915 825.413 864.373 804.011 877.242 776.383L876.322 773.628" fill="#F4E7C5"/>
<path d="M730.397 730.299C712.906 705.385 705.389 675.696 710.167 646.869C733.502 653.568 753.428 668.145 763.831 686.507C773.857 684.803 784.248 684.593 794.369 685.929C793.469 699.012 795.048 712.105 794.149 725.188C793.124 740.09 781.603 754.477 767.5 763.658C753.397 772.84 734.474 776.668 716.659 773.418C721.322 758.936 725.995 744.455 730.658 729.973" fill="#F3AF4C"/>
<path d="M860.494 729.373C866.192 744.107 871.409 760.303 876.333 773.049C862.334 776.877 845.878 773.386 831.89 765.908C822.251 760.755 811.43 751.153 806.841 742.287C795.602 720.57 801.561 693.742 800.422 685.234C808.89 684.918 819.805 686.159 829.465 685.413C842.951 671.951 858.382 659.857 875.319 649.456C880.086 646.521 888.146 650.044 887.99 654.977C887.143 681.427 877.514 707.645 860.452 729.951" fill="#F3AF4C"/>
<path d="M824.331 732.508C827.588 732.508 830.228 729.843 830.228 726.555C830.228 723.268 827.588 720.603 824.331 720.603C821.075 720.603 818.435 723.268 818.435 726.555C818.435 729.843 821.075 732.508 824.331 732.508Z" fill="black"/>
<path d="M775.926 732.508C779.183 732.508 781.823 729.843 781.823 726.555C781.823 723.268 779.183 720.603 775.926 720.603C772.67 720.603 770.03 723.268 770.03 726.555C770.03 729.843 772.67 732.508 775.926 732.508Z" fill="black"/>
<path d="M798.665 780.074C797.703 782.651 795.486 784.891 792.622 786.163C789.757 787.436 786.297 787.72 784.394 787.142C783.861 791.979 783.328 796.912 784.572 801.655C785.816 806.398 789.141 811.025 794.431 813.066C799.721 815.106 806.987 813.728 809.6 809.385C813.144 803.495 813.583 793.967 812.862 787.404C812.653 785.49 806.652 786.584 804.477 785.953C802.303 785.322 804.906 785.511 802.763 784.828C800.62 784.134 798.571 782.609 798.591 780.684" fill="#F38FA7"/>
<path d="M808.2 769.989C808.095 774.196 803.443 777.95 798.404 777.898C793.365 777.845 788.828 773.996 788.848 769.789C786.925 769.863 784.761 768.254 784.458 766.319C784.154 764.384 785.764 762.364 787.698 761.66C794.316 761.702 800.923 761.733 807.541 761.775C810.165 761.786 812.539 763.774 812.56 765.961C812.58 768.149 810.228 770.157 807.604 770.199" fill="black"/>
<path d="M767.469 767.75C767.113 772.598 768.546 777.635 772.163 781.442C775.78 785.25 781.718 787.626 787.479 786.953C793.239 786.28 798.404 782.242 798.498 777.078C798.3 781.968 803.339 786.385 809.131 787.164C814.922 787.942 820.923 785.523 824.562 781.684C828.2 777.846 829.663 772.808 829.59 767.918" stroke="black" stroke-miterlimit="10"/>
<path d="M1469.33 954.087C1598.38 954.087 1702.99 931.815 1702.99 904.342C1702.99 876.869 1598.38 854.598 1469.33 854.598C1340.28 854.598 1235.67 876.869 1235.67 904.342C1235.67 931.815 1340.28 954.087 1469.33 954.087Z" fill="#E38E34"/>
<path d="M1365.97 872.833C1397.89 865.976 1426.05 845.426 1441.38 817.799C1415.16 824.298 1390.56 840.094 1372.54 861.201C1401.47 831.197 1417.61 789.529 1415.1 748.188C1386.09 775.679 1369.43 812.824 1368.34 850.937C1376.45 805.473 1372.05 756.822 1353.88 713.104C1334.83 759.809 1335.49 811.594 1356.01 854.713C1344.78 817.199 1322.15 782.693 1293 757.8C1301.31 793.862 1318.93 828.105 1345.4 856.606C1323.05 845.342 1300.7 834.068 1277.78 821.974C1292.51 847.004 1320.72 864.399 1350.05 867.469C1339.17 877.145 1328.27 886.82 1319.47 894.066C1336.94 903.027 1361.41 890.417 1360.4 871.455C1362.84 888.819 1384.48 901.344 1400.77 895.465C1389.07 886.515 1377.37 877.566 1365.67 868.626" fill="#C1E153"/>
<path d="M1360.51 869.373L1360.37 908.558" stroke="#5A8045" stroke-miterlimit="10"/>
<path d="M1314.51 794.073C1332.47 824.341 1343.37 840.515 1361.33 870.783" stroke="#5A8045" stroke-miterlimit="10"/>
<path d="M1354.05 756.023C1360.79 799.668 1363.23 826.528 1360.95 870.393" stroke="#5A8045" stroke-miterlimit="10"/>
<path d="M1401 785.354C1385.59 819.776 1376.59 837.329 1361.18 871.75" stroke="#5A8045" stroke-miterlimit="10"/>
<path d="M1413.27 839.695C1393.21 852 1382.01 859.677 1361.95 871.981" stroke="#5A8045" stroke-miterlimit="10"/>
<path d="M1303.83 843.05C1326.68 853.556 1337.66 858.857 1360.51 869.363" stroke="#5A8045" stroke-miterlimit="10"/>
<path d="M1335.99 887.831C1343.85 885.927 1352.23 881.836 1359.86 870.163" stroke="#5A8045" stroke-miterlimit="10"/>
<path d="M1382.94 888.808C1370.88 884.349 1364.94 877.587 1359.51 866.292" stroke="#5A8045" stroke-miterlimit="10"/>
<path d="M1497.85 891.501C1520.93 886.516 1541.3 871.603 1552.4 851.547C1533.44 856.269 1515.63 867.733 1502.6 883.056C1523.53 861.275 1535.2 831.018 1533.38 800.993C1512.4 820.954 1500.35 847.919 1499.55 875.589C1505.43 842.576 1502.24 807.251 1489.1 775.511C1475.32 809.427 1475.79 847.025 1490.64 878.323C1482.51 851.085 1466.14 826.034 1445.05 807.955C1451.06 834.142 1463.81 859.004 1482.95 879.69C1466.78 871.508 1450.6 863.326 1434.03 854.545C1444.7 872.718 1465.09 885.348 1486.32 887.578C1478.45 894.603 1470.56 901.628 1464.2 906.887C1476.84 913.397 1494.52 904.237 1493.8 890.47C1495.57 903.08 1511.22 912.166 1523 907.907C1514.53 901.408 1506.08 894.919 1497.61 888.419" fill="#C1E153"/>
<path d="M1493.9 888.987L1493.8 917.446" stroke="#5A8045" stroke-miterlimit="10"/>
<path d="M1460.62 834.321C1473.62 856.301 1481.51 868.048 1494.5 890.018" stroke="#5A8045" stroke-miterlimit="10"/>
<path d="M1489.22 806.693C1494.11 838.381 1495.86 857.879 1494.21 889.734" stroke="#5A8045" stroke-miterlimit="10"/>
<path d="M1523.19 827.99C1512.04 852.978 1505.53 865.724 1494.38 890.712" stroke="#5A8045" stroke-miterlimit="10"/>
<path d="M1532.08 867.449C1517.56 876.378 1509.46 881.951 1494.95 890.891" stroke="#5A8045" stroke-miterlimit="10"/>
<path d="M1452.89 869.878C1469.42 877.503 1477.37 881.362 1493.9 888.987" stroke="#5A8045" stroke-miterlimit="10"/>
<path d="M1476.17 902.396C1481.85 901.008 1487.91 898.042 1493.43 889.566" stroke="#5A8045" stroke-miterlimit="10"/>
<path d="M1510.13 903.101C1501.4 899.862 1497.11 894.95 1493.19 886.747" stroke="#5A8045" stroke-miterlimit="10"/>
<path d="M1629.27 861.507C1659.1 855.26 1685.42 836.55 1699.75 811.394C1675.24 817.315 1652.24 831.692 1635.4 850.916C1662.44 823.594 1677.52 785.649 1675.18 747.999C1648.07 773.029 1632.51 806.861 1631.48 841.556C1639.07 800.152 1634.95 755.855 1617.97 716.038C1600.17 758.568 1600.79 805.726 1619.96 844.985C1609.47 810.826 1588.3 779.402 1561.07 756.738C1568.84 789.582 1585.3 820.765 1610.04 846.71C1589.15 836.445 1568.25 826.191 1546.84 815.17C1560.61 837.96 1586.98 853.798 1614.39 856.606C1604.22 865.419 1594.04 874.232 1585.8 880.826C1602.13 888.987 1625 877.503 1624.06 860.234C1626.34 876.051 1646.56 887.452 1661.78 882.099C1650.84 873.948 1639.91 865.798 1628.97 857.658" fill="#C1E153"/>
<path d="M1624.16 858.362L1624.04 894.046" stroke="#5A8045" stroke-miterlimit="10"/>
<path d="M1581.17 789.782C1597.96 817.347 1608.16 832.081 1624.95 859.635" stroke="#5A8045" stroke-miterlimit="10"/>
<path d="M1618.12 755.14C1624.42 794.883 1626.69 819.334 1624.57 859.288" stroke="#5A8045" stroke-miterlimit="10"/>
<path d="M1662.01 781.853C1647.6 813.193 1639.2 829.178 1624.79 860.518" stroke="#5A8045" stroke-miterlimit="10"/>
<path d="M1673.49 831.334C1654.73 842.534 1644.28 849.528 1625.52 860.728" stroke="#5A8045" stroke-miterlimit="10"/>
<path d="M1571.19 834.394C1592.55 843.964 1602.8 848.792 1624.16 858.362" stroke="#5A8045" stroke-miterlimit="10"/>
<path d="M1601.25 875.168C1608.59 873.433 1616.41 869.71 1623.56 859.078" stroke="#5A8045" stroke-miterlimit="10"/>
<path d="M1645.13 876.062C1633.85 872.003 1628.31 865.85 1623.23 855.554" stroke="#5A8045" stroke-miterlimit="10"/>
<path d="M1475.36 119.755C1473.05 122.921 1470.75 126.097 1468.41 129.284C1468.19 130.251 1468.63 131.303 1469.5 131.86C1470.36 132.418 1471.6 132.439 1472.58 131.808C1475.14 128.831 1477.7 125.866 1480.26 122.889" fill="#CFEA7A"/>
<path d="M1506.68 75.9111C1496.18 88.7837 1485.67 101.667 1474.79 113.34C1473.56 116.464 1474.72 120.208 1477.54 122.206C1480.35 124.194 1484.59 124.278 1487.83 122.395C1499.09 108.597 1510.35 94.8098 1521.62 81.0118" fill="#CFEA7A"/>
<path d="M1518.94 53.1316C1524.81 46.2431 1530.69 39.3545 1536.44 32.6764C1539.6 29.4267 1545.42 28.7956 1549.19 31.2881C1552.97 33.7806 1554.17 39.0601 1552.09 42.783C1546.66 49.8924 1541.25 57.0123 1535.82 64.1216" fill="white"/>
<path d="M1527.76 91.5603L1494.07 69.5907L1510.82 47.9155L1544.52 69.8957L1527.76 91.5603Z" fill="#B3A9EB"/>
<path d="M1469.15 146.647C1471.67 149.602 1472.34 153.83 1470.86 157.385C1469.84 159.803 1470.74 162.748 1472.95 164.284C1475.15 165.819 1478.48 165.809 1480.74 164.273C1483.25 162.548 1484.15 159.267 1483.39 156.501C1482.63 153.735 1480.44 151.464 1477.88 149.865C1475.32 148.277 1472.39 147.278 1469.49 146.3" fill="#CFEA7A"/>
<path d="M358.38 780.012C352.149 779.665 345.949 784.65 345.458 790.392C344.977 796.135 350.298 801.561 357.386 801.687C362.06 809.869 366.743 818.062 371.186 825.929C367.642 833.606 372.629 843.334 381.254 845.574C388.248 850.517 391.678 859.32 389.493 868.553C393.277 876.42 402.404 881.731 411.897 881.584C421.39 881.436 430.736 875.831 435.096 867.922C438.828 865.966 442.571 864 447.913 862.506C456.193 861.328 462.738 853.188 461.452 845.669C460.166 838.149 451.29 832.723 443.982 834.489C441.358 829.557 438.734 824.625 436.674 819.356C439.832 810.101 432.252 799.426 421.755 798.711C417.877 789.54 413.998 780.359 410.329 771.115C412.514 765.604 408.489 758.958 402.665 758.442C394.343 756.959 385.028 760.546 379.989 767.634C371.166 768.791 362.854 773.597 357.825 780.464" fill="#FFA8A8"/>
<path d="M367.852 793.137C363.074 792.421 359.708 787.552 360.994 783.198C362.28 778.844 367.946 775.942 372.536 777.277" stroke="#9E5B34" stroke-miterlimit="10"/>
<path d="M395.159 764.29C396.079 760.198 401.453 757.706 405.708 759C409.806 760.251 413.392 765.573 409.503 770.558" stroke="#9E5B34" stroke-miterlimit="10"/>
<path d="M386.837 791.486C386.21 789.961 386.879 788.047 388.374 787.079C389.869 786.112 392.033 786.206 393.35 787.29" stroke="#9E5B34" stroke-miterlimit="10"/>
<path d="M404.515 781.716C403.177 780.812 403.156 778.687 404.484 777.678C405.812 776.668 408.07 777.099 408.76 778.487" stroke="#9E5B34" stroke-miterlimit="10"/>
<path d="M393.914 792.811C395.963 790.077 398.64 787.584 401.985 786.364C405.331 785.144 409.429 785.428 411.948 787.647C414.468 789.866 414.729 794.157 412.032 796.366" stroke="#9E5B34" stroke-miterlimit="10"/>
<path d="M403.121 791.589C405.064 790.477 406.353 789.073 406.002 788.452C405.651 787.831 403.792 788.229 401.85 789.34C399.908 790.451 398.618 791.855 398.969 792.476C399.32 793.097 401.179 792.7 403.121 791.589Z" stroke="#9E5B34" stroke-miterlimit="10"/>
<path d="M395.744 815.896C401.63 816.695 407.934 815.17 412.764 811.783C417.595 808.397 421.024 804.159 421.787 798.69" stroke="#9E5B34" stroke-miterlimit="10"/>
<path d="M384.944 835.709C389.461 840.073 397.939 840.305 403.041 836.193C408.154 832.08 409.053 824.298 404.975 819.586" stroke="#9E5B34" stroke-miterlimit="10"/>
<path d="M421.86 814.171C422.205 817.263 424.965 819.913 428.3 820.376C431.646 820.839 434.813 819.408 436.35 816.579" stroke="#9E5B34" stroke-miterlimit="10"/>
<path d="M399.32 848.014C401.62 851.032 403.92 854.061 405.729 856.817C404.506 864.084 407.694 871.698 413.016 875.484C418.86 877.882 426.565 875.978 430.538 871.141C434.511 866.303 434.343 859.057 430.151 854.65C425.959 850.244 418.18 849.15 412.462 852.158" stroke="#9E5B34" stroke-miterlimit="10"/>
<path d="M438.399 837.487C436.088 841.546 435.691 846.437 437.332 850.633C438.974 854.829 442.633 858.268 447.16 859.888C452.293 861.718 458.681 858.426 460.751 853.62C462.821 848.813 461.106 843.208 457.437 839.485C453.767 835.762 450.15 835.562 444.368 834.405C441.755 829.967 438.754 822.258 436.13 817.82" stroke="#9E5B34" stroke-miterlimit="10"/>
<path d="M638.688 643.483C635.092 639.444 627.794 638.55 623.477 641.611C619.159 644.681 618.636 651.128 622.912 655.566C620.058 663.244 617.204 670.91 614.433 678.262C606.875 680.586 603.132 689.346 606.875 695.961C607.722 703.165 603.665 710.433 595.856 714.492C592.667 721.423 594.58 730.162 600.529 735.915C606.478 741.668 616.158 744.139 624.376 742.183C628.045 743.329 631.725 744.486 636.054 746.905C641.981 751.311 651.704 750.575 656.179 745.369C660.653 740.174 658.991 731.529 653.251 728.069C655.091 723.568 656.931 719.056 659.357 714.702C667.783 711.221 670.585 700.305 664.636 693.427C668.672 685.666 672.707 677.904 676.931 670.227C682.127 668.344 684.312 661.982 681.092 658.09C677.015 652.096 668.766 648.468 660.695 649.519C654.464 644.766 645.975 642.473 638.071 643.388" fill="#FFD97A"/>
<path d="M635.332 657.007C632.886 653.652 634.235 648.72 638.072 646.964C641.908 645.207 647.428 646.985 649.321 650.602" stroke="#9E5B34" stroke-miterlimit="10"/>
<path d="M672.342 656.912C675.771 655.082 680.821 656.933 682.535 660.309C684.187 663.569 682.661 668.891 676.775 669.417" stroke="#9E5B34" stroke-miterlimit="10"/>
<path d="M648.171 667.723C648.851 666.451 650.607 665.736 652.207 666.093C653.806 666.451 655.071 667.839 655.123 669.28" stroke="#9E5B34" stroke-miterlimit="10"/>
<path d="M665.902 672.877C665.703 671.52 667.188 670.268 668.704 670.489C670.219 670.71 671.317 672.351 670.763 673.602" stroke="#9E5B34" stroke-miterlimit="10"/>
<path d="M651.6 672.856C654.778 672.509 658.166 672.698 661.082 674.044C663.999 675.39 666.32 678.072 666.32 680.933C666.32 683.793 663.477 686.454 660.257 686.086" stroke="#9E5B34" stroke-miterlimit="10"/>
<path d="M662.076 677.688C662.232 677.092 660.752 676.183 658.77 675.657C656.788 675.131 655.055 675.187 654.899 675.782C654.743 676.377 656.223 677.286 658.205 677.813C660.187 678.339 661.92 678.283 662.076 677.688Z" stroke="#9E5B34" stroke-miterlimit="10"/>
<path d="M636.556 687.506C639.62 691.597 644.565 694.584 649.917 695.562C655.27 696.55 660.341 696.172 664.637 693.437" stroke="#9E5B34" stroke-miterlimit="10"/>
<path d="M616.033 692.47C615.751 697.802 620.811 703.155 626.833 703.891C632.855 704.627 638.866 700.631 639.65 695.351" stroke="#9E5B34" stroke-miterlimit="10"/>
<path d="M653.848 702.566C651.904 704.585 651.736 707.835 653.472 710.17C655.207 712.494 658.155 713.609 661.093 712.904" stroke="#9E5B34" stroke-miterlimit="10"/>
<path d="M616.274 708.519C615.574 711.705 614.873 714.892 614.058 717.616C608.224 721.118 604.847 727.543 605.464 733.033C607.377 738.039 613.462 741.657 619.296 741.268C625.129 740.879 630.106 736.525 630.608 731.361C631.109 726.197 627.095 720.771 621.47 719.014" stroke="#9E5B34" stroke-miterlimit="10"/>
<path d="M647.701 726.397C643.435 727.354 639.766 729.973 637.842 733.443C635.908 736.914 635.751 741.184 637.413 744.906C639.295 749.134 645.526 751.143 650.168 749.597C654.81 748.051 657.674 743.718 658.03 739.28C658.385 734.842 656.294 732.497 653.545 728.258C655.04 724.041 658.594 717.689 660.089 713.472" stroke="#9E5B34" stroke-miterlimit="10"/>
<path d="M1670.26 521.298C1672.77 519.31 1672.85 515.493 1672.32 512.285C1670.72 502.673 1665.67 493.807 1658.84 486.908C1652.01 480.009 1643.49 475.014 1634.5 471.564C1621.04 466.4 1605.97 464.655 1592.26 468.882C1578.56 473.121 1566.5 483.9 1562.67 497.919C1561.07 503.756 1560.9 509.94 1561.62 515.966C1562.37 522.224 1564.15 528.492 1567.8 533.613C1571.45 538.735 1577.18 542.563 1583.38 542.837C1584.09 540.975 1584.81 539.114 1584.97 536.348C1580.15 533.077 1575.56 529.27 1572.22 524.453C1568.89 519.637 1566.89 513.674 1567.61 507.858C1568.26 502.726 1570.94 498.077 1574.17 494.102C1583.19 482.996 1597.07 476.118 1611.29 475.708C1625.52 475.298 1639.85 481.366 1649.63 491.925C1652.42 494.933 1654.89 498.382 1656.04 502.336C1657.19 506.291 1656.85 510.834 1654.43 514.126" fill="#363636"/>
<path d="M1572.56 641.747C1579.92 627.792 1589.25 614.561 1600.31 601.426C1598.09 599.575 1595.86 597.724 1593.63 595.873C1583.34 613.804 1571.24 631.01 1557.57 647.195" fill="#808080"/>
<path d="M1528.05 684.687C1525.58 670.532 1520.95 656.849 1514.3 644.145C1524.53 643.051 1535.12 645.523 1543.84 650.55C1573.82 639.244 1603.6 628.012 1633.39 617.506C1641.77 620.314 1649.86 623.7 1657.87 629.001C1620.48 637.94 1583.56 649.109 1547.94 662.476C1544.57 671.741 1537.26 680.028 1527.97 685.108" fill="#A8A8A8"/>
<path d="M1609.38 485.667C1642.54 504.913 1675.7 524.159 1709.84 542.826C1706.7 556.057 1700.99 568.834 1695.31 581.518C1690.08 593.181 1684.82 604.897 1677.66 615.782C1673.06 622.765 1667.13 629.779 1659.34 633.082C1626.62 616.023 1593.9 598.965 1561.16 581.907C1556.98 579.73 1552.55 577.29 1550.81 573.167C1548.8 568.414 1550.95 562.829 1553.19 557.855C1558.97 545.003 1565.55 532.415 1572.89 520.152C1577.22 512.927 1581.85 505.755 1587.88 499.56C1593.92 493.366 1601.5 488.149 1610.04 485.825" fill="#808080"/>
<path d="M1528.49 684.561C1520.91 681.196 1515.18 675.148 1512.75 667.923C1510.31 660.698 1511.19 652.38 1515.15 643.84C1518.23 644.544 1520.39 646.732 1522.16 648.962C1529.89 658.784 1532.96 671.573 1530.58 684.182" fill="#363636"/>
<path d="M1502.25 690.945C1510.66 692.249 1517.85 697.634 1520.79 704.827C1512.31 704.101 1504.91 698.717 1502.38 691.439" fill="#67AEB8"/>
<path d="M1510.61 722.706C1510.37 713.514 1505.56 704.827 1496.99 698.927C1495.55 708.687 1500.92 718.51 1510.1 722.885" fill="#67AEB8"/>
<path d="M1485.65 713.514C1490.72 707.572 1491.91 699.232 1489.16 692.364C1485.48 694.678 1482.85 698.39 1482.09 702.303C1481.34 706.215 1482.49 710.264 1485.17 713.146" fill="#67AEB8"/>
<path d="M1553.74 575.67C1582.99 553.532 1603.43 520.972 1609.36 485.719C1599.02 489.379 1590.11 496.341 1582.99 504.46C1575.87 512.579 1570.41 521.845 1565.39 531.204C1561.08 539.208 1557.05 547.348 1553.31 555.582C1551.77 558.958 1550.27 562.429 1549.91 566.047C1549.56 569.665 1550.53 573.524 1553.31 575.88" fill="#363636"/>
<path d="M1706.39 314.905C1730.82 275.562 1739.83 227.237 1730.54 185.485C1711.22 218.624 1701.46 258.819 1702.57 297.216C1704.14 239.216 1683.45 183.445 1645.29 147.204C1641.47 202.922 1657.76 254.98 1689.69 291.894C1658.08 240.825 1611.79 199.683 1556.69 177.366C1578.97 240.867 1624.39 288.813 1681.22 308.153C1638.09 284.501 1586.69 275.436 1537.42 282.114C1576.53 307.407 1622.92 321.405 1672.75 320.879C1641.74 333.341 1610.72 345.814 1578.44 358.077C1614.11 366.396 1656.01 353.649 1686.59 326.284C1684.6 346.592 1682.61 366.9 1680.5 382.781C1704.87 373.19 1717.24 336.118 1699.88 319.343C1717.23 333.141 1748.65 322.593 1759.07 300.276C1740.2 303.936 1721.32 307.596 1702.45 311.256" fill="#87CF57"/>
<path d="M1698.18 317.293L1731.96 354.239" stroke="#5A8045" stroke-miterlimit="10"/>
<path d="M1589.27 293.998C1632.55 303.905 1656.92 307.849 1700.2 317.756" stroke="#5A8045" stroke-miterlimit="10"/>
<path d="M1593.97 217.51C1638.14 251.542 1663.69 274.259 1699.48 317.798" stroke="#5A8045" stroke-miterlimit="10"/>
<path d="M1664.04 196.644C1679.14 244.863 1685.77 270.619 1700.89 318.828" stroke="#5A8045" stroke-miterlimit="10"/>
<path d="M1722.73 235.02C1714.28 267.264 1710.28 286.005 1701.82 318.25" stroke="#5A8045" stroke-miterlimit="10"/>
<path d="M1621.49 351.01C1652.32 337.317 1667.35 330.975 1698.18 317.293" stroke="#5A8045" stroke-miterlimit="10"/>
<path d="M1690.82 359.896C1696.65 350 1701.09 337.527 1698.24 318.691" stroke="#5A8045" stroke-miterlimit="10"/>
<path d="M1736.36 312.413C1721.02 320.658 1709.52 320.437 1694.58 315.421" stroke="#5A8045" stroke-miterlimit="10"/>
<path d="M935.882 259.482C951.397 273.018 959.468 294.135 956.718 313.991C940.367 301.686 931.847 280.285 935.548 260.744" fill="#21E5FF"/>
<path d="M914.304 341.229C924.978 320.321 925.751 294.786 915.495 270.734C900.702 290.79 899.698 319.596 913.039 340.976" fill="#21E5FF"/>
<path d="M874.691 289.15C892.213 282.209 904.79 265.024 907.529 246.167C897.242 246.714 887.362 251.71 881.079 259.534C874.795 267.359 872.203 277.886 874.147 287.719" fill="#21E5FF"/>
</svg>
