<svg width="1770" height="763" viewBox="0 0 1770 763" fill="none" xmlns="http://www.w3.org/2000/svg">
<path d="M1250.72 402.226C1258.28 435.468 1260.92 469.707 1258.55 503.642C1254.48 467.775 1250.41 431.909 1246.19 395.949C1236.73 415.796 1212.82 428.498 1190.02 425.78C1206.9 413.911 1222.44 400.331 1236.27 385.337" fill="#C1E153"/>
<path d="M1342.76 455.879C1286.91 441.282 1226.03 442.891 1171.33 463.653C1227.05 483.703 1292.09 481.346 1345.87 457.33" fill="#846ADC"/>
<path d="M1251.44 398.057C1265.69 414.835 1291.73 423.774 1315.73 420.141C1300.37 410.925 1284.99 401.709 1269.68 392.465C1301.4 396.486 1335.21 385.393 1355.47 364.308C1321.14 359.612 1284.44 369.808 1260.05 390.81C1288.78 369.318 1306.43 337.537 1307.66 305.081C1283.49 317.302 1265.55 338.073 1259.12 361.294C1264.08 344.701 1269.06 327.979 1270.13 310.886C1271.2 293.794 1268.11 276.101 1257.86 261.348C1256.39 259.222 1254.05 256.883 1251.19 257.373C1248.96 257.752 1247.67 259.684 1246.71 261.431C1226.01 298.934 1220.45 342.288 1232.13 383.646C1238.13 365.38 1226.13 345.561 1208.48 333.913C1190.83 322.257 1168.54 317.108 1146.79 312.671C1152.65 342.834 1178.79 369.549 1212.67 380.004C1191.48 374.892 1169.7 371.49 1147.74 369.872C1146.07 369.752 1144.08 369.752 1143.08 370.899C1141.86 372.313 1143.06 374.282 1144.33 375.678C1161.98 395.109 1194.18 404.066 1221.98 397.29" fill="#C1E153"/>
<path d="M1211.79 416.499C1225.42 408.253 1237.9 398.362 1248.67 387.75C1247.86 393.546 1247.98 399.453 1249.03 405.221" stroke="#4F772D" stroke-miterlimit="10"/>
<path d="M1250.34 389.127C1258.09 419.457 1260.66 451.478 1257.85 482.658C1257.1 483.702 1255.54 483.287 1254.78 482.205C1254.01 481.123 1253.83 479.654 1253.66 478.267C1250.44 449.897 1247.22 421.527 1244 393.167C1243.77 391.059 1243.53 388.841 1244.21 386.909C1244.88 384.977 1246.8 383.516 1248.46 384.376" fill="#0A0A0A"/>
<path d="M1343.42 464.864C1337.6 504.576 1331.77 544.279 1325.96 583.991C1324.75 592.237 1323.39 600.834 1317.91 607.73C1306.89 621.587 1284.16 623.519 1264.46 624.092C1241.81 624.757 1215.77 624.193 1201.32 609.403C1193.33 601.213 1190.74 590.268 1188.55 579.804C1180.51 541.414 1177.4 501.137 1170.38 463.551C1229.43 476.65 1290.09 474.958 1346.81 455.833" fill="#B3A9EB"/>
<path d="M1255.43 289.172C1243.66 319.862 1240.15 353.27 1247.9 386.188C1271.29 372.959 1289.02 351.273 1296.53 326.73" stroke="#4F772D" stroke-miterlimit="10"/>
<path d="M1338.88 370.436C1313.39 388.665 1277.97 394.359 1247.34 385.152C1257.33 398.639 1271.82 409.242 1288.33 415.131" stroke="#4F772D" stroke-miterlimit="10"/>
<path d="M1177.35 336.234C1200.27 354.s833 1224.53 371.999 1248.97 385.597C1225.53 395.146 1197.63 394.628 1174.61 384.219" stroke="#4F772D" stroke-miterlimit="10"/>
<path d="M1333.74 286.048C1330.44 290.587 1329.16 296.484 1330.24 301.957C1320.73 294.155 1315.98 281.13 1318.27 269.159C1315.96 273.772 1311.32 277.183 1306.17 278.061C1311.88 246.234 1317.63 214.416 1324.65 181.184C1324.74 157.473 1337.05 134.114 1356.69 120.377C1376.32 106.64 1402.78 102.878 1425.56 110.588C1405.79 110.8 1386.27 119.619 1373.23 134.234C1394.84 129.945 1418.07 134.151 1436.72 145.733C1455.37 157.307 1469.24 176.137 1474.62 197.185C1467.93 193.737 1461.24 190.289 1454.56 186.841C1458.17 198.073 1461.77 209.304 1465.37 220.545C1461.52 221.331 1457.31 220.24 1454.35 217.679C1465.03 230.455 1467.67 249.22 1460.94 264.371" fill="#865445"/>
<path d="M1364.06 341.651C1369.9 357.079 1373.71 373.256 1375.11 389.692C1385.35 402.245 1402.2 409.27 1418.48 407.801C1434.78 406.331 1450.03 396.394 1458.41 382.186C1454.17 362.524 1452.93 342.242 1454.75 322.22" fill="#E8A86F"/>
<path d="M1328.11 236.204C1328.54 259.628 1330.32 283.432 1338.73 305.349C1347.14 327.267 1363.01 347.317 1385 356.284C1406.99 365.25 1435.22 360.832 1450.05 342.519C1460.8 329.245 1463.29 311.274 1463.28 294.293C1463.26 267.569 1458.03 240.854 1447.98 216.024C1441.09 199.034 1430.95 181.969 1414.29 173.853C1395.5 164.702 1371.61 169.527 1355.54 182.792C1339.47 196.057 1330.66 216.431 1328.24 236.934" fill="#FFC28D"/>
<path d="M1323.86 221.867C1346.38 230.39 1374.06 223.217 1389.39 204.877C1392.45 201.216 1395.48 196.89 1400.17 195.864C1408.08 194.144 1413.99 202.381 1419.72 208.001C1428.77 216.866 1442.65 220.656 1456.52 217.134C1451.65 202.159 1446.02 187.054 1435.99 174.815C1425.97 162.576 1410.69 153.508 1394.76 154.525C1377.6 155.625 1363.35 167.725 1351.95 180.389C1341.02 192.536 1331.34 205.801 1323.16 219.898" fill="#865445"/>
<path d="M1331.83 284.689C1321.94 261.237 1321.77 233.986 1331.35 210.414C1333.87 204.239 1337.14 198.165 1342.22 193.784C1347.31 189.402 1354.51 186.952 1360.99 188.838C1368.19 190.927 1374.66 198.008 1381.78 195.688C1385.89 194.357 1388.32 190.299 1391.58 187.507C1394.85 184.715 1400.9 183.754 1402.76 187.599C1404.24 190.668 1401.76 194.089 1399.44 196.612C1392.05 204.627 1384.49 212.771 1374.98 218.197C1364.28 224.307 1351.4 226.609 1339.21 224.585C1336.72 224.178 1333.99 223.633 1331.84 224.908C1329.18 226.48 1328.69 230.011 1328.54 233.052C1327.72 250.357 1329.11 267.763 1332.65 284.726" fill="#6E4437"/>
<path d="M1379.16 241.14C1385 258.75 1389.45 276.804 1392.43 295.097C1397.03 294.358 1401.62 293.618 1406.22 292.888" fill="#FFB370"/>
<path d="M1398.63 249.996C1402.67 253.074 1408.25 254.091 1413.15 252.639C1418.04 251.188 1422.12 247.296 1423.75 242.526" stroke="black" stroke-miterlimit="10"/>
<path d="M1348.82 260.026C1351.8 264.482 1358.03 266.182 1363.25 264.731C1368.46 263.28 1372.61 259.138 1375 254.341" stroke="black" stroke-miterlimit="10"/>
<path d="M1377.08 310.036C1380.63 318.809 1388.58 325.723 1397.86 328.09C1407.15 330.456 1417.51 328.238 1424.94 322.275" stroke="black" stroke-miterlimit="10"/>
<path d="M1441.22 248.779C1441.66 235.149 1430.73 223.798 1416.79 223.428C1402.86 223.057 1391.2 233.807 1390.76 247.437C1390.32 261.068 1401.25 272.419 1415.19 272.789C1429.12 273.16 1440.78 262.41 1441.22 248.779Z" stroke="black" stroke-miterlimit="10"/>
<path d="M1382.48 263.649C1382.93 250.019 1371.99 238.668 1358.05 238.298C1344.12 237.927 1332.47 248.677 1332.02 262.307C1331.58 275.938 1342.52 287.289 1356.45 287.659C1370.38 288.03 1382.04 277.28 1382.48 263.649Z" stroke="black" stroke-miterlimit="10"/>
<path d="M1379.91 252.501C1381.42 249.682 1384.86 248.009 1388.05 248.545C1389.19 248.739 1390.43 249.331 1390.76 250.431" stroke="black" stroke-miterlimit="10"/>
<path d="M1439.2 238.376C1444.9 236.13 1448.83 232.358 1452.05 227.219" stroke="black" stroke-miterlimit="10"/>
<path d="M1454.05 246.354C1453.41 244.043 1453.47 241.51 1454.51 239.347C1455.55 237.184 1457.66 235.483 1460.07 235.197C1463.36 234.808 1466.52 237.138 1467.99 240.059C1469.46 242.989 1469.58 246.391 1469.4 249.654C1469.18 253.953 1468.48 258.297 1466.63 262.198C1464.78 266.099 1461.66 269.547 1457.61 271.165" fill="#FFC28D"/>
<path d="M1330.15 269.085C1329.44 266.395 1325.97 265.064 1323.32 266.007C1320.67 266.949 1318.93 269.602 1318.39 272.329C1317.85 275.056 1318.31 277.867 1318.87 280.584C1320.04 286.158 1321.75 291.825 1325.45 296.207C1329.15 300.588 1335.25 303.399 1340.81 301.855" fill="#FFC28D"/>
<path d="M1328.45 264.906C1329.59 264.796 1330.73 264.675 1331.87 264.564" stroke="black" stroke-miterlimit="10"/>
<path d="M1013.36 356.395C996.673 364.797 979.99 373.191 963.306 381.594C957.622 384.45 951.652 387.575 948.361 393.01C942.932 401.977 946.725 413.476 950.62 423.238C962.867 453.928 975.114 484.618 987.371 515.317C990.713 523.692 995.569 533.315 1004.51 534.573C1009.43 535.266 1014.25 533.103 1018.72 530.995C1056.9 513.053 1095.07 495.11 1133.24 477.167" fill="#C980DD"/>
<path d="M1061.27 337.158C1026.69 352.272 992.737 368.8 959.524 386.696C955.823 388.693 951.908 390.93 950.098 394.72C947.829 399.471 949.577 405.092 951.386 410.056C964.809 446.755 980.981 482.464 999.73 516.778C1000.44 518.072 1001.19 519.412 1002.42 520.226C1004.89 521.862 1008.18 520.781 1010.91 519.644C1049.2 503.725 1086.47 485.394 1122.43 464.808" fill="#D6A1E6"/>
<path d="M1029.46 380.707C1008.68 384.395 991.275 402.18 988.066 422.979C984.856 443.778 996.09 466.066 1014.76 475.957C1033.42 485.848 1058.18 482.622 1073.59 468.293" fill="#D58FEB"/>
<path d="M1076.69 465.02C1069.65 462.062 1061.5 466.536 1056.87 472.564C1052.25 478.591 1049.86 486.032 1045.69 492.383C1041.52 498.733 1034.41 504.252 1026.9 502.884C1019.84 501.599 1015.26 494.897 1011.65 488.694C1004.91 477.093 998.687 465.02 995.631 451.977C992.574 438.934 992.932 424.735 998.963 412.801C1000.14 410.472 1001.55 408.17 1001.86 405.581C1002.16 402.993 1000.98 399.97 998.472 399.194C995.968 398.417 992.942 401.375 994.342 403.594C996.775 399.323 998.503 394.646 999.433 389.811C999.914 387.297 999.863 384.089 997.583 382.915C995.671 381.935 993.218 383.165 992.134 385.014C991.051 386.862 990.959 389.109 990.908 391.253C991.817 386.973 992.717 382.693 993.627 378.413C986.43 374.004 983.885 384.764 982.525 390.07C983.69 387.389 984.457 383.507 981.84 382.194C978.937 380.734 976.136 384.681 976.115 387.916C976.095 391.161 977.107 394.784 975.185 397.382C974.285 395.579 971.996 394.6 970.074 395.191C971.505 402.124 975.563 429.052 976.749 446.301C978.722 475.106 989.2 503.3 1006.54 526.475C1010.96 532.391 1016.11 538.187 1022.96 540.969C1029.46 543.613 1036.78 543.234 1043.69 542.069C1063.71 538.695 1082.57 528.952 1096.87 514.596C1111.16 500.24 1131.06 472.85 1141.55 459.798" fill="#FFC28D"/>
<path d="M1038.28 337.453C1034.14 338.424 1030.91 341.807 1029.04 345.616C1027.17 349.424 1026.44 353.686 1025.68 357.855C1021.45 380.678 1015.15 403.113 1006.83 424.781C1012.85 425.539 1018.86 426.297 1023.66 428.969C1018.79 445.303 1031.51 463.671 1048.13 467.729C1064.76 471.787 1082.79 463.421 1093.11 449.86C1103.44 436.309 1106.93 418.523 1106.13 401.477C1105.31 384.089 1099.99 366.359 1088.24 353.455C1076.48 340.55 1057.58 333.423 1040.91 338.498" fill="#FFC28E"/>
<path d="M1029.06 332.453C1020.23 336.825 1013.85 345.773 1012.6 355.535C1012.08 359.575 1012.46 363.901 1014.7 367.312C1017.6 371.731 1023.23 373.829 1028.52 373.542C1033.79 373.256 1038.75 370.917 1043.17 368.024C1046.98 365.528 1050.57 362.57 1054.85 361.017C1059.13 359.464 1064.47 359.658 1067.66 362.93C1071.76 367.136 1070.54 374.088 1072.79 379.505C1075.2 385.347 1082.16 388.924 1088.31 387.501C1090.19 387.066 1091.99 386.225 1093.92 386.087C1099.86 385.661 1104.4 392.77 1102.81 398.492C1101.21 404.214 1095.29 407.893 1089.38 408.633C1093.66 417.146 1091.13 428.47 1083.66 434.34C1079.36 437.705 1073.9 439.286 1069.57 442.614C1065.25 445.941 1062.31 452.375 1065.51 456.803C1067.26 459.216 1070.54 460.612 1071.25 463.505C1072.05 466.759 1069.04 469.689 1066.01 471.131C1063 472.573 1059.47 473.498 1057.49 476.188C1055.12 479.395 1055.91 484.138 1058.33 487.336C1060.74 490.534 1064.4 492.522 1068 494.278C1073.34 496.885 1079.35 499.261 1085.09 497.726C1089.67 496.506 1093.24 492.984 1096.39 489.453C1099.53 485.922 1102.64 482.132 1106.89 480.033C1111.15 477.935 1116.96 478.092 1119.98 481.762C1121.36 483.444 1121.98 485.626 1123.24 487.392C1125.63 490.747 1130.18 492.18 1134.24 491.496C1138.3 490.812 1141.88 488.27 1144.5 485.118C1149.46 479.164 1151.34 471.141 1151.28 463.394C1151.21 455.648 1149.36 448.031 1147.58 440.478C1146.62 436.374 1145.68 432.103 1146.62 428.008C1148.06 421.75 1153.63 417.008 1154.78 410.685C1155.85 404.732 1152.74 398.834 1149.23 393.898C1145.71 388.961 1141.57 384.182 1140.1 378.303C1138.47 371.805 1140.37 365.019 1140.48 358.336C1140.71 341.983 1128.7 326.195 1112.83 321.989C1095.98 317.524 1078.38 325.215 1060.96 324.771C1054.45 324.605 1047.91 323.301 1041.46 324.226C1035.01 325.15 1028.36 329.097 1026.99 335.448" fill="#FF8605"/>
<path d="M1032.67 397.928C1036.55 402.263 1042.34 404.824 1048.15 404.787C1053.97 404.75 1059.71 402.106 1063.5 397.715" stroke="black" stroke-miterlimit="10"/>
<path d="M1023.55 442.336C1025.13 444.619 1028.43 444.813 1031.19 444.462C1035.85 443.861 1040.47 442.299 1044.15 439.387C1047.83 436.466 1050.47 432.103 1050.69 427.416" stroke="black" stroke-miterlimit="10"/>
<path d="M1090.44 409.103C1095.11 415.158 1098.38 422.452 1098.2 430.069C1098.01 437.686 1094.82 445.183 1089.45 450.591C1086.32 453.752 1082.16 456.886 1082.24 461.341C1082.28 463.338 1083.21 465.196 1083.94 467.063C1086.87 474.514 1086.6 483.129 1083.23 490.358C1081.76 493.52 1079.19 496.709 1075.69 496.848C1073.81 496.922 1072.02 496.08 1070.35 495.221C1067.31 493.668 1064.34 491.994 1061.43 490.201C1059.3 488.888 1057.09 487.382 1056.08 485.08C1054.93 482.473 1055.64 479.339 1057.26 477.01C1058.9 474.69 1061.32 473.044 1063.81 471.667C1065.89 470.502 1068.35 469.088 1068.55 466.703C1068.73 464.466 1066.8 462.7 1065.42 460.916C1060.75 454.889 1062.34 445.053 1068.67 440.838C1073.47 437.64 1080.22 437.409 1083.89 432.971C1089.37 426.334 1083.31 414.724 1089.38 408.623C1089.38 408.641 1089.86 408.355 1090.44 409.103Z" fill="#E37907"/>
<path d="M642.211 421.666C677.98 411.008 709.916 388.194 727.754 360.563C698.354 370.121 670.497 388.055 649.837 410.019C682.897 378.349 702.003 337.61 700.316 299.682C667.246 329.041 647.68 365.666 645.431 401.08C655.705 357.91 652.096 313.484 633.01 275.481C610.52 321.276 609.866 369.105 631.589 406.238C620.078 373.043 595.769 344.164 563.945 325.066C572.246 357.319 590.964 386.631 619.7 409.427C595.084 402.023 570.467 394.609 545.238 386.511C560.991 407.689 591.966 419.974 624.597 418.856C612.197 429.283 599.807 439.701 589.799 447.595C609.038 453.53 636.639 438.555 636.036 421.139C638.285 436.882 662.073 445.543 680.392 437.908C667.594 431.206 654.784 424.504 641.986 417.802" fill="#C1E153"/>
<path d="M636.21 419.198L635.003 455.481" stroke="#034D26" stroke-miterlimit="10"/>
<path d="M586.957 355.719C606.165 381.306 617.89 394.802 637.109 420.39Z" fill="#C1E153"/>
<path d="M586.957 355.719C606.165 381.306 617.89 394.802 637.109 420.39" stroke="#034D26" stroke-miterlimit="10"/>
<path d="M632.049 315.175C638.397 354.647 640.381 379.181 636.67 420.076Z" fill="#C1E153"/>
<path d="M632.049 315.175C638.397 354.647 640.381 379.181 636.67 420.076" stroke="#034D26" stroke-miterlimit="10"/>
<path d="M683.613 335.983C665.508 369.918 655.009 387.37 636.895 421.305Z" fill="#C1E153"/>
<path d="M683.613 335.983C665.508 369.918 655.009 387.37 636.895 421.305" stroke="#034D26" stroke-miterlimit="10"/>
<path d="M695.839 384.616C673.134 398.713 660.458 407.329 637.753 421.417Z" fill="#C1E153"/>
<path d="M695.839 384.616C673.134 398.713 660.458 407.329 637.753 421.417" stroke="#034D26" stroke-miterlimit="10"/>
<path d="M573.729 402.494C598.917 409.131 611.021 412.561 636.21 419.198Z" fill="#C1E153"/>
<path d="M573.729 402.494C598.917 409.131 611.021 412.561 636.21 419.198" stroke="#034D26" stroke-miterlimit="10"/>
<path d="M608.383 439.591C617.206 436.762 626.641 431.853 635.463 420.012Z" fill="#C1E153"/>
<path d="M608.383 439.591C617.206 436.762 626.641 431.853 635.463 420.012" stroke="#034D26" stroke-miterlimit="10"/>
<path d="M660.703 434.155C647.373 431.659 640.933 426.205 635.188 416.48Z" fill="#C1E153"/>
<path d="M660.703 434.155C647.373 431.659 640.933 426.205 635.188 416.48" stroke="#034D26" stroke-miterlimit="10"/>
<path d="M749.416 410.62C749.805 408.467 750.326 406.119 752.187 405.046C754.129 403.928 756.971 404.566 758.883 403.41C760.477 402.439 761.029 400.443 761.183 398.52C761.326 396.597 761.173 394.582 761.776 392.807C762.767 389.886 765.159 389.415 769.269 388.463C770.741 387.852 769.453 387.261 769.535 387.15C766.161 383.896 762.798 380.651 759.424 377.397C755.55 378.433 751.911 379.745 751.277 382.925C750.684 385.92 753.066 389.331 752.524 392.336C752.125 394.564 750.204 396.043 748.159 396.967C746.114 397.891 743.825 398.418 741.944 399.574C740.052 400.729 738.56 402.763 738.989 404.797C741.514 406.183 744.039 407.579 746.564 408.966C747.638 409.557 748.834 410.167 749.938 409.973" fill="#E38E34"/>
<path d="M749.416 410.62C749.805 408.467 750.326 406.119 752.187 405.046C754.129 403.928 756.971 404.566 758.883 403.41C760.477 402.439 761.029 400.443 761.183 398.52C761.326 396.597 761.173 394.582 761.776 392.807C762.767 389.886 765.159 389.415 769.269 388.463C770.741 387.852 769.453 387.261 769.535 387.15C766.161 383.896 762.798 380.651 759.424 377.397C755.55 378.433 751.911 379.745 751.277 382.925C750.684 385.92 753.066 389.331 752.524 392.336C752.125 394.564 750.204 396.043 748.159 396.967C746.114 397.891 743.825 398.418 741.944 399.574C740.052 400.729 738.56 402.763 738.989 404.797C741.514 406.183 744.039 407.579 746.564 408.966C747.638 409.557 748.834 410.167 749.938 409.973" stroke="#BF6E3B" stroke-miterlimit="10"/>
<path d="M762.297 383.451C760.406 383.193 758.484 383.156 757.073 384.163C755.663 385.171 754.732 386.761 754.518 388.545C754.354 389.894 754.579 391.318 754.712 392.714C754.886 394.424 754.927 396.134 754.835 397.807C754.783 398.852 754.64 399.961 753.904 400.627C752.943 401.496 751.359 401.329 749.969 401.394C745.869 401.588 742.414 404.398 741.586 408.216" fill="#E38E34"/>
<path d="M762.297 383.451C760.406 383.193 758.484 383.156 757.073 384.163C755.663 385.171 754.732 386.761 754.518 388.545C754.354 389.894 754.579 391.318 754.712 392.714C754.886 394.424 754.927 396.134 754.835 397.807C754.783 398.852 754.64 399.961 753.904 400.627C752.943 401.496 751.359 401.329 749.969 401.394C745.869 401.588 742.414 404.398 741.586 408.216" stroke="#BF6E3B" stroke-miterlimit="10"/>
<path d="M758.719 414.428C760.028 412.588 761.54 410.592 763.687 410.12C765.936 409.621 768.206 410.962 770.444 410.416C772.315 409.963 773.706 408.299 774.687 406.598C775.678 404.897 776.435 403.03 777.764 401.579C779.952 399.194 782.323 399.407 786.433 399.638C788.028 399.48 787.128 398.593 787.261 398.519C785.676 394.683 784.092 390.847 782.507 387.01C778.561 386.918 774.697 387.14 772.714 389.848C770.843 392.4 771.467 396.125 769.637 398.704C768.287 400.608 765.906 401.449 763.646 401.736C761.397 402.023 759.107 401.893 756.889 402.448C754.671 402.993 752.422 404.445 751.911 406.395C753.567 408.327 755.223 410.25 756.869 412.182C757.574 413.004 758.371 413.873 759.455 413.984" fill="#E38E34"/>
<path d="M758.719 414.428C760.028 412.588 761.54 410.592 763.687 410.12C765.936 409.621 768.206 410.962 770.444 410.416C772.315 409.963 773.706 408.299 774.687 406.598C775.678 404.897 776.435 403.03 777.764 401.579C779.952 399.194 782.323 399.407 786.433 399.638C788.028 399.48 787.128 398.593 787.261 398.519C785.676 394.683 784.092 390.847 782.507 387.01C778.561 386.918 774.697 387.14 772.714 389.848C770.843 392.4 771.467 396.125 769.637 398.704C768.287 400.608 765.906 401.449 763.646 401.736C761.397 402.023 759.107 401.893 756.889 402.448C754.671 402.993 752.422 404.445 751.911 406.395C753.567 408.327 755.223 410.25 756.869 412.182C757.574 413.004 758.371 413.873 759.455 413.984" stroke="#BF6E3B" stroke-miterlimit="10"/>
<path d="M782.415 393.25C780.82 392.511 779.123 391.965 777.406 392.511C775.689 393.056 774.145 394.249 773.153 395.792C772.397 396.966 771.968 398.316 771.477 399.619C770.863 401.219 770.148 402.772 769.32 404.269C768.809 405.194 768.185 406.164 767.224 406.58C765.977 407.116 764.617 406.543 763.34 406.229C759.567 405.314 755.202 406.941 752.759 410.176" fill="#E38E34"/>
<path d="M782.415 393.25C780.82 392.511 779.123 391.965 777.406 392.511C775.689 393.056 774.145 394.249 773.153 395.792C772.397 396.966 771.968 398.316 771.477 399.619C770.863 401.219 770.148 402.772 769.32 404.269C768.809 405.194 768.185 406.164 767.224 406.58C765.977 407.116 764.617 406.543 763.34 406.229C759.567 405.314 755.202 406.941 752.759 410.176" stroke="#BF6E3B" stroke-miterlimit="10"/>
<path d="M746.728 404.704C746.697 401.977 746.748 398.972 748.261 397.17C749.835 395.293 752.544 395.312 754.088 393.38C755.366 391.771 755.519 389.183 755.315 386.798C755.11 384.413 754.609 381.991 754.834 379.671C755.212 375.844 757.318 374.624 760.896 372.377C762.133 371.24 760.845 370.861 760.906 370.704C757.247 367.635 753.597 364.575 749.937 361.506C746.584 363.799 743.497 366.369 743.487 370.418C743.477 374.226 746.257 377.748 746.308 381.566C746.339 384.385 744.857 386.705 743.15 388.379C741.442 390.052 739.459 391.3 737.936 393.213C736.413 395.127 735.421 398.011 736.178 400.368C738.733 401.385 741.289 402.411 743.845 403.428C744.928 403.862 746.135 404.297 747.106 403.751" fill="#E38E34"/>
<path d="M746.728 404.704C746.697 401.977 746.748 398.972 748.261 397.17C749.835 395.293 752.544 395.312 754.088 393.38C755.366 391.771 755.519 389.183 755.315 386.798C755.11 384.413 754.609 381.991 754.834 379.671C755.212 375.844 757.318 374.624 760.896 372.377C762.133 371.24 760.845 370.861 760.906 370.704C757.247 367.635 753.597 364.575 749.937 361.506C746.584 363.799 743.497 366.369 743.487 370.418C743.477 374.226 746.257 377.748 746.308 381.566C746.339 384.385 744.857 386.705 743.15 388.379C741.442 390.052 739.459 391.3 737.936 393.213C736.413 395.127 735.421 398.011 736.178 400.368C738.733 401.385 741.289 402.411 743.845 403.428C744.928 403.862 746.135 404.297 747.106 403.751" stroke="#BF6E3B" stroke-miterlimit="10"/>
<path d="M753.638 368.125C751.859 368.319 750.111 368.772 748.997 370.39C747.893 371.998 747.331 374.189 747.443 376.417C747.535 378.108 747.985 379.782 748.363 381.446C748.823 383.489 749.161 385.559 749.386 387.63C749.518 388.915 749.59 390.301 749.038 391.318C748.322 392.631 746.84 392.853 745.583 393.306C741.872 394.628 739.224 398.981 739.142 403.862" fill="#E38E34"/>
<path d="M753.638 368.125C751.859 368.319 750.111 368.772 748.997 370.39C747.893 371.998 747.331 374.189 747.443 376.417C747.535 378.108 747.985 379.782 748.363 381.446C748.823 383.489 749.161 385.559 749.386 387.63C749.518 388.915 749.59 390.301 749.038 391.318C748.322 392.631 746.84 392.853 745.583 393.306C741.872 394.628 739.224 398.981 739.142 403.862" stroke="#BF6E3B" stroke-miterlimit="10"/>
<path d="M768.625 410.066C750.224 435.81 741.31 468.34 743.426 502.025C710.151 502.201 675.68 489.971 648.794 468.275C666.582 444.518 677.305 412.626 677.868 378.608C679.145 374.846 680.434 371.084 681.711 367.321" fill="#13BFD6"/>
<path d="M768.635 410.361C751.614 434.599 743.283 465.132 745.061 496.663C714.506 497.061 682.917 485.857 658.342 465.733C674.79 443.353 684.788 413.412 685.463 381.548C686.659 378.016 687.855 374.485 689.041 370.945" fill="#21E5FF"/>
<path d="M726.824 451.072C726.742 447.337 725.843 442.66 725.771 438.703C730.893 435.329 732.559 431.613 735.299 426.418C730.105 426.27 726.712 429.256 722.306 428.738C716.744 425.484 714.281 424.717 709.875 423.478C708.72 418.681 705.54 413.994 701.216 410.712" fill="#F4E7C5"/>
<path d="M705.325 416.027C702.555 421.685 698.343 423.58 700.664 430.226C698.599 433.036 696.544 435.847 694.54 438.426C696.585 445.405 701.502 452.088 708.341 456.867C715.62 457.958 722.581 455.786 726.834 451.071L726.824 450.424" fill="#F4E7C5"/>
<path d="M700.531 429.635C698.599 423.034 698.926 416.24 701.645 410.62C705.857 413.892 708.914 418.542 709.854 423.201C711.95 423.654 714.025 424.449 715.947 425.539C714.966 428.192 714.475 431.049 713.494 433.702C712.369 436.725 709.2 438.795 705.847 439.572C702.484 440.348 698.497 439.618 695.164 437.51C696.984 434.867 698.793 432.223 700.613 429.579" fill="#F3AF4C"/>
<path d="M726.395 439.924C726.62 443.455 726.661 447.254 726.855 450.305C723.839 449.972 720.793 447.92 718.482 445.23C716.888 443.381 715.334 440.506 714.966 438.287C714.066 432.852 716.908 427.74 717.205 425.882C718.902 426.501 720.997 427.638 722.96 428.258C726.466 426.538 730.269 425.263 734.266 424.458C735.391 424.236 736.771 425.614 736.444 426.631C734.655 432.075 731.128 436.762 726.374 440.035" fill="#F3AF4C"/>
<path d="M719.581 437.737C720.244 437.637 720.673 436.969 720.54 436.243C720.407 435.518 719.762 435.011 719.099 435.11C718.437 435.21 718.007 435.878 718.14 436.603C718.273 437.328 718.918 437.836 719.581 437.737Z" fill="black"/>
<path d="M709.982 433.836C710.645 433.736 711.075 433.068 710.942 432.343C710.809 431.617 710.164 431.11 709.501 431.209C708.838 431.309 708.409 431.977 708.541 432.702C708.674 433.428 709.319 433.935 709.982 433.836Z" fill="black"/>
<path d="M711.01 445.506C710.662 445.969 710.079 446.255 709.435 446.292C708.791 446.329 708.086 446.107 707.749 445.83C707.34 446.791 706.931 447.78 706.89 448.871C706.849 449.962 707.217 451.191 708.147 452.042C709.067 452.892 710.601 453.188 711.388 452.495C712.451 451.552 713.126 449.601 713.391 448.178C713.463 447.762 712.206 447.503 711.817 447.198C711.429 446.893 711.93 447.143 711.551 446.828C711.173 446.514 710.856 446.024 710.979 445.627" fill="#F38FA7"/>
<path d="M713.524 444.175C713.248 445.044 712.093 445.451 711.091 445.035C710.089 444.619 709.435 443.445 709.691 442.576C709.302 442.438 708.975 441.929 709.036 441.495C709.098 441.06 709.537 440.774 709.967 440.783C711.275 441.328 712.584 441.864 713.892 442.41C714.414 442.622 714.761 443.233 714.628 443.686C714.495 444.139 713.903 444.37 713.381 444.166" fill="black"/>
<path d="M705.581 440.432C705.213 441.412 705.193 442.576 705.673 443.667C706.154 444.749 707.186 445.728 708.372 446.052C709.558 446.376 710.825 445.95 711.163 444.878C710.825 445.886 711.551 447.208 712.655 447.836C713.759 448.465 715.098 448.446 716.049 447.938C717 447.429 717.603 446.496 717.889 445.47" stroke="black" stroke-miterlimit="10"/>
<path d="M1522.21 210.885C1506.85 215.729 1496.22 228.652 1490.29 242.259C1484.36 255.866 1482.23 270.536 1478.09 284.661C1473.96 298.795 1467.31 313.059 1454.7 322.312C1450.5 325.39 1445.7 327.877 1442.19 331.593C1438.68 335.309 1436.75 340.837 1439.42 345.071C1442.41 349.822 1449.64 350.83 1455.64 349.951C1467.33 348.241 1477.53 341.521 1484.99 333.266C1492.45 325.011 1497.51 315.259 1502.37 305.571C1517.11 276.11 1530.86 244.45 1526.31 212.419C1524.4 211.671 1521.98 212.17 1520.63 213.593" fill="#F0DEB1"/>
<path d="M1588 203.85C1603.36 208.693 1613.99 221.617 1619.92 235.224C1625.85 248.831 1627.98 263.501 1632.12 277.626C1636.25 291.76 1642.9 306.024 1655.51 315.277C1659.71 318.355 1664.51 320.842 1668.02 324.558C1671.53 328.274 1673.46 333.802 1670.79 338.035C1667.79 342.787 1660.57 343.795 1654.57 342.916C1642.88 341.206 1632.68 334.486 1625.22 326.231C1617.75 317.976 1612.69 308.224 1607.84 298.536C1593.1 269.075 1579.35 237.415 1583.9 205.384C1585.81 204.635 1588.23 205.135 1589.58 206.558" fill="#F0DEB1"/>
<path d="M1634.03 389.479C1627.78 345.117 1621.54 300.755 1615.29 256.393C1613.08 240.678 1610.52 224.168 1599.88 211.513C1590.5 200.347 1575.14 193.414 1559.55 193.321C1543.96 193.229 1528.49 199.977 1518.95 211.042C1509.19 222.357 1505.92 236.981 1502.92 251.032C1493.33 296.031 1483.73 341.031 1476.47 385.975C1526.59 398.991 1580.03 401.579 1631.42 393.482" fill="#F3AF4C"/>
<path d="M1494.41 291.28C1512.32 322.192 1530.28 357.92 1522.38 395.349C1545.04 399.694 1570.25 400.119 1595.51 397.392C1593.15 365.694 1595.84 322.46 1608.68 292.852" fill="#F5E267"/>
<path d="M1560.03 238.524C1559.87 226.202 1559.71 213.889 1559.56 201.567C1559.54 200.023 1559.52 198.452 1558.94 197C1558.38 195.549 1557.16 194.209 1555.51 193.811C1553.85 193.414 1551.82 194.273 1551.47 195.78C1550.45 210.016 1551.14 224.788 1554.27 238.719C1551.49 237.933 1548.19 238.996 1546.6 241.187C1545.02 243.378 1545.26 246.511 1545.97 249.1C1542.72 245.55 1537.44 243.562 1532.34 243.96C1527.24 244.357 1522.43 247.121 1519.9 251.124C1518.33 253.62 1517.62 256.476 1516.28 259.074C1514.94 261.671 1512.63 264.167 1509.49 264.648C1505.62 265.24 1503.46 262.476 1500.03 264.694C1497.11 272.579 1496.18 282.886 1494.67 290.06C1506.88 304.443 1521.48 313.114 1540.96 317.736C1560.45 322.358 1582.36 319.446 1602.87 309.491C1609.65 304 1614.18 299.563 1619.94 289.283C1619.34 282.073 1618.78 283.959 1618.17 276.748C1618.04 275.168 1617.4 266.497 1616.54 265.119C1615.16 262.892 1609.83 261.939 1607.02 261.607C1603.91 261.246 1600.75 261.634 1597.65 261.302C1594.54 260.969 1591.26 259.684 1589.99 257.114C1589.03 255.164 1589.42 252.917 1589.15 250.8C1588.49 245.531 1583.11 241.076 1577.21 240.9C1571.31 240.724 1565.61 244.838 1564.54 250.052C1566.68 248.378 1567.33 245.365 1566.03 243.1C1564.74 240.835 1561.63 239.541 1558.87 240.114" fill="white"/>
<path d="M1530.09 211.762C1523.63 212.104 1517.79 216.828 1516.73 222.569C1515.68 228.3 1519.52 234.456 1525.53 236.647C1530.81 238.579 1537.33 237.35 1541.32 233.689C1545.31 230.029 1546.53 224.168 1544.3 219.453C1542.08 214.739 1536.56 211.448 1530.84 211.42" fill="#F5E267"/>
<path d="M1580.21 211.762C1573.75 212.104 1567.9 216.828 1566.85 222.569C1565.79 228.3 1569.64 234.456 1575.64 236.647C1580.92 238.579 1587.44 237.35 1591.43 233.689C1595.42 230.029 1596.64 224.168 1594.42 219.453C1592.19 214.739 1586.67 211.448 1580.95 211.42" fill="#F5E267"/>
<path d="M1530.22 213.658C1524.6 213.953 1519.52 217.975 1518.6 222.855C1517.68 227.736 1521.03 232.978 1526.24 234.836C1530.83 236.481 1536.49 235.427 1539.96 232.312C1543.42 229.197 1544.49 224.205 1542.56 220.193C1540.62 216.181 1535.82 213.38 1530.86 213.362" fill="#2B2B2A"/>
<path d="M1539.96 222.023C1538.47 222.088 1537.11 223.003 1536.86 224.112C1536.62 225.222 1537.51 226.414 1538.9 226.839C1540.12 227.209 1541.64 226.978 1542.56 226.266C1543.48 225.554 1543.76 224.427 1543.25 223.512C1542.74 222.596 1541.45 221.958 1540.13 221.958" fill="white"/>
<path d="M1580.34 213.131C1574.85 213.436 1569.88 217.661 1568.99 222.773C1568.09 227.885 1571.36 233.385 1576.45 235.345C1580.94 237.064 1586.48 235.973 1589.87 232.701C1593.25 229.428 1594.29 224.196 1592.4 219.99C1590.51 215.784 1585.82 212.845 1580.97 212.826" fill="black"/>
<path d="M1589.79 222.023C1588.29 222.088 1586.93 223.003 1586.69 224.112C1586.44 225.222 1587.33 226.414 1588.72 226.839C1589.95 227.209 1591.46 226.978 1592.38 226.266C1593.3 225.554 1593.59 224.427 1593.08 223.512C1592.57 222.596 1591.28 221.958 1589.96 221.958" fill="white"/>
<path d="M1552.81 238.755C1549.44 237.248 1544.86 238.746 1543.09 241.593C1541.33 244.44 1542.2 248.128 1544.69 250.559C1547.19 252.981 1551.05 254.22 1554.86 254.368C1559.12 254.525 1563.58 253.314 1566.32 250.578C1569.06 247.842 1569.61 243.488 1566.97 240.678C1565.11 238.69 1562.04 237.738 1559.05 237.581C1556.05 237.424 1553.08 237.988 1550.15 238.533" fill="#050504"/>
<path d="M1556.13 248.434C1558.58 257.142 1558.87 266.349 1556.98 275.177" stroke="#0F0D0D" stroke-miterlimit="10"/>
<path d="M1552.85 274.326C1549.14 276.72 1545.24 279.318 1543.51 283.136C1541.77 286.953 1543.33 292.315 1547.72 293.415C1549.96 293.979 1552.36 293.332 1554.39 292.324C1562.41 288.331 1565.63 279.558 1568.18 271.59" fill="#FF8C8C"/>
<path d="M1532.02 250.495C1534.86 258.916 1538.45 268.179 1547.02 272.292C1554.37 275.823 1563.88 274.326 1570.41 269.658C1576.95 264.99 1580.7 257.641 1581.86 250.162" stroke="#0F0D0D" stroke-miterlimit="10"/>
<path d="M1620.63 289.551C1606.62 314.02 1583.69 334.2 1556.32 346.134C1527.98 336.002 1503.24 314.972 1494.41 290.069C1506.68 302.003 1534.06 318.263 1557.68 318.208C1581.29 318.152 1604.6 307.438 1618.64 290.189" fill="#ED3434"/>
<path d="M2.7775 544.149C7.25505 440.404 110.883 468.358 143.187 544.149C208.285 696.888 448.509 265.72 621.099 441.818C693.649 515.853 847.358 478.508 886.542 577.502C902.673 618.249 909.574 669.47 949.197 689.252C980.622 704.94 1021.1 691.24 1044.09 664.959C1067.09 638.678 1075.55 602.923 1078.01 568.332C1080.61 531.799 1077.83 493.141 1095.17 460.741C1112.5 428.34 1161.05 408.836 1187.34 434.747C1203.77 450.951 1204.18 477.047 1199.76 499.529C1195.33 522.01 1187.15 544.501 1190.24 567.195C1193.33 589.889 1213.44 612.74 1236.3 608.469C1251.76 605.585 1262.43 591.821 1270.31 578.426C1296.37 534.129 1308.7 483.111 1333.91 438.342C1359.12 393.565 1403.99 353.159 1455.9 356.191C1500.14 358.779 1542.52 392.354 1584.83 379.32C1616.97 369.419 1635.25 335.401 1641.06 302.742C1647.8 264.842 1642.38 226.026 1638.46 187.738C1634.55 149.449 1632.32 109.811 1645.02 73.4172C1657.7 37.0235 1688.69 4.35525 1727.55 0.315623C1741.45 -1.12644 1757.41 2.20139 1764.82 13.8581C1769.65 21.4751 1769.83 30.9872 1769.85 39.9724C1770.4 283.487 1769.24 519.061 1769.8 762.585C1353.74 762.585 918.396 762.585 500.869 762.585C458.844 762.585 44.2715 763.519 2.25614 762.585C2.25614 762.585 -3.15168 681.626 2.7775 544.149Z" fill="#FCFFFF"/>
<path d="M872.853 433.031C872.638 423.187 872.434 413.333 872.219 403.488C873.671 403.183 875.071 401.962 875.572 400.419C876.073 398.884 875.664 397.1 874.54 396C851.743 396.222 828.967 396.342 806.191 396.453C803.982 396.24 802.02 398.265 801.989 400.446C801.969 402.628 803.88 404.578 806.324 404.301C805.7 413.702 805.076 423.113 804.964 433.771C794.578 440.556 786.093 450.327 780 462.474C780.225 522.56 780.45 582.655 780.225 643.074C782.351 645.588 784.478 648.093 786.778 650.182C787.585 655.895 792.206 660.748 797.839 661.783C828.139 667.358 859.972 665.499 890.007 656.376C892.225 654.009 893.206 650.533 892.419 647.418C896.038 646.059 898.962 642.852 900.444 639.2C899.616 581.999 898.798 524.806 898.134 468.528C898.839 452.167 887.615 436.378 872.127 431.959" fill="#C1E153"/>
<path d="M787.69 460.214C788.14 515.789 788.59 571.364 789.04 626.939C789.142 639.668 801.971 650.317 814.463 648.062C829.951 645.261 845.653 649.753 861.294 648.542C876.935 647.331 894.681 636.571 894.303 620.81C893.005 565.688 891.706 510.576 890.408 455.454C857.184 464.661 821.844 465.012 788.978 456.452" fill="#DDFF75"/>
<path d="M900.416 607.739C862.551 622.483 819.38 625.376 781.117 614.126C780.718 575.181 780.493 536.246 780.432 496.09C820.218 501.488 859.617 499.695 899.25 491.005L900.416 607.739Z" fill="#B3A9EB"/>
<path d="M821.049 530.605C821.081 533.999 820.497 536.958 819.297 539.48C818.096 542.002 816.434 543.977 814.311 545.404C812.189 546.832 809.756 547.601 807.013 547.712C804.27 547.823 801.824 547.252 799.676 545.997C797.527 544.743 795.828 542.904 794.579 540.481C793.331 538.058 792.69 535.149 792.657 531.755C792.624 528.36 793.208 525.402 794.409 522.879C795.61 520.357 797.271 518.382 799.394 516.955C801.517 515.527 803.949 514.758 806.692 514.647C809.435 514.536 811.881 515.108 814.03 516.362C816.178 517.617 817.877 519.456 819.126 521.879C820.375 524.302 821.016 527.21 821.049 530.605ZM817.28 530.757C817.253 527.971 816.764 525.637 815.814 523.758C814.874 521.878 813.609 520.477 812.018 519.557C810.438 518.635 808.675 518.214 806.728 518.293C804.78 518.372 803.021 518.936 801.45 519.984C799.889 521.033 798.652 522.535 797.739 524.49C796.836 526.444 796.399 528.815 796.426 531.602C796.453 534.389 796.936 536.722 797.876 538.602C798.826 540.482 800.091 541.882 801.671 542.803C803.262 543.724 805.03 544.145 806.978 544.066C808.925 543.988 810.679 543.424 812.24 542.375C813.811 541.327 815.048 539.825 815.951 537.87C816.864 535.915 817.307 533.544 817.28 530.757Z" fill="#222831"/>
<path d="M839.519 545.058L839.831 577.244L835.937 577.401L835.624 545.216L839.519 545.058Z" fill="#222831"/>
<path d="M865.479 602.041L865.167 569.856L869.062 569.698L869.34 598.426L884.29 597.82L884.323 601.278L865.479 602.041Z" fill="#222831"/>
<path d="M872.079 403.724C873.827 403.835 875.616 402.698 876.3 401.043C876.985 399.398 876.515 397.364 875.186 396.246C851.95 396.754 828.949 397.235 805.938 397.715C804.701 397.318 803.331 398.205 802.748 399.49C802.165 400.766 802.4 402.365 803.331 403.373C804.251 404.38 805.815 404.732 807.093 404.565C818.951 404.491 830.809 404.121 842.658 403.437" stroke="#84A5B6" stroke-miterlimit="10"/>
<path d="M806.837 405.055C806.582 406.709 806.612 408.392 806.888 410.49C809.618 411.433 812.593 411.387 815.506 411.341C823.398 411.202 831.28 411.054 839.172 410.915" stroke="#88A7B5" stroke-miterlimit="10"/>
<path d="M805.488 433.508C810.671 434.673 816.058 434.997 821.384 434.47" stroke="#88A7B5" stroke-miterlimit="10"/>
<path d="M817.888 716.032C818.992 719.25 820.086 722.469 821.067 725.57C877.537 749.319 944.486 748.916 1000.26 724.059C1000.53 721.203 1000.78 718.357 1000.7 715.796C1003.73 691.4 1002.36 666.474 994.628 641.587C997.307 636.464 998.697 629.222 994.618 624.963C990.038 620.184 983.598 617.24 978.241 615.258C967.293 612.618 962.539 611.352 953.002 609.85C917.416 605.091 876.576 603.108 842.995 614.934C831.136 619.114 823.858 621.303 818.532 631.273C813.206 641.243 813.052 653.608 818.133 663.785" fill="#B3A9EB"/>
<path d="M907.92 665.556C952.895 665.146 989.267 655.987 989.159 645.099C989.052 634.21 952.505 625.716 907.53 626.125C862.555 626.535 826.183 635.693 826.291 646.582C826.398 657.47 862.945 665.965 907.92 665.556Z" fill="#ECF39E"/>
<path d="M995.896 626.778C1003.48 629.231 1004.94 634.795 1001.54 641.645C1005.39 642.322 1007.58 648.927 1004.33 652.489C1008.94 670.977 1010.04 690.624 1008.4 710.045C951.867 746.531 870.709 747.974 810.497 713.018C808.268 692.803 807.696 673.941 810.16 655.472C808.708 651.949 810.119 645.149 814.739 643.883C812.122 638.554 815.813 632.823 818.736 630.899C822.089 639.418 836.268 644.324 845.786 646.405C888.057 655.659 939.354 658.465 979.836 642.833C985.745 640.546 993.913 633.402 995.232 630.016L995.896 626.778Z" fill="#846ADC"/>
<path d="M871.312 684.108C871.363 686.1 869.962 687.494 868.388 687.533C867.724 687.553 867.243 687.435 866.364 687.072C864.667 686.375 864.094 686.228 863.123 686.257C860.445 686.326 859.116 687.837 859.208 691.125C859.32 695.246 860.803 696.718 863.011 696.659C864.084 696.63 865.178 696.345 866.333 695.766C867.294 695.295 867.959 695.079 868.654 695.06C870.228 695.021 871.7 696.336 871.762 698.259C871.802 699.672 870.893 700.693 868.766 701.488C867.376 702.008 865.107 702.39 863.134 702.44C855.467 702.636 850.744 698.858 850.549 691.949C850.365 685.325 854.127 680.722 863.062 680.487C865.107 680.438 866.916 680.644 868.674 681.272C870.514 681.939 871.281 682.921 871.312 684.108Z" fill="white"/>
<path d="M876.791 701.644C874.634 701.35 873.745 700.496 873.694 698.533C873.653 696.954 873.99 694.569 873.888 690.967C873.806 687.974 873.581 685.884 873.51 683.411C873.458 681.517 874.532 680.428 876.474 680.28C878.713 680.094 880.655 680.045 882.863 679.986C891.706 679.76 894.671 681.743 894.773 685.599C894.844 688.21 892.912 689.868 890.214 690.388C894.343 690.859 895.846 692.881 895.908 695.266C896.02 699.318 892.238 701.762 883.835 701.978C881.596 702.037 878.713 701.919 876.791 701.644ZM886.462 686.522C886.431 685.334 885.675 684.903 883.466 684.952C883.068 684.961 882.526 684.971 881.892 685.03C881.851 685.962 881.81 687.062 881.821 688.318L884.203 688.259C885.9 688.21 886.482 687.621 886.462 686.522ZM887.535 695.118C887.494 693.764 886.881 693.205 883.967 693.274L881.892 693.323C881.933 694.677 881.994 695.737 882.056 696.895C882.863 696.934 883.599 696.954 884.203 696.934C886.707 696.885 887.566 696.247 887.535 695.118Z" fill="white"/>
<path d="M899.69 680.516C901.888 679.849 904.485 679.427 906.693 679.368C916.271 679.123 920.176 683.461 920.35 689.967C920.555 697.494 915.331 701.046 906.488 701.272C904.485 701.321 903.104 701.233 900.917 700.968C898.596 700.644 897.87 699.662 897.809 697.729C897.758 695.963 898.014 694.147 897.922 690.968C897.809 686.915 897.533 685.6 897.482 683.676C897.451 681.861 898.3 680.938 899.69 680.516ZM911.824 690.222C911.722 686.591 910.373 685.08 906.764 685.168C906.396 685.178 906.059 685.188 905.691 685.227C905.681 687.091 905.691 688.956 905.742 690.732C905.793 692.626 905.865 694.079 905.936 695.335L906.406 695.325C909.647 695.237 911.916 693.627 911.824 690.222Z" fill="white"/>
<path d="M928.171 692.44C928.048 687.866 931.115 683.99 937.647 683.823C943.771 683.666 947.696 686.336 947.839 691.517C947.982 696.757 944.353 700.035 938.301 700.192C932.413 700.349 928.314 697.817 928.171 692.44ZM937.801 688.043C936.564 688.073 935.93 689.348 936.001 691.949C936.083 694.814 936.911 695.953 938.189 695.914C939.528 695.874 940.06 694.549 939.998 692.135C939.906 689.211 939.17 688.004 937.801 688.043Z" fill="white"/>
<path d="M956.784 679.319C956.835 681.282 955.577 682.921 953.104 682.99C950.763 683.048 949.25 681.832 949.188 679.712C949.127 677.622 950.497 676.169 952.909 676.11C955.485 676.032 956.733 677.484 956.784 679.319ZM957.07 692.057C957.131 694.118 957.356 695.168 957.387 696.297C957.448 698.318 956.109 699.673 953.727 699.741C950.752 699.82 949.74 698.583 949.689 696.591C949.658 695.59 949.791 694.108 949.74 692.342C949.669 689.771 949.331 688.328 949.301 687.239C949.25 685.247 950.313 683.765 953.124 683.696C956.007 683.618 956.978 684.785 957.039 687.043C957.08 688.809 957.009 689.673 957.07 692.057Z" fill="white"/>
<path d="M959.391 687.327C959.258 682.666 958.972 680.703 958.931 679.231C958.87 677.141 960.27 675.492 962.816 675.433C965.422 675.365 966.567 676.689 966.639 679.074C966.731 682.263 966.649 684.128 966.762 688.151C966.864 691.694 967.232 694.187 967.293 696.346C967.354 698.534 966.179 699.79 963.603 699.849C961.088 699.918 959.626 699.044 959.554 696.473C959.493 694.628 959.534 692.607 959.391 687.327Z" fill="white"/>
<path d="M1246.07 520.216C1233.49 530.255 1226.37 545.212 1223.33 560.363C1220.31 575.514 1221 591.044 1220 609.763C1199.7 604.05 1187.51 580.792 1195.06 562.166C1181.29 583.963 1182.48 613.146 1198 633.668C1182.36 631.283 1169.5 618.027 1168.48 603.237C1163.71 617.056 1165.82 632.753 1174.07 644.955C1152.33 632.836 1141.3 606.204 1148.58 583.399C1155.86 560.594 1180.75 543.724 1206.14 544.399C1204.13 532.973 1187.63 529.46 1175.83 533.121C1149.39 541.311 1136.29 568.821 1129.22 593.983C1123.59 614.061 1120.03 636.33 1130.13 654.698C1139.38 671.522 1158.46 681.681 1177.77 687.403C1204.11 695.205 1232.72 696.379 1259.8 690.759C1279.21 686.738 1297.89 679.296 1317.65 677.337C1337.94 675.321 1358.24 679.185 1378.55 680.729C1398.87 682.273 1420.62 681.136 1437.61 670.477C1455.1 659.505 1464.72 639.815 1466.75 620.283C1468.79 600.741 1464.12 581.19 1458.07 562.452C1449.01 534.397 1433.47 504.233 1403.65 495.165" fill="#FFA8A8"/>
<path d="M1259.39 459.253C1235 489.878 1229.87 532.872 1246.48 567.463C1263.08 602.054 1300.75 626.837 1341.28 629.842C1362.72 631.431 1385.44 626.883 1401.99 613.896C1419.74 599.974 1428.41 577.973 1430.12 556.453C1431.82 534.933 1427.36 513.487 1422.91 492.355C1419.76 477.38 1415.39 460.695 1401.42 452.847C1391.04 447.004 1378 447.707 1365.87 448.585C1329.85 451.21 1360.82 450.554 1326.87 450.702C1301.19 451.377 1272.68 462.313 1273.64 455.306C1262.46 457.829 1296.6 453.161 1270.15 455.629" fill="#FFDEDE"/>
<path d="M1366.29 453.299C1376.9 433.397 1386.13 412.755 1393.91 391.577C1399.43 412.663 1403.19 434.201 1405.15 455.897" fill="#FFA8A8"/>
<path d="M1253.92 466.889C1258 446.09 1260.54 425.032 1261.53 403.928C1273.16 421.038 1283.25 439.073 1291.67 457.765" fill="#FFA8A8"/>
<path d="M1396.09 471.713C1356.31 484.581 1314.58 491.717 1273.64 495.96C1273.08 507.451 1273.24 520.66 1282.18 528.166C1292.23 536.606 1308.75 532.641 1317.82 523.202C1326.89 513.774 1330.4 500.629 1336.38 487.179C1343.73 498.207 1352.24 510.076 1365.29 513.385C1376.13 516.131 1388.49 511.601 1394.79 502.579C1401.08 493.557 1400.86 480.68 1394.25 471.871" fill="#F7A539"/>
<path d="M1345.45 517.878C1349.13 540.942 1351.31 551.424 1353.32 579.674C1340.98 589.473 1332.69 576.254 1330.97 575.819" stroke="#363636" stroke-miterlimit="10"/>
<path d="M1353.32 579.406C1355.5 582.632 1359.6 584.49 1363.51 584.019C1367.41 583.548 1370.94 580.756 1372.25 577.104" stroke="#363636" stroke-miterlimit="10"/>
<path d="M1274.68 496.681C1276.52 502.875 1279.42 508.893 1284.05 513.496C1288.68 518.1 1295.2 521.15 1301.79 520.707C1307.37 520.328 1312.51 517.554 1316.89 514.143C1325.43 507.497 1331.73 498.179 1338.09 488.362C1345.41 495.221 1354.66 500.102 1364.55 502.32C1369.83 503.503 1375.57 503.901 1380.54 501.784C1385.84 499.519 1389.58 494.62 1391.65 489.351C1393.71 484.073 1394.31 478.378 1394.89 472.767" fill="#855C28"/>
<path d="M1275.49 496.469C1280.97 507.599 1294.81 514.144 1307.17 511.435C1319.53 508.727 1329.17 497.052 1329.24 484.702C1329.77 484.933 1330.31 485.164 1330.84 485.395" fill="black"/>
<path d="M1343.26 483.083C1348.95 489.129 1355.87 494.777 1364.2 495.942C1370.54 496.829 1377.24 494.869 1382.03 490.719C1386.82 486.577 1389.61 480.319 1389.46 474.08" fill="black"/>
<path d="M1319.55 490.71C1316.95 490.155 1314.67 493.076 1315.6 495.738C1316.53 498.401 1320.25 499.584 1322.02 497.772C1323.79 495.96 1322.78 492.004 1320.28 490.95" fill="white"/>
<path d="M1378.49 480.449C1375.89 479.895 1373.62 482.816 1374.55 485.478C1375.48 488.14 1379.2 489.324 1380.97 487.512C1382.73 485.7 1381.72 481.743 1379.23 480.69" fill="white"/>
<path d="M1273.65 488.223C1292.14 480.689 1311.36 474.847 1330.97 470.798" stroke="#262121" stroke-miterlimit="10"/>
<path d="M1351.79 467.471C1364.36 465.28 1377.07 463.838 1389.82 463.154" stroke="#262121" stroke-miterlimit="10"/>
<path d="M1260.32 516.99C1265.6 530.579 1276.57 541.977 1290.15 547.985C1303.72 554.003 1319.73 554.558 1333.72 549.511" stroke="white" stroke-miterlimit="10"/>
<path d="M1256.34 540.793C1267.65 559.263 1292.06 569.052 1313.42 563.691" stroke="white" stroke-miterlimit="10"/>
<path d="M1268.18 569.848C1276.66 577.298 1288.18 581.384 1299.6 580.977C1311.02 580.571 1322.21 575.69 1330.12 567.657" stroke="white" stroke-miterlimit="10"/>
<path d="M1366.21 543.483C1375.74 545.194 1385.57 540.849 1392.61 534.36C1399.65 527.87 1404.41 519.431 1409.06 511.139" stroke="white" stroke-miterlimit="10"/>
<path d="M1367.78 556.259C1380.45 559.005 1394.31 556.065 1404.66 548.43C1415.02 540.794 1421.69 528.601 1422.43 515.956" stroke="white" stroke-miterlimit="10"/>
<path d="M1371.43 567.074C1376.21 571.983 1383.42 574.534 1390.31 573.767C1397.21 572.999 1403.64 568.932 1407.17 563.099" stroke="white" stroke-miterlimit="10"/>
<path d="M1244.11 574.137C1243.6 588.262 1245.73 602.461 1249.82 619.276C1251.75 613.775 1253.68 608.275 1257.71 603.912C1260.04 615.633 1266.17 626.606 1275.01 634.861C1272.22 630.969 1272.66 625.183 1276 621.725C1279.67 631.191 1287.35 639.104 1296.83 643.218" stroke="white" stroke-miterlimit="10"/>
<path d="M1440.29 553.116C1451.27 571.031 1448.99 595.74 1434.91 611.455C1438.22 604.799 1435.9 595.222 1433.46 588.215C1429.31 605.4 1418.17 643.467 1405.11 652.563C1408.12 650.446 1410.82 630.285 1410.43 626.689C1401.07 637.671 1396.35 648.403 1387 659.385" stroke="white" stroke-miterlimit="10"/>
<path d="M1320.14 562.453C1322.66 552.617 1322.4 537.374 1330.92 525.847C1340.67 512.637 1349.46 507.803 1359.55 519.016C1370.57 531.264 1377.35 543.78 1378.9 552.978" stroke="#363636" stroke-miterlimit="10"/>
<path d="M1355.79 511.647C1349.29 509.678 1341.04 511.361 1335.74 516.473C1339.12 521.511 1342.5 526.549 1347.2 532.28C1351.4 525.569 1354.04 518.248 1354.88 510.982" fill="#FF91B8"/>
<path d="M1222.34 623.176C1221.56 637.458 1230.8 651.74 1247.64 657.619C1247.3 652.147 1246.96 646.684 1248.67 642.33C1256.24 650.372 1265.19 657.166 1275.04 662.352" stroke="white" stroke-miterlimit="10"/>
<path d="M1343.58 640.444C1351.5 644.557 1361.09 645.491 1369.69 642.986" stroke="white" stroke-miterlimit="10"/>
<path d="M1328.13 602.886C1333.03 612.685 1344.67 618.832 1355.77 617.473" stroke="white" stroke-miterlimit="10"/>
<path d="M1269.09 463.607C1264.85 456.766 1265.4 447.411 1270.41 441.088C1276.25 446.663 1280.73 453.614 1283.34 461.176" fill="#FFBFBF"/>
<path d="M1378.41 453.835C1379.1 445.026 1382.82 435.782 1389.06 427.425C1395.25 435.098 1396.59 445.738 1392.68 456.137" fill="#FFBFBF"/>
<path d="M1557.78 498.032C1583.74 480.671 1600.22 461.003 1594.58 454.102C1588.94 447.201 1563.31 455.681 1537.34 473.042C1511.38 490.402 1494.9 510.07 1500.54 516.971C1506.18 523.872 1531.81 515.392 1557.78 498.032Z" fill="#B05659"/>
<path d="M1558.67 501.197C1584.64 483.836 1601.11 464.168 1595.47 457.267C1589.83 450.366 1564.2 458.846 1538.24 476.207C1512.27 493.567 1495.79 513.235 1501.43 520.136C1507.07 527.037 1532.7 518.557 1558.67 501.197Z" fill="#FFC7C9"/>
<path d="M1539.17 473.184C1546.81 481.771 1553.64 490.951 1559.57 500.611" stroke="#B2595C" stroke-miterlimit="10"/>
<path d="M1533.26 494.214C1530.67 495.194 1528.43 497.015 1527.09 499.252C1526.08 500.944 1525.58 503.014 1526.45 504.687C1527.56 506.832 1530.7 507.636 1533.31 506.934C1535.91 506.231 1538.01 504.345 1539.52 502.265" stroke="#B05659" stroke-miterlimit="10"/>
<path d="M1569.48 485.108C1566.83 481.586 1563.48 476.696 1560.45 473.1C1562.53 471.011 1565.1 469.301 1567.91 468.127C1568.74 467.785 1569.69 467.48 1570.49 467.803C1571.12 468.062 1571.49 468.672 1571.56 469.301C1571.63 469.93 1571.46 470.567 1571.21 471.178C1570.17 473.831 1567.94 476.132 1565.25 477.417C1567.66 476.16 1570.19 475.088 1572.78 474.21C1573.59 473.932 1574.45 473.673 1575.31 473.683C1576.17 473.692 1577.06 474.025 1577.46 474.699C1577.78 475.254 1577.73 475.966 1577.46 476.585C1577.18 477.205 1576.73 477.732 1576.25 478.24C1574.16 480.514 1571.68 482.501 1568.94 484.128" stroke="#B2595C" stroke-miterlimit="10"/>
<path d="M1558.8 438.813C1590.04 433.394 1613.89 422.063 1612.07 413.504C1610.26 404.946 1583.46 402.4 1552.22 407.819C1520.98 413.238 1497.13 424.57 1498.95 433.128C1500.76 441.687 1527.56 444.232 1558.8 438.813Z" fill="#B05659"/>
<path d="M1557.99 442.075C1589.23 436.656 1613.08 425.325 1611.27 416.766C1609.45 408.207 1582.65 405.662 1551.41 411.081C1520.17 416.5 1496.32 427.831 1498.14 436.39C1499.95 444.949 1526.75 447.494 1557.99 442.075Z" fill="#FFC7C9"/>
<path d="M1554.45 408.531C1556.76 419.513 1558.07 430.708 1558.37 441.985" stroke="#B2595C" stroke-miterlimit="10"/>
<path d="M1538.76 425.383C1536.01 425.217 1533.16 425.975 1530.87 427.481C1529.14 428.618 1527.67 430.319 1527.58 432.196C1527.47 434.618 1529.79 436.633 1532.41 437.049C1535.02 437.465 1537.79 436.596 1540.13 435.311" stroke="#B05659" stroke-miterlimit="10"/>
<path d="M1574.77 431.817C1574.24 427.509 1573.79 421.667 1572.96 417.128C1575.82 416.065 1578.9 415.547 1581.93 415.612C1582.82 415.63 1583.81 415.75 1584.34 416.37C1584.76 416.86 1584.77 417.572 1584.52 418.182C1584.28 418.792 1583.8 419.3 1583.28 419.762C1581.06 421.768 1577.96 422.97 1574.98 423.053C1577.7 422.887 1580.43 422.933 1583.12 423.183C1583.97 423.266 1584.85 423.377 1585.58 423.737C1586.33 424.098 1586.92 424.763 1586.93 425.549C1586.94 426.196 1586.53 426.825 1585.99 427.278C1585.45 427.731 1584.79 428.036 1584.12 428.304C1581.16 429.524 1578.01 430.347 1574.83 430.717" stroke="#B2595C" stroke-miterlimit="10"/>
<path d="M1557.78 498.032C1583.74 480.671 1600.22 461.003 1594.58 454.102C1588.94 447.201 1563.31 455.681 1537.34 473.042C1511.38 490.402 1494.9 510.07 1500.54 516.971C1506.18 523.872 1531.81 515.392 1557.78 498.032Z" fill="#B05659"/>
<path d="M1558.67 501.197C1584.64 483.836 1601.11 464.168 1595.47 457.267C1589.83 450.366 1564.2 458.846 1538.24 476.207C1512.27 493.567 1495.79 513.235 1501.43 520.136C1507.07 527.037 1532.7 518.557 1558.67 501.197Z" fill="#FFD97A"/>
<path d="M1539.17 473.184C1546.81 481.771 1553.64 490.951 1559.57 500.611" stroke="#B2595C" stroke-miterlimit="10"/>
<path d="M1533.26 494.214C1530.67 495.194 1528.43 497.015 1527.09 499.252C1526.08 500.944 1525.58 503.014 1526.45 504.687C1527.56 506.832 1530.7 507.636 1533.31 506.934C1535.91 506.231 1538.01 504.345 1539.52 502.265" stroke="#B05659" stroke-miterlimit="10"/>
<path d="M1569.48 485.108C1566.83 481.586 1563.48 476.696 1560.45 473.1C1562.53 471.011 1565.1 469.301 1567.91 468.127C1568.74 467.785 1569.69 467.48 1570.49 467.803C1571.12 468.062 1571.49 468.672 1571.56 469.301C1571.63 469.93 1571.46 470.567 1571.21 471.178C1570.17 473.831 1567.94 476.132 1565.25 477.417C1567.66 476.16 1570.19 475.088 1572.78 474.21C1573.59 473.932 1574.45 473.673 1575.31 473.683C1576.17 473.692 1577.06 474.025 1577.46 474.699C1577.78 475.254 1577.73 475.966 1577.46 476.585C1577.18 477.205 1576.73 477.732 1576.25 478.24C1574.16 480.514 1571.68 482.501 1568.94 484.128" stroke="#B2595C" stroke-miterlimit="10"/>
<path d="M1558.8 438.813C1590.04 433.394 1613.89 422.063 1612.07 413.504C1610.26 404.946 1583.46 402.4 1552.22 407.819C1520.98 413.238 1497.13 424.57 1498.95 433.128C1500.76 441.687 1527.56 444.232 1558.8 438.813Z" fill="#B05659"/>
<path d="M1557.99 442.075C1589.23 436.656 1613.08 425.325 1611.27 416.766C1609.45 408.207 1582.65 405.662 1551.41 411.081C1520.17 416.5 1496.32 427.831 1498.14 436.39C1499.95 444.949 1526.75 447.494 1557.99 442.075Z" fill="#FFD97A"/>
<path d="M1554.45 408.531C1556.76 419.513 1558.07 430.708 1558.37 441.985" stroke="#B2595C" stroke-miterlimit="10"/>
<path d="M1538.76 425.383C1536.01 425.217 1533.16 425.975 1530.87 427.481C1529.14 428.618 1527.67 430.319 1527.58 432.196C1527.47 434.618 1529.79 436.633 1532.41 437.049C1535.02 437.465 1537.79 436.596 1540.13 435.311" stroke="#B05659" stroke-miterlimit="10"/>
<path d="M1574.77 431.817C1574.24 427.509 1573.79 421.667 1572.96 417.128C1575.82 416.065 1578.9 415.547 1581.93 415.612C1582.82 415.63 1583.81 415.75 1584.34 416.37C1584.76 416.86 1584.77 417.572 1584.52 418.182C1584.28 418.792 1583.8 419.3 1583.28 419.762C1581.06 421.768 1577.96 422.97 1574.98 423.053C1577.7 422.887 1580.43 422.933 1583.12 423.183C1583.97 423.266 1584.85 423.377 1585.58 423.737C1586.33 424.098 1586.92 424.763 1586.93 425.549C1586.94 426.196 1586.53 426.825 1585.99 427.278C1585.45 427.731 1584.79 428.036 1584.12 428.304C1581.16 429.524 1578.01 430.347 1574.83 430.717" stroke="#B2595C" stroke-miterlimit="10"/>
<path d="M1054.39 719.092C1061.84 718.796 1068.92 721.726 1076.21 723.113C1083.51 724.499 1092.43 723.741 1096.47 718.214C1104.14 707.685 1107.57 694.798 1106.01 682.356C1104.44 669.914 1097.89 658.007 1087.78 649.216" fill="#D59941"/>
<path d="M1001.06 654.883C999.045 674.767 1000.53 694.91 1005.79 715.191C1002.61 715.533 999.914 718.066 999.75 720.894C999.576 723.714 1001.95 726.496 1005.07 727.134C1008.5 727.837 1012 728.548 1015.52 728.373C1019.05 728.197 1022.67 727.023 1024.84 724.564C1027 722.115 1027.28 718.26 1025.07 716.54C1024.99 712.954 1024.92 709.367 1024.84 705.781C1030.31 714.525 1042.26 719.748 1052.89 718.463C1053.56 723.843 1058.52 728.595 1064.55 729.639C1070.58 730.684 1077.21 727.948 1080.15 723.196C1081.38 721.218 1081.3 718.657 1079.95 716.735C1078.6 714.812 1076.03 713.619 1073.79 714.359C1078.86 700.021 1081.3 684.963 1081.32 669.692C1084.21 675.201 1087.11 680.711 1090.38 685.739C1091.55 686.738 1093.57 686.387 1094.82 685.462C1096.07 684.538 1096.79 683.197 1097.76 682.042C1098.71 680.877 1100.11 679.805 1101.73 679.86C1103.36 679.916 1104.77 681.728 1103.75 682.846C1095.87 691.425 1092.88 703.312 1095.16 712.566C1090.27 715.339 1089.77 722.179 1093.57 726.053C1097.38 729.926 1104.23 730.767 1109.58 728.78C1114.94 726.792 1118.83 722.438 1120.94 717.668C1123.05 712.889 1123.56 707.694 1123.7 702.573C1124.63 669.599 1110.69 636.478 1085.57 612.037C1075.99 618.175 1068.69 626.606 1061.13 634.629C1053.56 642.653 1045.32 650.585 1034.69 655.188C1024.06 659.782 1010.46 660.411 1000.94 654.217" fill="#F4AE4C"/>
<path d="M1000.16 614.967C993.943 627.29 992.758 641.525 996.867 654.522C1000.98 667.51 1010.34 679.158 1023.42 686.941C1023.79 693.699 1024.28 699.929 1024.83 705.845C1026.91 710.754 1031.6 713.333 1035.61 715.256C1040.89 717.798 1046.04 719.471 1052.88 718.463C1054.34 707.87 1056.27 697.775 1056.93 686.34C1067.71 681.173 1076.14 672.308 1080.05 662.056C1083.95 651.805 1083.3 640.25 1078.35 631.163C1078.41 624.701 1081.45 618.304 1087.29 614.08C1087.5 611.029 1086.14 603.477 1085.96 600.232C1070.82 612.148 1056.64 619.58 1038.97 628.593C1038.75 625.524 1035.77 630.238 1032.64 628.889C1021.86 624.239 1013.05 616.705 1002.26 612.055" fill="#F0DEB1"/>
<path d="M1090.44 597.034C1087.07 586.422 1080.57 574.081 1077.02 562.813C1088.78 547.181 1090.42 534.581 1093.85 516.509C1078.94 522.13 1071.77 534.628 1058.79 538.27C1040.2 535.413 1032.53 536.097 1018.95 537.66C1011.62 525.254 998.636 515.52 983.557 511.148" fill="#F4E7C5"/>
<path d="M999.73 521.63C996.591 541.061 986.174 551.415 998.38 567.758C994.874 578.213 991.357 588.668 987.81 598.393C999.505 616.021 1019.13 629.425 1042.62 635.174C1064.28 629.822 1082.29 615.503 1090.44 597.034L1089.85 595.185" fill="#F4E7C5"/>
<path d="M997.501 566.205C986.43 549.548 981.677 529.692 984.692 510.409C999.454 514.892 1012.07 524.644 1018.65 536.92C1025 535.783 1031.57 535.645 1037.98 536.532C1037.41 545.286 1038.41 554.04 1037.84 562.785C1037.19 572.75 1029.9 582.373 1020.97 588.511C1012.05 594.649 1000.08 597.21 988.802 595.038C991.756 585.35 994.711 575.662 997.665 565.974" fill="#F3AF4C"/>
<path d="M1079.83 565.586C1083.43 575.44 1086.75 586.274 1089.86 594.797C1081 597.358 1070.59 595.019 1061.74 590.018C1055.64 586.57 1048.79 580.145 1045.89 574.22C1038.77 559.698 1042.54 541.755 1041.82 536.061C1047.17 535.848 1054.08 536.68 1060.2 536.181C1068.73 527.177 1078.5 519.089 1089.22 512.128C1092.24 510.168 1097.34 512.516 1097.24 515.826C1096.71 533.519 1090.61 551.054 1079.81 565.974" fill="#F3AF4C"/>
<path d="M1056.95 567.693C1059.01 567.693 1060.68 565.91 1060.68 563.709C1060.68 561.509 1059.01 559.725 1056.95 559.725C1054.89 559.725 1053.21 561.509 1053.21 563.709C1053.21 565.91 1054.89 567.693 1056.95 567.693Z" fill="black"/>
<path d="M1026.32 567.693C1028.38 567.693 1030.05 565.91 1030.05 563.709C1030.05 561.509 1028.38 559.725 1026.32 559.725C1024.26 559.725 1022.59 561.509 1022.59 563.709C1022.59 565.91 1024.26 567.693 1026.32 567.693Z" fill="black"/>
<path d="M1040.7 599.502C1040.1 601.231 1038.69 602.719 1036.88 603.57C1035.07 604.42 1032.88 604.614 1031.68 604.226C1031.34 607.462 1031 610.762 1031.79 613.932C1032.58 617.103 1034.68 620.2 1038.02 621.559C1041.37 622.917 1045.97 622.002 1047.62 619.1C1049.87 615.162 1050.14 608.793 1049.69 604.392C1049.56 603.117 1045.76 603.847 1044.38 603.422C1043 602.997 1044.66 603.126 1043.3 602.664C1041.94 602.202 1040.65 601.176 1040.66 599.891" fill="#F38FA7"/>
<path d="M1046.74 592.754C1046.68 595.565 1043.74 598.079 1040.55 598.042C1037.36 598.005 1034.49 595.426 1034.51 592.616C1033.29 592.671 1031.92 591.59 1031.73 590.295C1031.53 589.001 1032.55 587.652 1033.78 587.18C1037.97 587.208 1042.15 587.236 1046.35 587.254C1048 587.263 1049.51 588.594 1049.51 590.055C1049.52 591.516 1048.03 592.865 1046.38 592.893" fill="black"/>
<path d="M1020.95 591.256C1020.73 594.501 1021.64 597.866 1023.92 600.417C1026.21 602.959 1029.96 604.558 1033.61 604.106C1037.26 603.653 1040.52 600.953 1040.58 597.496C1040.46 600.768 1043.65 603.717 1047.31 604.244C1050.97 604.771 1054.77 603.144 1057.07 600.574C1059.37 598.004 1060.3 594.64 1060.25 591.367" stroke="black" stroke-miterlimit="10"/>
<path d="M1567.16 725.036C1666.15 725.036 1746.4 708.32 1746.4 687.7C1746.4 667.079 1666.15 650.363 1567.16 650.363C1468.17 650.363 1387.93 667.079 1387.93 687.7C1387.93 708.32 1468.17 725.036 1567.16 725.036Z" fill="#E38E34"/>
<path d="M1487.9 664.053C1512.38 658.904 1533.97 643.485 1545.74 622.751C1525.63 627.632 1506.75 639.483 1492.92 655.327C1515.12 632.809 1527.5 601.527 1525.57 570.495C1503.31 591.127 1490.54 619.017 1489.69 647.618C1495.92 613.489 1492.54 576.975 1478.6 544.159C1463.98 579.221 1464.5 618.083 1480.24 650.455C1471.63 622.298 1454.26 596.397 1431.91 577.714C1438.28 604.781 1451.79 630.488 1472.09 651.879C1454.95 643.421 1437.79 634.962 1420.22 625.885C1431.53 644.678 1453.16 657.73 1475.66 660.032C1467.31 667.298 1458.95 674.555 1452.21 679.99C1465.61 686.72 1484.37 677.245 1483.6 663.018C1485.47 676.052 1502.06 685.453 1514.57 681.044C1505.59 674.323 1496.62 667.612 1487.64 660.892" fill="#C1E153"/>
<path d="M1483.69 661.447L1483.59 690.87" stroke="#132A13" stroke-miterlimit="10"/>
<path d="M1448.42 604.929C1462.2 627.65 1470.56 639.788 1484.34 662.51" stroke="#132A13" stroke-miterlimit="10"/>
<path d="M1478.74 576.365C1483.91 609.125 1485.77 629.287 1484.03 662.214" stroke="#132A13" stroke-miterlimit="10"/>
<path d="M1514.76 598.384C1502.93 624.221 1496.03 637.393 1484.22 663.23" stroke="#132A13" stroke-miterlimit="10"/>
<path d="M1524.18 639.178C1508.78 648.412 1500.2 654.172 1484.81 663.406" stroke="#132A13" stroke-miterlimit="10"/>
<path d="M1440.22 641.692C1457.74 649.578 1466.16 653.562 1483.69 661.447" stroke="#132A13" stroke-miterlimit="10"/>
<path d="M1464.89 675.303C1470.93 673.87 1477.35 670.811 1483.2 662.038" stroke="#132A13" stroke-miterlimit="10"/>
<path d="M1500.91 676.043C1491.66 672.697 1487.1 667.622 1482.94 659.136" stroke="#132A13" stroke-miterlimit="10"/>
<path d="M1589.05 678.067C1606.76 674.323 1622.39 663.129 1630.89 648.08C1616.34 651.62 1602.69 660.226 1592.69 671.735C1608.74 655.383 1617.69 632.67 1616.3 610.142C1600.2 625.127 1590.96 645.371 1590.36 666.133C1594.87 641.35 1592.41 614.838 1582.33 591.017C1571.76 616.475 1572.13 644.696 1583.52 668.195C1577.29 647.756 1564.73 628.945 1548.56 615.375C1553.17 635.027 1562.94 653.691 1577.63 669.221C1565.23 663.083 1552.82 656.945 1540.1 650.345C1548.28 663.989 1563.93 673.464 1580.21 675.137C1574.17 680.406 1568.12 685.684 1563.24 689.632C1572.93 694.512 1586.5 687.644 1585.95 677.309C1587.3 686.775 1599.31 693.597 1608.35 690.399C1601.86 685.518 1595.37 680.646 1588.88 675.766" fill="#C1E153"/>
<path d="M1586.01 676.182L1585.94 697.535" stroke="#132A13" stroke-miterlimit="10"/>
<path d="M1560.5 635.138C1570.46 651.629 1576.52 660.448 1586.48 676.948" stroke="#132A13" stroke-miterlimit="10"/>
<path d="M1582.44 614.403C1586.18 638.188 1587.53 652.821 1586.26 676.736" stroke="#132A13" stroke-miterlimit="10"/>
<path d="M1608.49 630.387C1599.94 649.143 1594.95 658.71 1586.39 677.466" stroke="#132A13" stroke-miterlimit="10"/>
<path d="M1615.3 660.004C1604.17 666.706 1597.95 670.894 1586.82 677.596" stroke="#132A13" stroke-miterlimit="10"/>
<path d="M1554.57 661.834C1567.24 667.557 1573.34 670.45 1586.02 676.181" stroke="#132A13" stroke-miterlimit="10"/>
<path d="M1572.42 686.239C1576.78 685.204 1581.42 682.976 1585.66 676.607" stroke="#132A13" stroke-miterlimit="10"/>
<path d="M1598.46 686.775C1591.77 684.344 1588.48 680.665 1585.46 674.499" stroke="#132A13" stroke-miterlimit="10"/>
<path d="M1689.86 655.549C1712.73 650.862 1732.92 636.821 1743.91 617.935C1725.11 622.382 1707.48 633.169 1694.56 647.599C1715.3 627.087 1726.87 598.606 1725.07 570.347C1704.28 589.14 1692.34 614.524 1691.55 640.574C1697.37 609.495 1694.21 576.245 1681.19 546.359C1667.53 578.288 1668 613.674 1682.71 643.153C1674.66 617.519 1658.43 593.928 1637.54 576.91C1643.5 601.564 1656.12 624.97 1675.09 644.447C1659.06 636.747 1643.05 629.046 1626.62 620.773C1637.18 637.884 1657.4 649.771 1678.44 651.87C1670.64 658.479 1662.83 665.098 1656.52 670.044C1669.04 676.163 1686.58 667.548 1685.86 654.588C1687.61 666.457 1703.11 675.017 1714.8 670.996C1706.42 664.876 1698.02 658.766 1689.64 652.646" fill="#C1E153"/>
<path d="M1685.94 653.183L1685.84 679.972" stroke="#132A13" stroke-miterlimit="10"/>
<path d="M1652.96 601.711C1665.84 622.399 1673.66 633.455 1686.53 654.143" stroke="#132A13" stroke-miterlimit="10"/>
<path d="M1681.31 575.708C1686.14 605.539 1687.88 623.897 1686.26 653.876" stroke="#132A13" stroke-miterlimit="10"/>
<path d="M1714.97 595.758C1703.92 619.284 1697.47 631.283 1686.42 654.809" stroke="#132A13" stroke-miterlimit="10"/>
<path d="M1723.76 632.901C1709.38 641.313 1701.36 646.554 1686.97 654.966" stroke="#132A13" stroke-miterlimit="10"/>
<path d="M1645.31 635.193C1661.68 642.376 1669.55 646 1685.94 653.182" stroke="#132A13" stroke-miterlimit="10"/>
<path d="M1668.36 665.8C1674 664.497 1680 661.705 1685.47 653.718" stroke="#132A13" stroke-miterlimit="10"/>
<path d="M1702.02 666.466C1693.37 663.416 1689.12 658.794 1685.22 651.075" stroke="#132A13" stroke-miterlimit="10"/>
<path d="M1630.07 184.391C1628.3 186.767 1626.54 189.152 1624.75 191.537C1624.57 192.258 1624.92 193.053 1625.59 193.469C1626.25 193.885 1627.2 193.903 1627.95 193.432C1629.91 191.204 1631.88 188.967 1633.85 186.739" fill="#F3AF4C"/>
<path d="M1654.1 151.474C1646.03 161.143 1637.98 170.803 1629.63 179.566C1628.69 181.905 1629.59 184.724 1631.75 186.222C1633.91 187.719 1637.16 187.775 1639.64 186.36C1648.28 176.007 1656.92 165.654 1665.56 155.301" fill="#F3AF4C"/>
<path d="M1663.49 134.372C1668 129.204 1672.51 124.028 1676.91 119.018C1679.34 116.577 1683.8 116.106 1686.7 117.973C1689.59 119.84 1690.51 123.806 1688.91 126.598C1684.75 131.941 1680.59 137.274 1676.43 142.617" fill="#846ADC"/>
<path d="M1670.26 163.223L1644.41 146.731L1657.28 130.462L1683.12 146.962L1670.26 163.223Z" fill="#B3A9EB"/>
<path d="M1625.3 204.571C1627.23 206.789 1627.74 209.96 1626.61 212.632C1625.83 214.443 1626.52 216.662 1628.21 217.808C1629.91 218.955 1632.45 218.954 1634.19 217.799C1636.12 216.505 1636.82 214.037 1636.23 211.966C1635.63 209.895 1633.97 208.185 1632 206.993C1630.04 205.8 1627.79 205.052 1625.56 204.321" fill="#C1E153"/>
<path d="M943.464 504.289C940.704 501.257 935.102 500.582 931.789 502.884C928.477 505.186 928.079 510.029 931.35 513.357C929.162 519.116 926.975 524.875 924.848 530.394C919.052 532.132 916.179 538.714 919.052 543.687C919.696 549.095 916.588 554.549 910.598 557.599C908.155 562.803 909.616 569.357 914.176 573.674C918.735 577.991 926.167 579.849 932.474 578.38C935.296 579.248 938.107 580.108 941.44 581.92C945.989 585.229 953.451 584.675 956.876 580.774C960.301 576.873 959.033 570.393 954.627 567.786C956.038 564.403 957.448 561.029 959.309 557.756C965.77 555.14 967.927 546.95 963.357 541.783C966.455 535.959 969.552 530.126 972.783 524.376C976.769 522.962 978.446 518.183 975.972 515.262C972.844 510.76 966.516 508.042 960.331 508.828C955.547 505.26 949.035 503.54 942.973 504.224" fill="#FFD97A"/>
<path d="M940.888 514.43C939.017 511.907 940.049 508.209 942.993 506.887C945.938 505.565 950.17 506.906 951.621 509.614" stroke="#9E5B34" stroke-miterlimit="10"/>
<path d="M969.276 514.366C971.913 512.988 975.788 514.384 977.096 516.908C978.364 519.348 977.199 523.342 972.68 523.748" stroke="#9E5B34" stroke-miterlimit="10"/>
<path d="M950.732 522.472C951.254 521.51 952.603 520.984 953.83 521.242C955.046 521.51 956.028 522.546 956.068 523.627" stroke="#9E5B34" stroke-miterlimit="10"/>
<path d="M964.339 526.346C964.185 525.329 965.32 524.386 966.496 524.552C967.661 524.719 968.499 525.957 968.08 526.882" stroke="#9E5B34" stroke-miterlimit="10"/>
<path d="M953.37 526.327C955.813 526.068 958.409 526.207 960.638 527.223C962.877 528.231 964.656 530.246 964.656 532.391C964.656 534.535 962.478 536.532 960.004 536.264" stroke="#9E5B34" stroke-miterlimit="10"/>
<path d="M961.401 530.084C961.544 529.643 960.429 528.96 958.912 528.558C957.395 528.157 956.05 528.189 955.907 528.63C955.764 529.071 956.878 529.754 958.395 530.155C959.913 530.557 961.258 530.525 961.401 530.084Z" stroke="#9E5B34" stroke-miterlimit="10"/>
<path d="M941.828 537.328C944.179 540.397 947.972 542.643 952.071 543.373C956.171 544.113 960.065 543.835 963.357 541.783" stroke="#9E5B34" stroke-miterlimit="10"/>
<path d="M926.085 541.053C925.87 545.056 929.755 549.077 934.376 549.622C938.996 550.168 943.607 547.173 944.21 543.216" stroke="#9E5B34" stroke-miterlimit="10"/>
<path d="M955.087 548.632C953.595 550.148 953.472 552.589 954.801 554.336C956.13 556.083 958.399 556.915 960.648 556.388" stroke="#9E5B34" stroke-miterlimit="10"/>
<path d="M926.269 553.098C925.727 555.492 925.195 557.877 924.572 559.929C920.094 562.554 917.508 567.38 917.988 571.502C919.461 575.255 924.122 577.973 928.6 577.687C933.077 577.4 936.89 574.128 937.279 570.255C937.667 566.381 934.58 562.305 930.266 560.992" stroke="#9E5B34" stroke-miterlimit="10"/>
<path d="M950.375 566.52C947.103 567.241 944.292 569.21 942.81 571.808C941.327 574.415 941.205 577.613 942.483 580.414C943.924 583.585 948.708 585.091 952.266 583.936C955.823 582.78 958.021 579.517 958.297 576.189C958.573 572.852 956.968 571.096 954.862 567.916C956.017 564.755 958.737 559.985 959.882 556.814" stroke="#9E5B34" stroke-miterlimit="10"/>
<path d="M1721.29 400.183C1723.22 398.685 1723.27 395.819 1722.86 393.416C1721.64 386.196 1717.76 379.55 1712.53 374.373C1707.3 369.197 1700.75 365.444 1693.86 362.855C1683.54 358.982 1671.98 357.669 1661.47 360.849C1650.95 364.029 1641.71 372.118 1638.77 382.647C1637.55 387.028 1637.41 391.669 1637.97 396.198C1638.56 400.894 1639.92 405.6 1642.72 409.445C1645.52 413.291 1649.92 416.156 1654.67 416.369C1655.22 414.973 1655.76 413.577 1655.89 411.497C1652.18 409.038 1648.67 406.191 1646.11 402.567C1643.56 398.944 1642.02 394.479 1642.58 390.107C1643.07 386.252 1645.13 382.767 1647.6 379.781C1654.53 371.443 1665.17 366.276 1676.09 365.971C1686.99 365.665 1697.99 370.213 1705.5 378.145C1707.63 380.41 1709.53 382.989 1710.41 385.956C1711.29 388.923 1711.04 392.334 1709.18 394.803" fill="#363636"/>
<path d="M1646.35 490.599C1651.99 480.125 1659.16 470.197 1667.64 460.334C1665.93 458.947 1664.23 457.552 1662.52 456.165C1654.62 469.624 1645.35 482.538 1634.86 494.694" fill="#808080"/>
<path d="M1612.21 522.823C1610.32 512.202 1606.77 501.932 1601.67 492.392C1609.52 491.57 1617.64 493.428 1624.33 497.199C1647.32 488.713 1670.17 480.283 1693.01 472.397C1699.43 474.505 1705.64 477.047 1711.78 481.022C1683.11 487.733 1654.78 496.108 1627.46 506.147C1624.87 513.108 1619.27 519.32 1612.14 523.138" fill="#A8A8A8"/>
<path d="M1674.59 373.44C1700.03 387.888 1725.47 402.337 1751.65 416.351C1749.25 426.288 1744.86 435.874 1740.51 445.386C1736.5 454.14 1732.46 462.931 1726.97 471.103C1723.45 476.344 1718.9 481.613 1712.93 484.091C1687.82 471.288 1662.72 458.485 1637.62 445.673C1634.42 444.036 1631.01 442.206 1629.67 439.109C1628.13 435.541 1629.78 431.354 1631.49 427.619C1635.93 417.978 1640.98 408.521 1646.61 399.314C1649.94 393.888 1653.48 388.508 1658.11 383.858C1662.74 379.208 1668.55 375.289 1675.11 373.551" fill="#808080"/>
<path d="M1612.55 522.731C1606.73 520.207 1602.34 515.668 1600.48 510.242C1598.61 504.825 1599.28 498.576 1602.32 492.17C1604.68 492.697 1606.34 494.342 1607.68 496.015C1613.62 503.392 1615.97 512.987 1614.15 522.453" fill="#363636"/>
<path d="M1592.42 527.52C1598.87 528.499 1604.38 532.539 1606.64 537.937C1600.14 537.392 1594.47 533.352 1592.51 527.889" fill="#21E5FF"/>
<path d="M1598.84 551.359C1598.66 544.463 1594.97 537.946 1588.39 533.509C1587.29 540.831 1591.41 548.207 1598.45 551.489" fill="#21E5FF"/>
<path d="M1579.69 544.463C1583.57 539.998 1584.49 533.74 1582.38 528.591C1579.56 530.329 1577.54 533.112 1576.97 536.051C1576.39 538.991 1577.27 542.032 1579.33 544.195" fill="#21E5FF"/>
<path d="M1631.92 440.995C1654.36 424.383 1670.03 399.933 1674.58 373.477C1666.65 376.222 1659.82 381.454 1654.36 387.546C1648.9 393.638 1644.72 400.589 1640.86 407.624C1637.56 413.632 1634.47 419.743 1631.6 425.918C1630.42 428.451 1629.26 431.057 1628.99 433.775C1628.72 436.493 1629.46 439.386 1631.6 441.152" fill="#363636"/>
<path d="M1282.05 177.745C1293.95 187.904 1300.14 203.758 1298.03 218.659C1285.49 209.424 1278.95 193.358 1281.78 178.697" fill="#21E5FF"/>
<path d="M1265.5 239.116C1273.69 223.429 1274.28 204.257 1266.42 186.203C1255.07 201.252 1254.31 222.883 1264.54 238.931" fill="#21E5FF"/>
<path d="M1235.12 200.014C1248.56 194.8 1258.2 181.905 1260.31 167.752C1252.41 168.168 1244.84 171.912 1240.01 177.791C1235.19 183.661 1233.21 191.565 1234.7 198.951" fill="#21E5FF"/>
<path d="M716.007 591.382C711.222 591.123 706.469 594.857 706.101 599.165C705.733 603.473 709.812 607.549 715.25 607.642C718.838 613.789 722.426 619.927 725.841 625.843C723.122 631.612 726.945 638.905 733.569 640.588C738.936 644.294 741.563 650.904 739.897 657.837C742.8 663.744 749.803 667.728 757.081 667.617C764.36 667.506 771.536 663.3 774.879 657.356C777.742 655.886 780.614 654.417 784.713 653.298C791.072 652.411 796.091 646.3 795.1 640.661C794.108 635.023 787.31 630.946 781.698 632.268C779.684 628.561 777.67 624.863 776.096 620.907C778.518 613.956 772.702 605.95 764.656 605.405C761.682 598.518 758.707 591.631 755.896 584.698C757.572 580.566 754.485 575.574 750.018 575.186C743.639 574.068 736.483 576.767 732.618 582.082C725.851 582.951 719.472 586.556 715.618 591.705" fill="#FFA8A8"/>
<path d="M723.265 601.226C719.595 600.69 717.019 597.029 718.01 593.766C719.002 590.494 723.346 588.321 726.863 589.32" stroke="#9E5B34" stroke-miterlimit="10"/>
<path d="M744.221 579.576C744.926 576.498 749.046 574.64 752.307 575.611C755.456 576.544 758.206 580.538 755.221 584.291" stroke="#9E5B34" stroke-miterlimit="10"/>
<path d="M737.832 599.988C737.351 598.842 737.873 597.4 739.007 596.679C740.152 595.958 741.819 596.022 742.82 596.836" stroke="#9E5B34" stroke-miterlimit="10"/>
<path d="M751.397 592.656C750.365 591.982 750.355 590.382 751.367 589.624C752.379 588.866 754.117 589.19 754.648 590.235" stroke="#9E5B34" stroke-miterlimit="10"/>
<path d="M743.26 600.985C744.835 598.933 746.879 597.066 749.455 596.151C752.021 595.236 755.17 595.448 757.102 597.112C759.034 598.776 759.238 601.993 757.163 603.657" stroke="#9E5B34" stroke-miterlimit="10"/>
<path d="M750.4 600.118C751.885 599.27 752.836 598.222 752.526 597.778C752.215 597.333 750.76 597.66 749.275 598.508C747.791 599.356 746.839 600.403 747.15 600.848C747.46 601.293 748.915 600.966 750.4 600.118Z" stroke="#9E5B34" stroke-miterlimit="10"/>
<path d="M744.66 618.309C749.169 618.91 754.004 617.763 757.715 615.221C761.415 612.67 764.053 609.499 764.636 605.395" stroke="#9E5B34" stroke-miterlimit="10"/>
<path d="M736.38 633.182C739.846 636.464 746.347 636.63 750.263 633.542C754.178 630.455 754.873 624.613 751.745 621.082" stroke="#9E5B34" stroke-miterlimit="10"/>
<path d="M764.697 617.015C764.963 619.335 767.079 621.323 769.645 621.674C772.211 622.016 774.644 620.944 775.819 618.827" stroke="#9E5B34" stroke-miterlimit="10"/>
<path d="M747.411 642.417C749.179 644.682 750.937 646.956 752.328 649.018C751.387 654.472 753.841 660.184 757.909 663.032C762.387 664.834 768.306 663.401 771.352 659.768C774.399 656.136 774.266 650.691 771.056 647.391C767.846 644.091 761.876 643.259 757.49 645.514" stroke="#9E5B34" stroke-miterlimit="10"/>
<path d="M777.384 634.514C775.615 637.564 775.308 641.234 776.566 644.386C777.823 647.538 780.634 650.118 784.1 651.328C788.036 652.697 792.932 650.238 794.527 646.623C796.122 643.009 794.803 638.812 791.992 636.011C789.181 633.21 786.4 633.072 781.974 632.193C779.97 628.856 777.67 623.079 775.656 619.742" stroke="#9E5B34" stroke-miterlimit="10"/>
</svg>
