<svg width="1021" height="810" viewBox="0 0 1021 810" fill="none" xmlns="http://www.w3.org/2000/svg">
<path d="M435.956 612.241C366.719 512.333 351.777 364.473 398.063 237.305C443.178 276.163 464.57 342.978 466.736 410.032C468.901 477.086 453.92 545.095 436.74 611.379" fill="url(#paint0_linear_693_40)"/>
<path d="M436.989 582.188C319.976 588.391 208.238 519.586 153.651 407.71C211.928 389.093 272.692 407.142 320.13 442.452C367.567 477.761 403.618 528.885 436.947 581.005" fill="url(#paint1_linear_693_40)"/>
<path d="M429.084 603.053C317.488 535.501 250.635 395.248 259.565 247.411C323.397 265.316 370.044 321.954 395.183 387.682C420.323 453.409 426.523 527.975 429.671 601.829" fill="url(#paint2_linear_693_40)"/>
<path d="M460.551 609.481C373.584 654.903 276.865 641.756 215.299 576.143C255.772 541.778 304.826 534.277 347.001 544.472C389.179 554.667 425.675 580.784 460.301 608.603" fill="url(#paint3_linear_693_40)"/>
<path d="M441.362 616.962C423.87 515.561 459.756 407.046 532.353 341.802C551.991 389.875 546.105 445.861 526.578 492.883C507.052 539.905 475.125 579.438 442.188 616.745" fill="url(#paint4_linear_693_40)"/>
<path d="M434.267 620.409C459.81 516.59 533.504 433.79 621.147 410.452C618.671 465.554 591.374 514.817 556.06 548.633C520.747 582.45 477.885 602.843 435.054 620.63" fill="#006D58"/>
<path d="M316.609 347.729C361.421 457.253 419.044 559.499 487.667 651.254" stroke="#067944" stroke-width="6" stroke-miterlimit="10"/>
<path d="M427.414 317.59C435.338 394.401 442.322 476.15 420 551.63" stroke="#067944" stroke-width="6" stroke-miterlimit="10"/>
<path d="M225.565 476.629C277.921 526.5 349.481 553.476 420.557 552.529" stroke="#067944" stroke-width="6" stroke-miterlimit="10"/>
<path d="M456.07 607.767C482.964 585.59 503.005 554.117 517.502 520.721C531.999 487.325 541.344 451.798 550.443 416.438" stroke="#067944" stroke-width="6" stroke-miterlimit="10"/>
<path d="M472.472 631.164C486.616 634.039 501.8 629.229 514.78 620.881C527.761 612.532 538.864 600.849 549.483 588.933C579.983 554.7 607.748 517.43 632.277 477.79" stroke="#067944" stroke-width="6" stroke-miterlimit="10"/>
<path d="M456.07 607.767C397.491 624.728 336.22 629.571 278.036 619.174" stroke="#067944" stroke-width="6" stroke-miterlimit="10"/>
<path d="M473.957 632.409C450.054 654.365 418.181 664.711 388.833 660.034" stroke="#067944" stroke-width="6" stroke-miterlimit="10"/>
<path d="M354.871 276.1C359.6 276.1 363.433 272.333 363.433 267.686C363.433 263.039 359.6 259.271 354.871 259.271C350.143 259.271 346.31 263.039 346.31 267.686C346.31 272.333 350.143 276.1 354.871 276.1Z" fill="#005645"/>
<path d="M805.662 209.367C810.391 209.367 814.224 205.6 814.224 200.953C814.224 196.305 810.391 192.538 805.662 192.538C800.934 192.538 797.101 196.305 797.101 200.953C797.101 205.6 800.934 209.367 805.662 209.367Z" fill="#005645"/>
<path d="M24.0686 273.004C28.7971 273.004 32.6302 269.237 32.6302 264.59C32.6302 259.943 28.7971 256.175 24.0686 256.175C19.3402 256.175 15.5071 259.943 15.5071 264.59C15.5071 269.237 19.3402 273.004 24.0686 273.004Z" fill="#2EC4B6"/>
<path d="M980.882 473.036C985.611 473.036 989.444 469.268 989.444 464.621C989.444 459.974 985.611 456.207 980.882 456.207C976.154 456.207 972.321 459.974 972.321 464.621C972.321 469.268 976.154 473.036 980.882 473.036Z" fill="#005645"/>
<path d="M235.24 364.097C244.591 364.097 252.171 356.879 252.171 347.975C252.171 339.072 244.591 331.854 235.24 331.854C225.889 331.854 218.309 339.072 218.309 347.975C218.309 356.879 225.889 364.097 235.24 364.097Z" fill="#B2D81F"/>
<path d="M740.042 351.237C749.392 351.237 756.973 344.019 756.973 335.116C756.973 326.212 749.392 318.995 740.042 318.995C730.691 318.995 723.11 326.212 723.11 335.116C723.11 344.019 730.691 351.237 740.042 351.237Z" fill="#B2D81F"/>
<path d="M848.681 126.243C872.44 126.243 891.7 107.753 891.7 84.9444C891.7 62.1359 872.44 43.646 848.681 43.646C824.922 43.646 805.662 62.1359 805.662 84.9444C805.662 107.753 824.922 126.243 848.681 126.243Z" fill="#FF9F1C"/>
<path d="M899.124 647.283C944.755 582.694 927.072 494.736 859.627 450.823C792.182 406.909 700.517 423.67 654.886 488.259C609.255 552.848 626.939 640.806 694.383 684.719C761.828 728.633 853.493 711.872 899.124 647.283Z" fill="#005645"/>
<path d="M120.135 351.425C137.927 351.425 152.35 337.579 152.35 320.499C152.35 303.418 137.927 289.572 120.135 289.572C102.343 289.572 87.9194 303.418 87.9194 320.499C87.9194 337.579 102.343 351.425 120.135 351.425Z" fill="#CBF3F0"/>
<path d="M603.145 60.6742C612.941 60.6742 620.882 53.0505 620.882 43.6462C620.882 34.2419 612.941 26.6182 603.145 26.6182C593.349 26.6182 585.407 34.2419 585.407 43.6462C585.407 53.0505 593.349 60.6742 603.145 60.6742Z" fill="#B2D81F"/>
<path d="M443.489 121.348C478.395 121.348 506.691 94.1837 506.691 60.6742C506.691 27.1648 478.395 0 443.489 0C408.584 0 380.287 27.1648 380.287 60.6742C380.287 94.1837 408.584 121.348 443.489 121.348Z" fill="#B2D81F"/>
<path d="M699.03 200.952C712.092 200.952 722.68 190.787 722.68 178.248C722.68 165.709 712.092 155.544 699.03 155.544C685.969 155.544 675.38 165.709 675.38 178.248C675.38 190.787 685.969 200.952 699.03 200.952Z" fill="#FF9F1C"/>
<path d="M516.32 114.655C521.986 137.945 517.667 161.309 504.353 179.354C501.343 183.434 497.258 187.529 491.107 187.654C487.974 187.717 484.911 186.678 482.219 184.975C480.281 158.261 476.065 131.252 466.571 105.761C471.969 87.038 475.881 67.9718 478.257 48.7065C471.231 51.8431 463.134 53.4759 454.934 53.4132C452.419 59.1371 450.584 65.0859 449.447 71.1489C444.944 64.0944 439.853 57.2463 434.083 50.66C429.656 52.0347 425.226 53.4095 420.799 54.788C437.054 106.723 447.658 159.551 452.672 212.481C450.841 214.324 448.461 215.765 445.623 216.532C438.21 218.537 429.932 216.377 422.131 214.763C405.952 211.409 389.198 210.402 372.912 211.807C371.284 217.781 369.66 223.756 368.032 229.73C396.381 224.968 426.957 227.434 454.573 236.652C462.82 368.291 436.571 499.849 376.766 619.285L424.984 647.237C436.398 595.066 447.827 542.736 457.541 490.185C460.105 490.027 462.701 489.975 465.261 489.89C471.73 489.68 478.499 489.127 483.648 486.138C488.796 483.149 491.572 476.961 488.024 472.372C478.837 472.932 469.653 473.489 460.466 474.049C476.238 385.293 486.623 295.882 483.317 205.497C483.275 204.391 483.233 203.282 483.187 202.172C499.177 197.281 511.428 186.254 518.834 173.376C528.195 157.092 530.963 137.989 533.623 119.192C527.78 118.566 521.879 117.018 516.32 114.655Z" fill="#005645"/>
<path d="M899.851 126.534C895.271 127.577 890.491 127.788 885.83 127.154C894.161 147.093 894.86 169.878 887.761 190.253C886.156 194.86 883.73 199.781 879.042 201.609C875.713 202.906 872.116 202.184 869.091 200.315C868.35 183.044 866.376 165.865 862.314 149.36C867.709 132.262 871.966 114.836 875.045 97.2183C869.382 100.03 862.979 101.461 856.601 101.335C854.279 106.554 852.474 111.987 851.204 117.53C848.151 111.032 844.627 104.722 840.557 98.6483C837.025 99.872 833.493 101.096 829.961 102.319C839.298 150.005 844.17 198.461 844.7 246.969C843.16 248.635 841.218 249.932 838.968 250.614C833.071 252.391 826.77 250.345 820.804 248.801C808.43 245.598 795.461 244.54 782.699 245.694C781.052 251.148 779.405 256.607 777.762 262.062C800.118 257.934 823.745 260.436 844.642 269.102C842.669 389.694 813.871 509.934 759.729 618.798L795.457 644.783C807.662 597.108 819.887 549.29 830.794 501.254C832.798 501.128 834.821 501.103 836.818 501.047C841.866 500.907 847.165 500.458 851.361 497.76C855.557 495.065 858.11 489.419 855.642 485.191C848.458 485.626 841.275 486.065 834.096 486.5C852.021 405.366 865.8 323.587 868.991 240.806C869.24 234.342 869.409 227.825 869.451 221.29C884.271 212.769 893.789 196.98 897.824 180.7C902.193 163.06 901.037 144.639 899.851 126.534Z" fill="#2EC4B6"/>
<path d="M919.085 478.66C916.832 476.968 915.265 475.099 914.363 473.249C940.505 445.529 971.66 420.341 1007.56 398.156C1004.12 395.418 996.957 383.627 993.513 380.889C973.922 386.034 938.608 408.941 912.186 432.463C907.238 431.976 902.016 430.27 898.488 427.307C894.027 423.555 893.808 419.32 894.376 415.733C896.883 399.881 909.683 387.118 929.82 380.387C924.096 378.076 918.671 375.205 913.918 371.969C903.018 381.747 891.984 391.725 887.761 404.437C883.833 416.253 886.605 430.981 899.524 444.508C895.789 448.337 892.407 452.108 889.493 455.734C823.557 537.834 792.559 634.993 761.964 731.4L816.992 736.921C811.636 642.906 841.59 556.882 902.776 486.072C931.525 493.078 960.189 505.212 983.892 520.448C984.86 516.35 985.827 512.251 986.791 508.153C972.632 500.155 957.063 493.31 941.058 488.047C933.341 485.515 924.971 483.075 919.085 478.66Z" fill="#B2D81F"/>
<path d="M41.2756 477.925C43.8978 470.561 54.3137 467.31 64.5454 470.664C74.7732 474.018 80.9429 482.709 78.3207 490.076C75.6984 497.44 65.2825 500.691 55.0509 497.337C44.8231 493.98 38.6572 485.289 41.2756 477.925Z" fill="url(#paint5_linear_693_40)"/>
<path d="M49.4649 513.031C52.0871 505.667 62.503 502.416 72.7346 505.77C82.9624 509.124 89.1321 517.815 86.5099 525.183C83.8877 532.551 73.4718 535.798 63.2401 532.444C53.0085 529.086 46.8426 520.395 49.4649 513.031Z" fill="url(#paint6_linear_693_40)"/>
<path d="M52.4746 546.947C55.0968 539.583 65.5128 536.332 75.7444 539.686C85.9722 543.04 92.1419 551.731 89.5197 559.099C86.8975 566.463 76.4815 569.714 66.2499 566.36C56.0183 563.002 49.8524 554.311 52.4746 546.947Z" fill="url(#paint7_linear_693_40)"/>
<path d="M54.5249 580.55C57.1471 573.186 67.5631 569.935 77.7947 573.289C88.0225 576.643 94.1922 585.334 91.57 592.701C88.9478 600.065 78.5318 603.316 68.3002 599.962C58.0724 596.605 51.9027 587.914 54.5249 580.55Z" fill="url(#paint8_linear_693_40)"/>
<path d="M51.8145 614.801C54.4367 607.437 64.8526 604.186 75.0842 607.54C85.312 610.894 91.4817 619.585 88.8595 626.953C86.2373 634.317 75.8214 637.568 65.5897 634.214C55.3581 630.86 49.1922 622.165 51.8145 614.801Z" fill="url(#paint9_linear_693_40)"/>
<path d="M53.1926 647.925C55.8149 640.561 66.2308 637.31 76.4624 640.664C86.6902 644.018 92.8599 652.709 90.2377 660.076C87.6155 667.444 77.1996 670.691 66.9679 667.337C56.7363 663.98 50.5704 655.289 53.1926 647.925Z" fill="url(#paint10_linear_693_40)"/>
<path d="M120.852 643.631C124.879 650.386 120.541 660.039 111.158 665.196C101.775 670.352 90.9058 669.055 86.8784 662.299C82.851 655.543 87.1894 645.89 96.5725 640.734C105.952 635.577 116.825 636.875 120.852 643.631Z" fill="url(#paint11_linear_693_40)"/>
<path d="M121.954 609.353C125.981 616.109 121.643 625.762 112.26 630.919C102.877 636.075 92.0076 634.777 87.9802 628.022C83.9528 621.266 88.2912 611.613 97.6743 606.456C107.054 601.304 117.926 602.601 121.954 609.353Z" fill="url(#paint12_linear_693_40)"/>
<path d="M118.545 575.556C122.572 582.312 118.234 591.964 108.851 597.121C99.4674 602.277 88.5984 600.98 84.571 594.224C80.5436 587.468 84.882 577.815 94.2652 572.659C103.644 567.506 114.517 568.8 118.545 575.556Z" fill="url(#paint13_linear_693_40)"/>
<path d="M119.228 542.229C123.255 548.985 118.917 558.638 109.534 563.794C100.151 568.951 89.2818 567.653 85.2544 560.897C81.227 554.141 85.5653 544.488 94.9485 539.332C104.332 534.176 115.201 535.473 119.228 542.229Z" fill="url(#paint14_linear_693_40)"/>
<path d="M117.531 505.56C121.558 512.316 117.22 521.969 107.837 527.125C98.4537 532.281 87.5847 530.984 83.5573 524.228C79.53 517.472 83.8683 507.819 93.2515 502.663C102.635 497.507 113.504 498.808 117.531 505.56Z" fill="url(#paint15_linear_693_40)"/>
<path d="M107.583 469.879C111.611 476.634 107.272 486.287 97.8893 491.444C88.5062 496.6 77.6372 495.303 73.6098 488.547C69.5824 481.791 73.9208 472.138 83.304 466.982C92.6871 461.825 103.556 463.123 107.583 469.879Z" fill="url(#paint16_linear_693_40)"/>
<path d="M51.5994 454.564C75.0457 470.277 85.8917 498.675 88.4947 526.012C91.0977 553.349 86.8553 580.837 86.9436 608.288C87.0434 640.074 93.0135 671.837 104.489 701.655" stroke="#005745" stroke-width="7" stroke-miterlimit="10"/>
<path d="M945.123 588.258C948.187 584.584 954.921 584.532 960.162 588.148C965.402 591.763 967.164 597.672 964.101 601.346C961.037 605.021 954.303 605.072 949.062 601.457C943.822 597.845 942.059 591.933 945.123 588.258Z" fill="url(#paint17_linear_693_40)"/>
<path d="M942.532 609.292C945.596 605.618 952.33 605.566 957.57 609.182C962.811 612.798 964.573 618.706 961.509 622.38C958.446 626.055 951.712 626.107 946.471 622.491C941.23 618.879 939.468 612.967 942.532 609.292Z" fill="url(#paint18_linear_693_40)"/>
<path d="M937.184 628.779C940.247 625.104 946.981 625.052 952.222 628.668C957.463 632.284 959.225 638.192 956.161 641.867C953.097 645.541 946.363 645.593 941.123 641.977C935.882 638.365 934.116 632.457 937.184 628.779Z" fill="url(#paint19_linear_693_40)"/>
<path d="M931.34 647.93C934.404 644.255 941.138 644.204 946.379 647.82C951.619 651.435 953.382 657.343 950.318 661.018C947.254 664.693 940.52 664.744 935.28 661.129C930.039 657.517 928.277 651.605 931.34 647.93Z" fill="url(#paint20_linear_693_40)"/>
<path d="M922.594 666.635C925.658 662.961 932.392 662.909 937.633 666.525C942.873 670.14 944.636 676.049 941.572 679.723C938.508 683.398 931.774 683.449 926.534 679.834C921.297 676.222 919.531 670.31 922.594 666.635Z" fill="url(#paint21_linear_693_40)"/>
<path d="M916.463 685.403C919.527 681.728 926.261 681.677 931.502 685.292C936.742 688.908 938.504 694.816 935.441 698.491C932.377 702.165 925.643 702.217 920.402 698.601C915.162 694.989 913.4 689.077 916.463 685.403Z" fill="url(#paint22_linear_693_40)"/>
<path d="M956.672 694.488C957.597 698.951 953.055 703.617 946.524 704.907C939.994 706.197 933.951 703.628 933.026 699.165C932.1 694.701 936.642 690.035 943.173 688.745C949.703 687.455 955.746 690.024 956.672 694.488Z" fill="url(#paint23_linear_693_40)"/>
<path d="M964.485 675.499C965.41 679.962 960.868 684.628 954.337 685.918C947.807 687.208 941.764 684.639 940.839 680.176C939.913 675.713 944.455 671.047 950.986 669.757C957.516 668.467 963.559 671.036 964.485 675.499Z" fill="url(#paint24_linear_693_40)"/>
<path d="M969.579 656.005C970.505 660.469 965.963 665.135 959.432 666.425C952.902 667.715 946.859 665.146 945.933 660.682C945.008 656.219 949.55 651.553 956.081 650.263C962.611 648.973 968.654 651.542 969.579 656.005Z" fill="url(#paint25_linear_693_40)"/>
<path d="M976.951 637.477C977.876 641.941 973.334 646.607 966.804 647.897C960.273 649.187 954.23 646.618 953.305 642.154C952.379 637.691 956.921 633.025 963.452 631.735C969.982 630.441 976.025 633.014 976.951 637.477Z" fill="url(#paint26_linear_693_40)"/>
<path d="M983.643 616.672C984.568 621.135 980.026 625.801 973.495 627.091C966.965 628.381 960.922 625.812 959.997 621.349C959.071 616.885 963.613 612.219 970.144 610.929C976.67 609.636 982.714 612.208 983.643 616.672Z" fill="url(#paint27_linear_693_40)"/>
<path d="M985.332 595.014C986.257 599.477 981.715 604.144 975.185 605.434C968.654 606.724 962.611 604.155 961.686 599.691C960.761 595.228 965.302 590.562 971.833 589.272C978.364 587.982 984.403 590.551 985.332 595.014Z" fill="url(#paint28_linear_693_40)"/>
<path d="M956.008 576.939C966.343 589.71 966.7 607.442 962.488 623.18C958.277 638.918 950.061 653.58 944.367 668.953C937.771 686.755 934.592 705.541 935.018 724.173" stroke="#005745" stroke-width="7" stroke-miterlimit="10"/>
<path d="M195.549 475.59C196.832 475.107 197.983 474.303 199.327 473.592C200.245 468.207 203.013 463.125 207.094 459.325C211.175 455.525 216.55 453.026 222.182 452.307C218.635 454.544 217.944 459.144 216.185 462.856C213.202 469.155 206.142 473.463 198.932 473.378" fill="url(#paint29_linear_693_40)"/>
<path d="M194.812 493.038C196.094 492.555 197.246 491.752 198.59 491.04C199.507 485.656 202.276 480.573 206.357 476.773C210.438 472.973 215.813 470.474 221.445 469.755C217.898 471.993 217.206 476.592 215.448 480.304C212.465 486.603 205.405 490.911 198.194 490.827" fill="url(#paint30_linear_693_40)"/>
<path d="M192.512 510.409C193.795 509.926 194.947 509.122 196.29 508.411C197.208 503.026 199.976 497.944 204.057 494.144C208.138 490.344 213.513 487.845 219.145 487.126C215.598 489.363 214.907 493.963 213.148 497.674C210.165 503.973 203.105 508.282 195.895 508.197" fill="url(#paint31_linear_693_40)"/>
<path d="M191.683 522.693C193.042 522.465 194.336 521.897 195.803 521.458C197.826 516.357 201.592 511.909 206.38 508.967C211.167 506.026 216.953 504.607 222.628 504.983C218.685 506.494 217.053 510.869 214.557 514.168C210.323 519.77 202.51 522.634 195.461 521.171" fill="url(#paint32_linear_693_40)"/>
<path d="M189.08 537.521C190.439 537.292 191.733 536.725 193.2 536.286C195.223 531.185 198.989 526.736 203.777 523.795C208.564 520.854 214.35 519.435 220.025 519.811C216.082 521.322 214.45 525.697 211.954 528.996C207.72 534.598 199.907 537.462 192.858 535.999" fill="url(#paint33_linear_693_40)"/>
<path d="M188.024 550.76C189.402 550.708 190.765 550.314 192.278 550.067C194.992 545.272 199.346 541.347 204.502 539.05C209.658 536.751 215.59 536.091 221.157 537.189C217.038 538.181 214.811 542.305 211.878 545.254C206.902 550.259 198.755 552.094 191.979 549.739" fill="url(#paint34_linear_693_40)"/>
<path d="M185.364 563.818C186.742 563.766 188.105 563.372 189.618 563.125C192.332 558.33 196.686 554.405 201.842 552.109C206.998 549.809 212.93 549.149 218.497 550.247C214.377 551.239 212.15 555.363 209.217 558.312C204.241 563.317 196.094 565.152 189.318 562.797" fill="url(#paint35_linear_693_40)"/>
<path d="M182.638 577.577C184.016 577.525 185.379 577.131 186.892 576.884C189.606 572.089 193.96 568.164 199.116 565.868C204.272 563.571 210.204 562.908 215.771 564.006C211.651 564.998 209.424 569.122 206.491 572.071C201.515 577.076 193.368 578.911 186.592 576.556" fill="url(#paint36_linear_693_40)"/>
<path d="M179.532 591.664C180.91 591.612 182.273 591.218 183.786 590.971C186.5 586.176 190.854 582.25 196.01 579.954C201.166 577.654 207.098 576.995 212.665 578.093C208.545 579.084 206.318 583.209 203.385 586.157C198.409 591.163 190.262 592.998 183.486 590.643" fill="url(#paint37_linear_693_40)"/>
<path d="M176.829 604.693C178.207 604.641 179.57 604.247 181.083 604C183.797 599.205 188.151 595.28 193.307 592.983C198.463 590.687 204.395 590.024 209.962 591.122C205.842 592.113 203.615 596.238 200.682 599.186C195.707 604.192 187.56 606.027 180.783 603.672" fill="url(#paint38_linear_693_40)"/>
<path d="M172.042 620.276C173.42 620.225 174.783 619.83 176.295 619.583C179.01 614.788 183.364 610.863 188.52 608.567C193.676 606.267 199.607 605.607 205.174 606.705C201.055 607.697 198.828 611.821 195.895 614.77C190.919 619.775 182.772 621.61 175.996 619.255" fill="url(#paint39_linear_693_40)"/>
<path d="M167.611 634.193C168.981 634.348 170.391 634.16 171.926 634.138C175.382 629.804 180.311 626.571 185.778 625.064C191.242 623.556 197.208 623.781 202.533 625.698C198.306 626.066 195.438 629.811 192.067 632.288C186.343 636.497 178 637.101 171.684 633.77" fill="url(#paint40_linear_693_40)"/>
<path d="M163.081 648.468C164.451 648.623 165.86 648.435 167.396 648.413C170.851 644.079 175.781 640.846 181.248 639.339C186.711 637.831 192.677 638.056 198.002 639.973C193.775 640.341 190.908 644.086 187.537 646.563C181.812 650.772 173.47 651.376 167.154 648.044" fill="url(#paint41_linear_693_40)"/>
<path d="M158.135 661.921C159.506 662.076 160.915 661.888 162.451 661.866C165.906 657.531 170.836 654.299 176.303 652.791C181.766 651.284 187.732 651.509 193.057 653.425C188.83 653.794 185.962 657.539 182.592 660.015C176.867 664.225 168.525 664.829 162.209 661.497" fill="url(#paint42_linear_693_40)"/>
<path d="M154.346 675.068C155.717 675.223 157.126 675.035 158.662 675.013C162.117 670.678 167.046 667.446 172.514 665.938C177.977 664.431 183.943 664.656 189.268 666.572C185.041 666.941 182.173 670.686 178.802 673.162C173.078 677.371 164.735 677.976 158.42 674.644" fill="url(#paint43_linear_693_40)"/>
<path d="M148.595 688.163C149.931 688.499 151.352 688.502 152.876 688.687C156.926 684.857 162.278 682.318 167.91 681.555C173.539 680.796 179.417 681.816 184.411 684.426C180.169 684.227 176.79 687.548 173.089 689.553C166.812 692.955 158.462 692.435 152.691 688.289" fill="url(#paint44_linear_693_40)"/>
<path d="M139.17 702.209C140.506 702.545 141.926 702.549 143.45 702.733C147.501 698.903 152.853 696.364 158.485 695.605C164.113 694.845 169.991 695.866 174.986 698.476C170.744 698.277 167.365 701.598 163.664 703.603C157.387 707.005 149.037 706.485 143.266 702.338" fill="url(#paint45_linear_693_40)"/>
<path d="M128.469 732.193C129.806 732.528 131.226 732.532 132.75 732.716C136.801 728.887 142.153 726.347 147.785 725.588C153.413 724.829 159.291 725.85 164.286 728.459C160.044 728.26 156.665 731.581 152.964 733.586C146.687 736.988 138.336 736.468 132.566 732.322" fill="url(#paint46_linear_693_40)"/>
<path d="M121.594 745.266C122.837 745.841 124.235 746.103 125.69 746.564C130.424 743.545 136.187 742.03 141.861 742.31C147.539 742.59 153.106 744.669 157.491 748.141C153.367 747.168 149.39 749.814 145.362 751.104C138.525 753.297 130.431 751.263 125.586 746.136" fill="url(#paint47_linear_693_40)"/>
<path d="M116.119 753.784C117.182 754.628 118.472 755.206 119.77 755.991C125.126 754.156 131.096 754.02 136.532 755.612C141.972 757.2 146.852 760.506 150.234 764.892C146.476 762.994 141.949 764.638 137.718 764.959C130.531 765.501 123.187 761.653 119.774 755.557" fill="url(#paint48_linear_693_40)"/>
<path d="M196.306 475.446C194.954 475.173 193.683 474.561 192.236 474.075C190.401 468.907 186.799 464.337 182.119 461.237C177.439 458.138 171.711 456.523 166.029 456.708C169.914 458.351 171.389 462.778 173.757 466.158C177.785 471.896 185.49 475.026 192.585 473.798" fill="url(#paint49_linear_693_40)"/>
<path d="M195.165 492.725C193.814 492.452 192.543 491.84 191.096 491.353C189.261 486.186 185.659 481.616 180.979 478.516C176.299 475.416 170.571 473.802 164.889 473.986C168.774 475.63 170.249 480.057 172.617 483.437C176.645 489.175 184.35 492.304 191.445 491.077" fill="url(#paint50_linear_693_40)"/>
<path d="M193.034 509.008C191.683 508.735 190.412 508.123 188.965 507.637C187.13 502.469 183.528 497.899 178.848 494.799C174.168 491.7 168.44 490.085 162.758 490.27C166.643 491.913 168.118 496.34 170.486 499.72C174.514 505.458 182.219 508.588 189.314 507.36" fill="url(#paint51_linear_693_40)"/>
<path d="M192.793 523.202C191.441 522.929 190.17 522.317 188.723 521.831C186.888 516.663 183.286 512.093 178.606 508.993C173.926 505.893 168.198 504.279 162.516 504.463C166.401 506.107 167.876 510.534 170.245 513.914C174.272 519.652 181.977 522.781 189.072 521.554" fill="url(#paint52_linear_693_40)"/>
<path d="M190.374 536.699C189.022 536.426 187.752 535.814 186.304 535.328C184.469 530.16 180.868 525.59 176.188 522.49C171.508 519.391 165.78 517.776 160.097 517.96C163.983 519.604 165.457 524.031 167.826 527.411C171.853 533.149 179.559 536.278 186.654 535.051" fill="url(#paint53_linear_693_40)"/>
<path d="M185.748 563.907C184.396 563.634 183.125 563.022 181.678 562.536C179.843 557.368 176.242 552.798 171.562 549.698C166.881 546.599 161.153 544.984 155.471 545.169C159.357 546.812 160.831 551.239 163.2 554.619C167.227 560.357 174.932 563.486 182.027 562.259" fill="url(#paint54_linear_693_40)"/>
<path d="M183.82 577.901C182.469 577.629 181.198 577.017 179.751 576.53C177.916 571.363 174.314 566.793 169.634 563.693C164.954 560.593 159.226 558.979 153.544 559.163C157.429 560.807 158.904 565.234 161.272 568.613C165.3 574.352 173.005 577.481 180.1 576.254" fill="url(#paint55_linear_693_40)"/>
<path d="M180.457 591.553C179.106 591.28 177.835 590.669 176.387 590.182C174.552 585.015 170.951 580.444 166.271 577.345C161.591 574.245 155.863 572.631 150.181 572.815C154.066 574.459 155.54 578.885 157.909 582.265C161.936 588.004 169.642 591.133 176.737 589.906" fill="url(#paint56_linear_693_40)"/>
<path d="M176.345 604.453C174.994 604.18 173.723 603.568 172.276 603.082C170.44 597.915 166.839 593.344 162.159 590.245C157.479 587.145 151.751 585.531 146.069 585.715C149.954 587.359 151.428 591.785 153.797 595.165C157.825 600.904 165.53 604.033 172.625 602.806" fill="url(#paint57_linear_693_40)"/>
<path d="M172.157 620.169C170.805 619.897 169.534 619.285 168.087 618.798C166.252 613.631 162.651 609.061 157.97 605.961C153.29 602.861 147.562 601.247 141.88 601.431C145.765 603.075 147.24 607.502 149.609 610.881C153.636 616.62 161.341 619.749 168.436 618.522" fill="url(#paint58_linear_693_40)"/>
<path d="M167.576 633.784C166.225 633.511 164.954 632.9 163.507 632.413C161.671 627.246 158.07 622.675 153.39 619.576C148.71 616.476 142.982 614.862 137.3 615.046C141.185 616.69 142.659 621.116 145.028 624.496C149.056 630.235 156.761 633.364 163.856 632.137" fill="url(#paint59_linear_693_40)"/>
<path d="M163.165 648.391C161.814 648.118 160.543 647.506 159.095 647.019C157.26 641.852 153.659 637.282 148.979 634.182C144.299 631.082 138.571 629.468 132.889 629.652C136.774 631.296 138.248 635.723 140.617 639.103C144.644 644.841 152.35 647.97 159.445 646.743" fill="url(#paint60_linear_693_40)"/>
<path d="M158.635 661.464C157.283 661.191 156.012 660.579 154.565 660.093C152.73 654.925 149.129 650.355 144.448 647.255C139.768 644.156 134.04 642.541 128.358 642.726C132.243 644.369 133.718 648.796 136.087 652.176C140.114 657.914 147.819 661.044 154.914 659.816" fill="url(#paint61_linear_693_40)"/>
<path d="M154.492 674.935C153.141 674.662 151.87 674.05 150.422 673.564C148.587 668.397 144.986 663.826 140.306 660.727C135.626 657.627 129.898 656.013 124.216 656.197C128.101 657.841 129.575 662.267 131.944 665.647C135.971 671.386 143.677 674.515 150.772 673.287" fill="url(#paint62_linear_693_40)"/>
<path d="M149.374 688.359C148.023 688.086 146.752 687.474 145.305 686.988C143.47 681.82 139.868 677.25 135.188 674.15C130.508 671.051 124.78 669.436 119.098 669.621C122.983 671.264 124.458 675.691 126.826 679.071C130.854 684.809 138.559 687.939 145.654 686.711" fill="url(#paint63_linear_693_40)"/>
<path d="M145.086 702.357C143.735 702.084 142.464 701.472 141.016 700.986C139.181 695.818 135.58 691.248 130.9 688.148C126.22 685.049 120.492 683.434 114.81 683.619C118.695 685.263 120.169 689.689 122.538 693.069C126.565 698.808 134.271 701.937 141.366 700.709" fill="url(#paint64_linear_693_40)"/>
<path d="M128.734 731.95C127.383 731.677 126.112 731.065 124.665 730.579C122.83 725.411 119.228 720.841 114.548 717.741C109.868 714.642 104.14 713.027 98.458 713.211C102.343 714.855 103.818 719.282 106.186 722.662C110.214 728.4 117.919 731.529 125.014 730.302" fill="url(#paint65_linear_693_40)"/>
<path d="M122.726 745.568C121.375 745.296 120.104 744.684 118.657 744.197C116.821 739.03 113.22 734.46 108.54 731.36C103.86 728.26 98.1318 726.646 92.4497 726.83C96.335 728.474 97.8093 732.9 100.178 736.28C104.206 742.019 111.911 745.148 119.006 743.921" fill="url(#paint66_linear_693_40)"/>
<path d="M122.726 745.568C121.375 745.296 120.104 744.684 118.657 744.197C116.821 739.03 113.22 734.46 108.54 731.36C103.86 728.26 98.1318 726.646 92.4497 726.83C96.335 728.474 97.8093 732.9 100.178 736.28C104.206 742.019 111.911 745.148 119.006 743.921" fill="url(#paint67_linear_693_40)"/>
<path d="M117.359 754.348C116.007 754.075 114.736 753.463 113.289 752.976C111.454 747.809 107.853 743.239 103.173 740.139C98.4926 737.039 92.7644 735.425 87.0823 735.609C90.9676 737.253 92.4419 741.68 94.8107 745.06C98.8381 750.798 106.543 753.927 113.638 752.7" fill="url(#paint68_linear_693_40)"/>
<path d="M188.305 550.55C186.953 550.277 185.682 549.665 184.235 549.179C182.4 544.011 178.799 539.441 174.118 536.341C169.438 533.242 163.71 531.627 158.028 531.812C161.913 533.455 163.388 537.882 165.757 541.262C169.784 547 177.489 550.13 184.584 548.902" fill="url(#paint69_linear_693_40)"/>
<path d="M80.4404 789.554C84.2298 792.31 89.8543 791.525 93.7627 788.931C97.671 786.336 100.247 782.311 102.666 778.382C164.812 677.423 197.407 559.904 195.787 442.643" stroke="#BF8600" stroke-width="5" stroke-miterlimit="10"/>
<path d="M277.637 718.01C201.965 719.986 126.627 733.361 56.8406 758.269C53.1626 773.561 54.4756 789.926 63.2867 803.765C290.61 768.453 520.766 749.943 748.392 750.603C827.765 754.653 907.138 758.704 986.507 762.755C987.486 751.34 988.469 739.929 989.448 728.514C761.096 656.392 509.359 654.273 279.725 722.543" fill="#0C7B47"/>
<path d="M149.597 745.347C118.703 727.339 86.2801 711.745 52.1221 699.221C50.118 689.14 52.9937 678.267 60.4764 668.861C109.999 687.412 157.56 710.779 202.195 738.488" fill="#0C7B47"/>
<path d="M58.2495 788.289C363.091 725.942 678.678 712.316 988.119 748.133C986.614 751.226 990.953 763.716 989.444 766.809C795.987 744.414 599.505 758.026 407.684 766.285C291.677 771.28 175.462 782.175 62.753 809.014" fill="#005645"/>
<path d="M77.6916 689.696C83.0964 689.696 87.4778 688.294 87.4778 686.564C87.4778 684.833 83.0964 683.431 77.6916 683.431C72.2867 683.431 67.9053 684.833 67.9053 686.564C67.9053 688.294 72.2867 689.696 77.6916 689.696Z" fill="#006849"/>
<path d="M82.5867 768.825C87.3151 768.825 91.1483 767.774 91.1483 766.477C91.1483 765.181 87.3151 764.129 82.5867 764.129C77.8583 764.129 74.0251 765.181 74.0251 766.477C74.0251 767.774 77.8583 768.825 82.5867 768.825Z" fill="#006849"/>
<path d="M111.569 703.463C116.298 703.463 120.131 702.412 120.131 701.115C120.131 699.818 116.298 698.767 111.569 698.767C106.841 698.767 103.008 699.818 103.008 701.115C103.008 702.412 106.841 703.463 111.569 703.463Z" fill="#006849"/>
<path d="M142.967 720.686C147.695 720.686 151.528 719.635 151.528 718.338C151.528 717.041 147.695 715.99 142.967 715.99C138.238 715.99 134.405 717.041 134.405 718.338C134.405 719.635 138.238 720.686 142.967 720.686Z" fill="#006849"/>
<path d="M128.696 760.617C133.425 760.617 137.258 759.566 137.258 758.269C137.258 756.973 133.425 755.921 128.696 755.921C123.968 755.921 120.135 756.973 120.135 758.269C120.135 759.566 123.968 760.617 128.696 760.617Z" fill="#006849"/>
<path d="M172.326 752.788C177.054 752.788 180.887 751.737 180.887 750.441C180.887 749.144 177.054 748.093 172.326 748.093C167.597 748.093 163.764 749.144 163.764 750.441C163.764 751.737 167.597 752.788 172.326 752.788Z" fill="#006849"/>
<path d="M218.404 742.999C223.133 742.999 226.966 741.948 226.966 740.652C226.966 739.355 223.133 738.304 218.404 738.304C213.676 738.304 209.843 739.355 209.843 740.652C209.843 741.948 213.676 742.999 218.404 742.999Z" fill="#006849"/>
<path d="M275.084 736.018C279.812 736.018 283.645 734.967 283.645 733.671C283.645 732.374 279.812 731.323 275.084 731.323C270.355 731.323 266.522 732.374 266.522 733.671C266.522 734.967 270.355 736.018 275.084 736.018Z" fill="#006849"/>
<path d="M405.976 723.037C410.704 723.037 414.537 721.986 414.537 720.69C414.537 719.393 410.704 718.342 405.976 718.342C401.247 718.342 397.414 719.393 397.414 720.69C397.414 721.986 401.247 723.037 405.976 723.037Z" fill="#006849"/>
<path d="M452.054 723.037C456.783 723.037 460.616 721.986 460.616 720.69C460.616 719.393 456.783 718.342 452.054 718.342C447.326 718.342 443.493 719.393 443.493 720.69C443.493 721.986 447.326 723.037 452.054 723.037Z" fill="#006849"/>
<path d="M503.934 721.873C508.663 721.873 512.496 720.822 512.496 719.525C512.496 718.228 508.663 717.177 503.934 717.177C499.206 717.177 495.373 718.228 495.373 719.525C495.373 720.822 499.206 721.873 503.934 721.873Z" fill="#006849"/>
<path d="M551.161 721.873C555.89 721.873 559.723 720.822 559.723 719.525C559.723 718.228 555.89 717.177 551.161 717.177C546.433 717.177 542.6 718.228 542.6 719.525C542.6 720.822 546.433 721.873 551.161 721.873Z" fill="#006849"/>
<path d="M606.159 720.686C610.887 720.686 614.72 719.635 614.72 718.338C614.72 717.041 610.887 715.99 606.159 715.99C601.43 715.99 597.597 717.041 597.597 718.338C597.597 719.635 601.43 720.686 606.159 720.686Z" fill="#006849"/>
<path d="M657.958 720.686C662.686 720.686 666.519 719.635 666.519 718.338C666.519 717.041 662.686 715.99 657.958 715.99C653.229 715.99 649.396 717.041 649.396 718.338C649.396 719.635 653.229 720.686 657.958 720.686Z" fill="#006849"/>
<path d="M771.546 714.317C776.275 714.317 780.108 713.266 780.108 711.969C780.108 710.673 776.275 709.622 771.546 709.622C766.818 709.622 762.985 710.673 762.985 711.969C762.985 713.266 766.818 714.317 771.546 714.317Z" fill="#006849"/>
<path d="M821.764 714.317C826.492 714.317 830.325 713.266 830.325 711.969C830.325 710.673 826.492 709.622 821.764 709.622C817.035 709.622 813.202 710.673 813.202 711.969C813.202 713.266 817.035 714.317 821.764 714.317Z" fill="#006849"/>
<path d="M864.986 719.521C869.715 719.521 873.548 718.47 873.548 717.174C873.548 715.877 869.715 714.826 864.986 714.826C860.258 714.826 856.425 715.877 856.425 717.174C856.425 718.47 860.258 719.521 864.986 719.521Z" fill="#006849"/>
<path d="M915.549 725.385C920.278 725.385 924.111 724.334 924.111 723.037C924.111 721.741 920.278 720.689 915.549 720.689C910.821 720.689 906.988 721.741 906.988 723.037C906.988 724.334 910.821 725.385 915.549 725.385Z" fill="#006849"/>
<path d="M959.59 733.667C964.318 733.667 968.151 732.616 968.151 731.319C968.151 730.023 964.318 728.972 959.59 728.972C954.861 728.972 951.028 730.023 951.028 731.319C951.028 732.616 954.861 733.667 959.59 733.667Z" fill="#006849"/>
<path d="M134.305 736.73C133.146 730.335 127.015 726.041 121.309 722.562C99.1645 709.047 75.9063 697.215 51.8264 687.212C50.9933 690.858 51.239 694.724 52.9897 698.421C79.9682 711.162 106.947 723.907 133.925 736.649" fill="#005745"/>
<path d="M415.728 598.92C397.484 541.073 368.175 486.458 329.69 438.621C308.244 411.962 280.067 385.58 244.992 384.426C226.226 383.811 205.01 390.065 190.202 378.99C179.909 371.29 176.784 357.48 177.624 344.982C178.461 332.48 182.504 320.346 183.548 307.859C185.195 288.2 178.565 267.298 163.127 254.287C147.69 241.273 122.984 238.1 106.183 249.459C98.5355 254.63 93.0147 262.178 85.9658 268.076C78.9131 273.973 69.0039 278.259 60.2926 274.994C46.1987 269.712 45.1966 249.588 32.5962 241.553C25.6279 237.108 15.665 237.58 9.18051 242.655C2.69599 247.73 0.215826 257.007 3.34867 264.453" stroke="#007A45" stroke-width="4" stroke-miterlimit="10"/>
<path d="M1019.58 259.122C976.548 274.487 935.922 299.171 900.339 331.583C880.508 349.644 860.884 373.375 860.026 402.915C859.568 418.72 864.22 436.588 855.982 449.059C850.254 457.728 839.982 460.36 830.685 459.652C821.385 458.947 812.36 455.542 803.071 454.663C788.447 453.275 772.899 458.86 763.221 471.861C753.541 484.863 751.18 505.67 759.63 519.819C763.476 526.26 769.091 530.91 773.478 536.846C777.864 542.786 781.053 551.132 778.624 558.468C774.695 570.338 759.726 571.182 753.749 581.794C750.443 587.663 750.793 596.053 754.569 601.515C758.344 606.976 765.245 609.065 770.783 606.426" stroke="#007A45" stroke-width="6" stroke-miterlimit="10"/>
<path d="M517.072 514.783C470.775 518.012 424.12 521.296 379.396 533.238C334.673 545.179 291.473 566.512 261.45 600.502C246.416 617.523 234.648 638.627 235.259 660.937C236.034 689.261 257.611 714.733 284.747 725.875C311.883 737.017 343.353 735.351 371.338 726.351C391.187 719.967 409.93 710.034 430.554 706.588C443.616 704.406 456.98 704.911 470.222 705.423C550.808 708.534 631.398 711.648 711.984 714.759C726.301 715.312 741.063 715.802 754.488 710.992C767.914 706.182 779.797 694.668 776.48 681.079C788.036 676.074 801.27 676.608 813.69 674.165C826.11 671.721 839.352 664.32 841.014 652.253C842.008 645.033 838.415 637.753 833.067 632.59C827.719 627.426 820.781 624.076 813.794 621.234C794.252 613.284 773.259 608.625 749.048 609.403C741.65 577.599 720.357 548.998 691.405 531.984C662.454 514.971 626.238 509.771 593.37 517.912" fill="#FF9F1C"/>
<path d="M255.519 617.07C261.78 602.99 256.025 584.96 242.619 576.67C241.256 575.83 239.781 575.034 238.906 573.726C238.031 572.417 238.042 570.401 239.401 569.557C240.165 569.082 241.144 569.089 242.054 569.152C256.97 570.154 270.231 582.306 271.97 596.562C270.714 586.368 272.945 575.804 278.239 566.881C277.318 573.287 278.166 579.918 280.677 585.914C284.885 582.199 286.682 576.154 285.154 570.865C283.626 565.576 278.838 561.29 273.237 560.188C276.028 557.132 281.23 556.849 284.874 558.92C288.517 560.991 290.694 564.92 291.439 568.923C292.184 572.926 291.673 577.039 291.009 581.056C289.135 571.455 295.017 560.973 304.4 557.191C301.229 562.06 300.73 568.44 303.114 573.707C310.04 572.299 314.854 564.714 312.985 558.161C311.115 551.608 302.945 547.439 296.238 549.614C300.941 543.418 311.779 543.599 317.193 549.234C322.606 554.869 322.556 564.154 318.175 570.563C322.498 562.289 329.359 555.249 337.675 550.557C334.554 556.355 332.607 562.735 332.104 569.41C332.596 569.082 333.087 568.75 333.582 568.422" fill="#FF9F1C"/>
<path d="M776.99 683.096C766.471 656.208 757.921 628.086 732.186 613.436C725.099 609.4 716.818 606.591 708.125 604.605C695.306 601.674 681.581 600.528 669.453 599.88C591.412 595.693 512.964 596.879 435.338 605.648C510.814 607.914 586.294 610.181 661.77 612.444C682.433 613.063 703.614 613.786 722.742 621.312C749.524 631.849 766.221 660.731 776.914 683.435" fill="#F58F00"/>
<path d="M355.589 730.195C380.467 719.938 402.14 702.641 417.186 681.031C432.232 659.422 440.59 633.581 440.947 607.59C446.964 630.677 452.768 656.068 441.85 677.438C436.628 687.655 427.986 695.911 418.645 702.921C398.666 717.914 374.747 728.028 349.734 732.064" fill="#F58F00"/>
<path d="M728.424 611.899C746.576 609.51 765.089 608.578 783.187 611.32C801.285 614.062 819.023 620.641 833.009 632.004C838.288 636.294 843.383 642.63 841.356 648.977C830.771 633.221 811.843 623.936 792.578 620.855C773.316 617.777 753.571 620.221 734.375 623.675" fill="#F58F00"/>
<path d="M349.745 720.185C397.358 709.62 428.596 670.491 419.518 632.787C410.44 595.084 364.484 573.083 316.872 583.648C269.259 594.213 238.021 633.343 247.099 671.046C256.177 708.75 302.133 730.75 349.745 720.185Z" fill="#FFBF69"/>
<path d="M292.019 667.887C313.973 654.575 327.283 636.963 321.748 628.549C316.212 620.135 293.927 624.105 271.973 637.416C250.018 650.727 236.709 668.339 242.244 676.754C247.78 685.168 270.065 681.198 292.019 667.887Z" fill="#FF9F1C"/>
<path d="M435.27 640.815C436.976 630.999 417.596 619.714 391.983 615.611C366.37 611.508 344.224 616.14 342.518 625.957C340.811 635.773 360.191 647.057 385.804 651.16C411.417 655.263 433.564 650.632 435.27 640.815Z" fill="#FF9F1C"/>
<path d="M339.397 668.649C352.154 666.52 361.712 660.464 360.745 655.124C359.777 649.783 348.651 647.18 335.894 649.31C323.136 651.439 313.579 657.495 314.546 662.835C315.513 668.176 326.639 670.779 339.397 668.649Z" fill="#382914"/>
<path d="M368.873 625.783C372.367 631.551 378.517 635.767 385.332 637.068C392.146 638.369 399.514 636.733 405.039 632.69" stroke="#211C1C" stroke-width="2" stroke-miterlimit="10"/>
<path d="M300.258 640.488C298.376 646.909 293.52 652.471 287.262 655.368C281.004 658.264 273.444 658.449 267.04 655.861" stroke="#211C1C" stroke-width="2" stroke-miterlimit="10"/>
<path d="M295.32 682.919C295.278 687.021 298.925 690.227 302.523 692.446C316.912 701.321 335.602 703.448 351.754 698.048C367.905 692.649 381.178 679.841 386.714 664.306" stroke="#211C1C" stroke-width="2" stroke-miterlimit="10"/>
<path d="M761.964 675.517C767.296 678.466 774.211 678.93 779.966 676.73C780.511 676.524 781.125 676.181 781.129 675.646C781.129 675.171 780.638 674.832 780.185 674.592C774.718 671.714 767.404 672.016 762.248 675.329" fill="black"/>
<path d="M824.962 667.096C830.295 670.044 837.209 670.509 842.964 668.308C843.509 668.102 844.124 667.759 844.127 667.225C844.127 666.749 843.636 666.41 843.183 666.17C837.716 663.292 830.402 663.594 825.246 666.908" fill="black"/>
<path d="M824.962 658.456C830.295 661.405 837.209 661.869 842.964 659.669C843.509 659.463 844.124 659.12 844.127 658.585C844.127 658.11 843.636 657.771 843.183 657.531C837.716 654.653 830.402 654.955 825.246 658.268" fill="black"/>
<path d="M824.962 649.132C830.295 652.08 837.209 652.545 842.964 650.344C843.509 650.138 844.124 649.795 844.127 649.261C844.127 648.785 843.636 648.446 843.183 648.207C837.716 645.328 830.402 645.63 825.246 648.944" fill="black"/>
<path d="M761.964 686.324C767.296 689.273 774.211 689.737 779.966 687.537C780.511 687.33 781.125 686.988 781.129 686.453C781.129 685.978 780.638 685.639 780.185 685.399C774.718 682.52 767.404 682.823 762.248 686.136" fill="black"/>
<path d="M761.964 696.677C767.296 699.626 774.211 700.09 779.966 697.89C780.511 697.683 781.125 697.341 781.129 696.806C781.129 696.331 780.638 695.992 780.185 695.752C774.718 692.873 767.404 693.176 762.248 696.489" fill="black"/>
<path d="M400.385 529.902C410.867 538.236 423.064 546.584 436.49 551.003C521.503 578.966 617.788 573.806 699.026 536.935C683.754 522.557 662.273 516.103 641.269 512.211C561.07 497.354 478.537 513.011 398.493 528.638" fill="#F58F00"/>
<path d="M466.006 353.862C465.899 405.838 430.57 456.162 380.429 475.767C372.105 479.021 363.314 481.561 356.054 486.647C348.793 491.733 343.223 500.218 344.866 508.702C346.39 516.582 353.915 522.49 362.035 524.348C370.155 526.206 378.72 524.658 386.645 522.133C401.292 517.467 414.764 509.432 425.345 499.584C417.048 499.536 410.41 507.7 410.606 515.661C410.801 523.622 416.411 530.739 423.379 535.066C430.343 539.389 438.563 541.387 446.641 543.197C463.879 547.056 481.609 550.388 499.189 548.423C516.773 546.459 534.43 538.413 540.791 525.586C583.027 546.289 635.583 546.33 677.853 525.69C684.806 522.295 691.801 518.075 695.514 511.485C699.226 504.895 700.781 500.748 695.752 491.586C695.752 503.435 720.15 506.767 731.319 498.85C742.487 490.933 743.301 472.803 732.885 463.994C724.811 457.169 713.163 456.516 702.566 454.736C674.52 450.026 648.548 434.748 631.444 412.896C614.34 391.043 606.281 362.844 609.376 335.669" fill="#2EC4B6"/>
<path d="M608.927 343.195C591.158 360.725 565.508 369.603 540.069 370.945C514.63 372.287 489.272 366.659 465.238 358.539C468.886 378.081 486.608 393.671 506.71 398.341C526.812 403.011 548.504 397.825 565.977 387.203C583.449 376.581 597.082 360.942 608.044 344.102" fill="#1DAB9D"/>
<path d="M455.775 257.628C460.854 253.364 463.695 246.759 463.234 240.294C462.774 233.833 459.019 227.66 453.383 224.099C456.93 221.497 462.313 222.083 465.791 224.77C469.27 227.457 471.024 231.795 471.374 236.07C471.723 240.346 470.821 244.614 469.826 248.793C474.03 244.89 476.173 239.037 475.436 233.468C478.726 236.494 479.037 242.019 476.104 245.366C477.566 239.163 479.712 233.033 483.318 227.696C486.923 222.363 492.09 217.848 498.344 215.744C492.19 220.646 489.483 229.193 491.756 236.553C491.898 237.018 492.086 237.508 492.509 237.773C493.1 238.142 493.883 237.917 494.528 237.644C500.425 235.13 504.476 229.06 504.384 222.864C504.291 216.669 500.064 210.709 494.094 208.357C500.894 206.909 507.839 212.261 509.597 218.729C511.356 225.197 508.948 232.138 505.098 237.707C508.864 228.518 517.744 221.438 527.842 219.569C520.612 223.719 514.654 229.875 510.872 237.099C514.066 232.241 519.115 228.537 524.835 226.849C521.357 229.13 518.535 232.326 516.761 235.997C524.885 235.153 531.996 228.625 533.232 220.87C535.489 226.145 532.871 232.878 527.569 235.447C533.339 234.014 537.824 228.725 538.115 223.012C538.407 217.295 534.476 211.616 528.878 209.647C535.931 208.896 543.245 213.064 545.936 219.367C548.627 225.669 546.466 233.568 540.891 237.784C546.27 231.19 554.643 226.93 563.347 226.366C559.803 225.787 556.271 227.965 554.294 230.844C552.317 233.723 551.576 237.202 550.873 240.585C555.269 239.288 559.577 237.231 562.514 233.837C565.451 230.442 566.764 225.511 564.894 221.479C563.025 217.446 557.507 215.062 553.465 217.163C557.799 215.331 563.14 216.422 566.741 219.378C570.342 222.334 572.269 226.9 572.469 231.445C572.669 235.989 571.26 240.497 569.075 244.533" fill="#2EC4B6"/>
<path d="M409.519 510.254C432.609 491.501 450.684 467.105 461.557 440.011L409.519 510.254Z" fill="#1DAB9D"/>
<path d="M698.57 496.971C673.588 487.126 651.846 469.84 637.115 448.113L698.57 496.971Z" fill="#1DAB9D"/>
<path d="M430.958 487.915C458.182 475.615 491.057 475.468 518.397 487.531C524.578 490.259 530.586 493.657 535.094 498.548C539.601 503.439 542.457 510.025 541.571 516.501C532.644 499.985 514.254 489.71 495.35 485.615C476.441 481.52 456.78 482.769 437.442 484.037" fill="#1DAB9D"/>
<path d="M542.273 516.884C547.606 500.848 560.859 487.808 576.673 480.532C592.487 473.256 610.635 471.425 628.046 473.415C645.457 475.405 662.227 481.059 678.172 488.305C654.257 484.103 629.92 479.883 605.767 482.567C581.618 485.253 557.242 495.92 544.201 515.616" fill="#1DAB9D"/>
<path d="M525.484 376.551C580.883 376.551 625.792 344.653 625.792 305.306C625.792 265.958 580.883 234.061 525.484 234.061C470.085 234.061 425.176 265.958 425.176 305.306C425.176 344.653 470.085 376.551 525.484 376.551Z" fill="#2EC4B6"/>
<path d="M525.895 366.762C575.439 366.762 615.603 338.721 615.603 304.13C615.603 269.54 575.439 241.499 525.895 241.499C476.35 241.499 436.187 269.54 436.187 304.13C436.187 338.721 476.35 366.762 525.895 366.762Z" fill="#CBF3F0"/>
<path d="M477.121 323.854C498.72 316.858 513.31 302.879 509.709 292.632C506.107 282.385 485.678 279.749 464.079 286.746C442.479 293.742 427.889 307.721 431.491 317.968C435.093 328.215 455.522 330.851 477.121 323.854Z" fill="#2EC4B6"/>
<path d="M620.49 317.987C624.091 307.74 609.501 293.761 587.902 286.764C566.303 279.768 545.873 282.403 542.272 292.65C538.67 302.898 553.26 316.876 574.859 323.873C596.459 330.869 616.888 328.234 620.49 317.987Z" fill="#2EC4B6"/>
<path d="M527.469 331.264C541.207 331.264 552.344 326.444 552.344 320.498C552.344 314.553 541.207 309.732 527.469 309.732C513.731 309.732 502.594 314.553 502.594 320.498C502.594 326.444 513.731 331.264 527.469 331.264Z" fill="#0E3632"/>
<path d="M566.814 296.542C569.743 302.851 575.387 307.956 582.125 310.389C588.863 312.821 596.61 312.549 603.145 309.652" stroke="black" stroke-width="2" stroke-miterlimit="10"/>
<path d="M452.392 308.542C458.865 311.564 466.605 311.988 473.393 309.688C480.181 307.388 485.932 302.398 488.996 296.147" stroke="black" stroke-width="2" stroke-miterlimit="10"/>
<path d="M487.165 337.534C498.379 347.968 513.648 353.858 528.598 353.511C543.548 353.168 557.984 346.597 567.774 335.68" stroke="black" stroke-width="2" stroke-miterlimit="10"/>
<path d="M523.008 508.625C527.139 511.05 532.495 511.433 536.956 509.624C537.378 509.454 537.854 509.174 537.858 508.732C537.858 508.341 537.478 508.061 537.125 507.866C532.89 505.499 527.219 505.746 523.227 508.474" fill="black"/>
<path d="M523.008 518.628C527.139 521.053 532.495 521.436 536.956 519.627C537.378 519.457 537.854 519.177 537.858 518.735C537.858 518.344 537.478 518.064 537.125 517.869C532.89 515.502 527.219 515.749 523.227 518.477" fill="black"/>
<path d="M523.008 530.341C527.139 532.766 532.495 533.15 536.956 531.34C537.378 531.17 537.854 530.89 537.858 530.448C537.858 530.057 537.478 529.777 537.125 529.582C532.89 527.216 527.219 527.463 523.227 530.19" fill="black"/>
<path d="M548.8 529.335C552.931 531.76 558.291 532.143 562.748 530.334C563.17 530.164 563.647 529.884 563.65 529.442C563.65 529.051 563.27 528.771 562.917 528.576C558.682 526.209 553.012 526.456 549.019 529.184" fill="black"/>
<path d="M548.8 519.811C552.931 522.236 558.291 522.619 562.748 520.81C563.17 520.64 563.647 520.36 563.65 519.918C563.65 519.527 563.27 519.247 562.917 519.052C558.682 516.685 553.012 516.932 549.019 519.66" fill="black"/>
<path d="M547.909 508.625C552.04 511.05 557.396 511.433 561.857 509.624C562.279 509.454 562.756 509.174 562.759 508.732C562.759 508.341 562.379 508.061 562.026 507.866C557.791 505.499 552.121 505.746 548.128 508.474" fill="black"/>
<path d="M722.281 492.161C726.412 494.586 731.768 494.969 736.229 493.16C736.651 492.99 737.127 492.71 737.131 492.268C737.131 491.877 736.751 491.597 736.398 491.402C732.163 489.035 726.492 489.282 722.5 492.01" fill="black"/>
<path d="M348.517 516.372C352.648 518.797 358.008 519.18 362.465 517.371C362.887 517.201 363.363 516.921 363.367 516.479C363.367 516.088 362.987 515.808 362.634 515.613C358.399 513.246 352.729 513.493 348.736 516.221" fill="black"/>
<path d="M719.655 479.22C725.621 480.61 732.827 479.699 738.417 476.85C738.947 476.581 739.527 476.19 739.446 475.759C739.373 475.376 738.809 475.192 738.302 475.085C732.205 473.776 724.707 475.383 719.912 479.021" fill="black"/>
<path d="M719.954 481.708C724.769 485.368 731.71 487.436 738.03 487.093C738.629 487.06 739.327 486.942 739.439 486.514C739.538 486.135 739.108 485.744 738.694 485.442C733.726 481.808 726.216 480.252 720.277 481.631" fill="black"/>
<path d="M364.596 504.346C358.461 504.571 351.784 507.331 347.216 511.533C346.782 511.931 346.333 512.458 346.536 512.852C346.717 513.202 347.308 513.232 347.826 513.202C354.061 512.867 360.822 509.362 364.404 504.607" fill="black"/>
<path d="M365.54 502.422C360.227 499.469 353.043 498.386 346.843 499.602C346.256 499.716 345.584 499.934 345.538 500.369C345.495 500.756 345.983 501.084 346.436 501.327C351.899 504.235 359.563 504.733 365.233 502.543" fill="black"/>
<defs>
<linearGradient id="paint0_linear_693_40" x1="371.432" y1="424.771" x2="466.945" y2="424.771" gradientUnits="userSpaceOnUse">
<stop stop-color="#0C7A45"/>
<stop offset="1" stop-color="#ABDA4B"/>
</linearGradient>
<linearGradient id="paint1_linear_693_40" x1="161.091" y1="411.316" x2="356.435" y2="534.974" gradientUnits="userSpaceOnUse">
<stop stop-color="#087944"/>
<stop offset="1" stop-color="#ABDA4B"/>
</linearGradient>
<linearGradient id="paint2_linear_693_40" x1="258.772" y1="425.233" x2="429.674" y2="425.233" gradientUnits="userSpaceOnUse">
<stop stop-color="#007A45"/>
<stop offset="1" stop-color="#ABDA4B"/>
</linearGradient>
<linearGradient id="paint3_linear_693_40" x1="216.654" y1="600.423" x2="349.889" y2="585.586" gradientUnits="userSpaceOnUse">
<stop stop-color="#047944"/>
<stop offset="0.1069" stop-color="#1F8945"/>
<stop offset="0.3233" stop-color="#51A647"/>
<stop offset="0.5278" stop-color="#78BC49"/>
<stop offset="0.7149" stop-color="#94CD4A"/>
<stop offset="0.8782" stop-color="#A5D74B"/>
<stop offset="1" stop-color="#ABDA4B"/>
</linearGradient>
<linearGradient id="paint4_linear_693_40" x1="436.989" y1="479.383" x2="544.474" y2="479.383" gradientUnits="userSpaceOnUse">
<stop stop-color="#017A44"/>
<stop offset="1" stop-color="#ABDA4B"/>
</linearGradient>
<linearGradient id="paint5_linear_693_40" x1="41.2614" y1="477.95" x2="77.978" y2="491.021" gradientUnits="userSpaceOnUse">
<stop stop-color="#87CC3E"/>
<stop offset="1" stop-color="#168A45"/>
</linearGradient>
<linearGradient id="paint6_linear_693_40" x1="49.4487" y1="513.057" x2="86.1653" y2="526.128" gradientUnits="userSpaceOnUse">
<stop stop-color="#87CC3E"/>
<stop offset="1" stop-color="#168A45"/>
</linearGradient>
<linearGradient id="paint7_linear_693_40" x1="52.4569" y1="546.975" x2="89.1735" y2="560.045" gradientUnits="userSpaceOnUse">
<stop stop-color="#87CC3E"/>
<stop offset="1" stop-color="#168A45"/>
</linearGradient>
<linearGradient id="paint8_linear_693_40" x1="54.5076" y1="580.577" x2="91.2242" y2="593.648" gradientUnits="userSpaceOnUse">
<stop stop-color="#87CC3E"/>
<stop offset="1" stop-color="#168A45"/>
</linearGradient>
<linearGradient id="paint9_linear_693_40" x1="51.795" y1="614.831" x2="88.5116" y2="627.902" gradientUnits="userSpaceOnUse">
<stop stop-color="#87CC3E"/>
<stop offset="1" stop-color="#168A45"/>
</linearGradient>
<linearGradient id="paint10_linear_693_40" x1="53.1722" y1="647.956" x2="89.8888" y2="661.027" gradientUnits="userSpaceOnUse">
<stop stop-color="#87CC3E"/>
<stop offset="1" stop-color="#168A45"/>
</linearGradient>
<linearGradient id="paint11_linear_693_40" x1="120.813" y1="643.619" x2="87.5376" y2="663.46" gradientUnits="userSpaceOnUse">
<stop stop-color="#87CC3E"/>
<stop offset="1" stop-color="#168A45"/>
</linearGradient>
<linearGradient id="paint12_linear_693_40" x1="121.915" y1="609.343" x2="88.6395" y2="629.184" gradientUnits="userSpaceOnUse">
<stop stop-color="#87CC3E"/>
<stop offset="1" stop-color="#168A45"/>
</linearGradient>
<linearGradient id="paint13_linear_693_40" x1="118.506" y1="575.543" x2="85.23" y2="595.384" gradientUnits="userSpaceOnUse">
<stop stop-color="#87CC3E"/>
<stop offset="1" stop-color="#168A45"/>
</linearGradient>
<linearGradient id="paint14_linear_693_40" x1="119.19" y1="542.216" x2="85.9146" y2="562.057" gradientUnits="userSpaceOnUse">
<stop stop-color="#87CC3E"/>
<stop offset="1" stop-color="#168A45"/>
</linearGradient>
<linearGradient id="paint15_linear_693_40" x1="117.494" y1="505.546" x2="84.2179" y2="525.387" gradientUnits="userSpaceOnUse">
<stop stop-color="#87CC3E"/>
<stop offset="1" stop-color="#168A45"/>
</linearGradient>
<linearGradient id="paint16_linear_693_40" x1="107.545" y1="469.862" x2="74.2697" y2="489.703" gradientUnits="userSpaceOnUse">
<stop stop-color="#87CC3E"/>
<stop offset="1" stop-color="#168A45"/>
</linearGradient>
<linearGradient id="paint17_linear_693_40" x1="945.338" y1="588.005" x2="963.388" y2="602.273" gradientUnits="userSpaceOnUse">
<stop stop-color="#87CC3E"/>
<stop offset="1" stop-color="#168A45"/>
</linearGradient>
<linearGradient id="paint18_linear_693_40" x1="942.747" y1="609.038" x2="960.798" y2="623.306" gradientUnits="userSpaceOnUse">
<stop stop-color="#87CC3E"/>
<stop offset="1" stop-color="#168A45"/>
</linearGradient>
<linearGradient id="paint19_linear_693_40" x1="937.397" y1="628.526" x2="955.448" y2="642.794" gradientUnits="userSpaceOnUse">
<stop stop-color="#87CC3E"/>
<stop offset="1" stop-color="#168A45"/>
</linearGradient>
<linearGradient id="paint20_linear_693_40" x1="931.557" y1="647.677" x2="949.607" y2="661.945" gradientUnits="userSpaceOnUse">
<stop stop-color="#87CC3E"/>
<stop offset="1" stop-color="#168A45"/>
</linearGradient>
<linearGradient id="paint21_linear_693_40" x1="922.813" y1="666.382" x2="940.863" y2="680.65" gradientUnits="userSpaceOnUse">
<stop stop-color="#87CC3E"/>
<stop offset="1" stop-color="#168A45"/>
</linearGradient>
<linearGradient id="paint22_linear_693_40" x1="916.681" y1="685.15" x2="934.731" y2="699.418" gradientUnits="userSpaceOnUse">
<stop stop-color="#87CC3E"/>
<stop offset="1" stop-color="#168A45"/>
</linearGradient>
<linearGradient id="paint23_linear_693_40" x1="956.661" y1="694.528" x2="933.079" y2="699.508" gradientUnits="userSpaceOnUse">
<stop stop-color="#87CC3E"/>
<stop offset="1" stop-color="#168A45"/>
</linearGradient>
<linearGradient id="paint24_linear_693_40" x1="964.475" y1="675.535" x2="940.893" y2="680.515" gradientUnits="userSpaceOnUse">
<stop stop-color="#87CC3E"/>
<stop offset="1" stop-color="#168A45"/>
</linearGradient>
<linearGradient id="paint25_linear_693_40" x1="969.568" y1="656.044" x2="945.986" y2="661.024" gradientUnits="userSpaceOnUse">
<stop stop-color="#87CC3E"/>
<stop offset="1" stop-color="#168A45"/>
</linearGradient>
<linearGradient id="paint26_linear_693_40" x1="976.941" y1="637.512" x2="953.359" y2="642.492" gradientUnits="userSpaceOnUse">
<stop stop-color="#87CC3E"/>
<stop offset="1" stop-color="#168A45"/>
</linearGradient>
<linearGradient id="paint27_linear_693_40" x1="983.631" y1="616.706" x2="960.048" y2="621.686" gradientUnits="userSpaceOnUse">
<stop stop-color="#87CC3E"/>
<stop offset="1" stop-color="#168A45"/>
</linearGradient>
<linearGradient id="paint28_linear_693_40" x1="985.319" y1="595.049" x2="961.737" y2="600.029" gradientUnits="userSpaceOnUse">
<stop stop-color="#87CC3E"/>
<stop offset="1" stop-color="#168A45"/>
</linearGradient>
<linearGradient id="paint29_linear_693_40" x1="221.051" y1="452.91" x2="201.985" y2="472.664" gradientUnits="userSpaceOnUse">
<stop stop-color="#FBB509"/>
<stop offset="0.4984" stop-color="#F9B309"/>
<stop offset="0.6778" stop-color="#F2AE09"/>
<stop offset="0.8058" stop-color="#E7A508"/>
<stop offset="0.9085" stop-color="#D69707"/>
<stop offset="0.9961" stop-color="#C08606"/>
<stop offset="1" stop-color="#BF8506"/>
</linearGradient>
<linearGradient id="paint30_linear_693_40" x1="220.314" y1="470.358" x2="201.247" y2="490.112" gradientUnits="userSpaceOnUse">
<stop stop-color="#FBB509"/>
<stop offset="0.4984" stop-color="#F9B309"/>
<stop offset="0.6778" stop-color="#F2AE09"/>
<stop offset="0.8058" stop-color="#E7A508"/>
<stop offset="0.9085" stop-color="#D69707"/>
<stop offset="0.9961" stop-color="#C08606"/>
<stop offset="1" stop-color="#BF8506"/>
</linearGradient>
<linearGradient id="paint31_linear_693_40" x1="218.013" y1="487.728" x2="198.947" y2="507.482" gradientUnits="userSpaceOnUse">
<stop stop-color="#FBB509"/>
<stop offset="0.4984" stop-color="#F9B309"/>
<stop offset="0.6778" stop-color="#F2AE09"/>
<stop offset="0.8058" stop-color="#E7A508"/>
<stop offset="0.9085" stop-color="#D69707"/>
<stop offset="0.9961" stop-color="#C08606"/>
<stop offset="1" stop-color="#BF8506"/>
</linearGradient>
<linearGradient id="paint32_linear_693_40" x1="221.412" y1="505.336" x2="198.578" y2="520.976" gradientUnits="userSpaceOnUse">
<stop stop-color="#FBB509"/>
<stop offset="0.4984" stop-color="#F9B309"/>
<stop offset="0.6778" stop-color="#F2AE09"/>
<stop offset="0.8058" stop-color="#E7A508"/>
<stop offset="0.9085" stop-color="#D69707"/>
<stop offset="0.9961" stop-color="#C08606"/>
<stop offset="1" stop-color="#BF8506"/>
</linearGradient>
<linearGradient id="paint33_linear_693_40" x1="218.811" y1="520.165" x2="195.978" y2="535.805" gradientUnits="userSpaceOnUse">
<stop stop-color="#FBB509"/>
<stop offset="0.4984" stop-color="#F9B309"/>
<stop offset="0.6778" stop-color="#F2AE09"/>
<stop offset="0.8058" stop-color="#E7A508"/>
<stop offset="0.9085" stop-color="#D69707"/>
<stop offset="0.9961" stop-color="#C08606"/>
<stop offset="1" stop-color="#BF8506"/>
</linearGradient>
<linearGradient id="paint34_linear_693_40" x1="219.849" y1="537.397" x2="194.974" y2="549.826" gradientUnits="userSpaceOnUse">
<stop stop-color="#FBB509"/>
<stop offset="0.4984" stop-color="#F9B309"/>
<stop offset="0.6778" stop-color="#F2AE09"/>
<stop offset="0.8058" stop-color="#E7A508"/>
<stop offset="0.9085" stop-color="#D69707"/>
<stop offset="0.9961" stop-color="#C08606"/>
<stop offset="1" stop-color="#BF8506"/>
</linearGradient>
<linearGradient id="paint35_linear_693_40" x1="217.184" y1="550.456" x2="192.309" y2="562.885" gradientUnits="userSpaceOnUse">
<stop stop-color="#FBB509"/>
<stop offset="0.4984" stop-color="#F9B309"/>
<stop offset="0.6778" stop-color="#F2AE09"/>
<stop offset="0.8058" stop-color="#E7A508"/>
<stop offset="0.9085" stop-color="#D69707"/>
<stop offset="0.9961" stop-color="#C08606"/>
<stop offset="1" stop-color="#BF8506"/>
</linearGradient>
<linearGradient id="paint36_linear_693_40" x1="214.459" y1="564.217" x2="189.584" y2="576.646" gradientUnits="userSpaceOnUse">
<stop stop-color="#FBB509"/>
<stop offset="0.4984" stop-color="#F9B309"/>
<stop offset="0.6778" stop-color="#F2AE09"/>
<stop offset="0.8058" stop-color="#E7A508"/>
<stop offset="0.9085" stop-color="#D69707"/>
<stop offset="0.9961" stop-color="#C08606"/>
<stop offset="1" stop-color="#BF8506"/>
</linearGradient>
<linearGradient id="paint37_linear_693_40" x1="211.352" y1="578.302" x2="186.477" y2="590.731" gradientUnits="userSpaceOnUse">
<stop stop-color="#FBB509"/>
<stop offset="0.4984" stop-color="#F9B309"/>
<stop offset="0.6778" stop-color="#F2AE09"/>
<stop offset="0.8058" stop-color="#E7A508"/>
<stop offset="0.9085" stop-color="#D69707"/>
<stop offset="0.9961" stop-color="#C08606"/>
<stop offset="1" stop-color="#BF8506"/>
</linearGradient>
<linearGradient id="paint38_linear_693_40" x1="208.651" y1="591.331" x2="183.776" y2="603.76" gradientUnits="userSpaceOnUse">
<stop stop-color="#FBB509"/>
<stop offset="0.4984" stop-color="#F9B309"/>
<stop offset="0.6778" stop-color="#F2AE09"/>
<stop offset="0.8058" stop-color="#E7A508"/>
<stop offset="0.9085" stop-color="#D69707"/>
<stop offset="0.9961" stop-color="#C08606"/>
<stop offset="1" stop-color="#BF8506"/>
</linearGradient>
<linearGradient id="paint39_linear_693_40" x1="203.861" y1="606.912" x2="178.986" y2="619.341" gradientUnits="userSpaceOnUse">
<stop stop-color="#FBB509"/>
<stop offset="0.4984" stop-color="#F9B309"/>
<stop offset="0.6778" stop-color="#F2AE09"/>
<stop offset="0.8058" stop-color="#E7A508"/>
<stop offset="0.9085" stop-color="#D69707"/>
<stop offset="0.9961" stop-color="#C08606"/>
<stop offset="1" stop-color="#BF8506"/>
</linearGradient>
<linearGradient id="paint40_linear_693_40" x1="201.229" y1="625.708" x2="174.576" y2="634.059" gradientUnits="userSpaceOnUse">
<stop stop-color="#FBB509"/>
<stop offset="0.4984" stop-color="#F9B309"/>
<stop offset="0.6778" stop-color="#F2AE09"/>
<stop offset="0.8058" stop-color="#E7A508"/>
<stop offset="0.9085" stop-color="#D69707"/>
<stop offset="0.9961" stop-color="#C08606"/>
<stop offset="1" stop-color="#BF8506"/>
</linearGradient>
<linearGradient id="paint41_linear_693_40" x1="196.697" y1="639.986" x2="170.044" y2="648.337" gradientUnits="userSpaceOnUse">
<stop stop-color="#FBB509"/>
<stop offset="0.4984" stop-color="#F9B309"/>
<stop offset="0.6778" stop-color="#F2AE09"/>
<stop offset="0.8058" stop-color="#E7A508"/>
<stop offset="0.9085" stop-color="#D69707"/>
<stop offset="0.9961" stop-color="#C08606"/>
<stop offset="1" stop-color="#BF8506"/>
</linearGradient>
<linearGradient id="paint42_linear_693_40" x1="191.751" y1="653.439" x2="165.099" y2="661.79" gradientUnits="userSpaceOnUse">
<stop stop-color="#FBB509"/>
<stop offset="0.4984" stop-color="#F9B309"/>
<stop offset="0.6778" stop-color="#F2AE09"/>
<stop offset="0.8058" stop-color="#E7A508"/>
<stop offset="0.9085" stop-color="#D69707"/>
<stop offset="0.9961" stop-color="#C08606"/>
<stop offset="1" stop-color="#BF8506"/>
</linearGradient>
<linearGradient id="paint43_linear_693_40" x1="187.961" y1="666.583" x2="161.309" y2="674.934" gradientUnits="userSpaceOnUse">
<stop stop-color="#FBB509"/>
<stop offset="0.4984" stop-color="#F9B309"/>
<stop offset="0.6778" stop-color="#F2AE09"/>
<stop offset="0.8058" stop-color="#E7A508"/>
<stop offset="0.9085" stop-color="#D69707"/>
<stop offset="0.9961" stop-color="#C08606"/>
<stop offset="1" stop-color="#BF8506"/>
</linearGradient>
<linearGradient id="paint44_linear_693_40" x1="183.092" y1="684.26" x2="155.442" y2="688.679" gradientUnits="userSpaceOnUse">
<stop stop-color="#FBB509"/>
<stop offset="0.4984" stop-color="#F9B309"/>
<stop offset="0.6778" stop-color="#F2AE09"/>
<stop offset="0.8058" stop-color="#E7A508"/>
<stop offset="0.9085" stop-color="#D69707"/>
<stop offset="0.9961" stop-color="#C08606"/>
<stop offset="1" stop-color="#BF8506"/>
</linearGradient>
<linearGradient id="paint45_linear_693_40" x1="173.665" y1="698.308" x2="146.015" y2="702.727" gradientUnits="userSpaceOnUse">
<stop stop-color="#FBB509"/>
<stop offset="0.4984" stop-color="#F9B309"/>
<stop offset="0.6778" stop-color="#F2AE09"/>
<stop offset="0.8058" stop-color="#E7A508"/>
<stop offset="0.9085" stop-color="#D69707"/>
<stop offset="0.9961" stop-color="#C08606"/>
<stop offset="1" stop-color="#BF8506"/>
</linearGradient>
<linearGradient id="paint46_linear_693_40" x1="162.962" y1="728.289" x2="135.313" y2="732.708" gradientUnits="userSpaceOnUse">
<stop stop-color="#FBB509"/>
<stop offset="0.4984" stop-color="#F9B309"/>
<stop offset="0.6778" stop-color="#F2AE09"/>
<stop offset="0.8058" stop-color="#E7A508"/>
<stop offset="0.9085" stop-color="#D69707"/>
<stop offset="0.9961" stop-color="#C08606"/>
<stop offset="1" stop-color="#BF8506"/>
</linearGradient>
<linearGradient id="paint47_linear_693_40" x1="156.238" y1="747.751" x2="128.234" y2="746.606" gradientUnits="userSpaceOnUse">
<stop stop-color="#FBB509"/>
<stop offset="0.4984" stop-color="#F9B309"/>
<stop offset="0.6778" stop-color="#F2AE09"/>
<stop offset="0.8058" stop-color="#E7A508"/>
<stop offset="0.9085" stop-color="#D69707"/>
<stop offset="0.9961" stop-color="#C08606"/>
<stop offset="1" stop-color="#BF8506"/>
</linearGradient>
<linearGradient id="paint48_linear_693_40" x1="149.132" y1="764.225" x2="122.395" y2="756.129" gradientUnits="userSpaceOnUse">
<stop stop-color="#FBB509"/>
<stop offset="0.4984" stop-color="#F9B309"/>
<stop offset="0.6778" stop-color="#F2AE09"/>
<stop offset="0.8058" stop-color="#E7A508"/>
<stop offset="0.9085" stop-color="#D69707"/>
<stop offset="0.9961" stop-color="#C08606"/>
<stop offset="1" stop-color="#BF8506"/>
</linearGradient>
<linearGradient id="paint49_linear_693_40" x1="167.277" y1="457.082" x2="189.51" y2="473.499" gradientUnits="userSpaceOnUse">
<stop stop-color="#FBB509"/>
<stop offset="0.4984" stop-color="#F9B309"/>
<stop offset="0.6778" stop-color="#F2AE09"/>
<stop offset="0.8058" stop-color="#E7A508"/>
<stop offset="0.9085" stop-color="#D69707"/>
<stop offset="0.9961" stop-color="#C08606"/>
<stop offset="1" stop-color="#BF8506"/>
</linearGradient>
<linearGradient id="paint50_linear_693_40" x1="166.136" y1="474.361" x2="188.368" y2="490.779" gradientUnits="userSpaceOnUse">
<stop stop-color="#FBB509"/>
<stop offset="0.4984" stop-color="#F9B309"/>
<stop offset="0.6778" stop-color="#F2AE09"/>
<stop offset="0.8058" stop-color="#E7A508"/>
<stop offset="0.9085" stop-color="#D69707"/>
<stop offset="0.9961" stop-color="#C08606"/>
<stop offset="1" stop-color="#BF8506"/>
</linearGradient>
<linearGradient id="paint51_linear_693_40" x1="164.004" y1="490.644" x2="186.237" y2="507.062" gradientUnits="userSpaceOnUse">
<stop stop-color="#FBB509"/>
<stop offset="0.4984" stop-color="#F9B309"/>
<stop offset="0.6778" stop-color="#F2AE09"/>
<stop offset="0.8058" stop-color="#E7A508"/>
<stop offset="0.9085" stop-color="#D69707"/>
<stop offset="0.9961" stop-color="#C08606"/>
<stop offset="1" stop-color="#BF8506"/>
</linearGradient>
<linearGradient id="paint52_linear_693_40" x1="163.763" y1="504.836" x2="185.995" y2="521.254" gradientUnits="userSpaceOnUse">
<stop stop-color="#FBB509"/>
<stop offset="0.4984" stop-color="#F9B309"/>
<stop offset="0.6778" stop-color="#F2AE09"/>
<stop offset="0.8058" stop-color="#E7A508"/>
<stop offset="0.9085" stop-color="#D69707"/>
<stop offset="0.9961" stop-color="#C08606"/>
<stop offset="1" stop-color="#BF8506"/>
</linearGradient>
<linearGradient id="paint53_linear_693_40" x1="161.343" y1="518.333" x2="183.576" y2="534.751" gradientUnits="userSpaceOnUse">
<stop stop-color="#FBB509"/>
<stop offset="0.4984" stop-color="#F9B309"/>
<stop offset="0.6778" stop-color="#F2AE09"/>
<stop offset="0.8058" stop-color="#E7A508"/>
<stop offset="0.9085" stop-color="#D69707"/>
<stop offset="0.9961" stop-color="#C08606"/>
<stop offset="1" stop-color="#BF8506"/>
</linearGradient>
<linearGradient id="paint54_linear_693_40" x1="156.717" y1="545.541" x2="178.95" y2="561.959" gradientUnits="userSpaceOnUse">
<stop stop-color="#FBB509"/>
<stop offset="0.4984" stop-color="#F9B309"/>
<stop offset="0.6778" stop-color="#F2AE09"/>
<stop offset="0.8058" stop-color="#E7A508"/>
<stop offset="0.9085" stop-color="#D69707"/>
<stop offset="0.9961" stop-color="#C08606"/>
<stop offset="1" stop-color="#BF8506"/>
</linearGradient>
<linearGradient id="paint55_linear_693_40" x1="154.79" y1="559.534" x2="177.023" y2="575.951" gradientUnits="userSpaceOnUse">
<stop stop-color="#FBB509"/>
<stop offset="0.4984" stop-color="#F9B309"/>
<stop offset="0.6778" stop-color="#F2AE09"/>
<stop offset="0.8058" stop-color="#E7A508"/>
<stop offset="0.9085" stop-color="#D69707"/>
<stop offset="0.9961" stop-color="#C08606"/>
<stop offset="1" stop-color="#BF8506"/>
</linearGradient>
<linearGradient id="paint56_linear_693_40" x1="151.425" y1="573.185" x2="173.657" y2="589.603" gradientUnits="userSpaceOnUse">
<stop stop-color="#FBB509"/>
<stop offset="0.4984" stop-color="#F9B309"/>
<stop offset="0.6778" stop-color="#F2AE09"/>
<stop offset="0.8058" stop-color="#E7A508"/>
<stop offset="0.9085" stop-color="#D69707"/>
<stop offset="0.9961" stop-color="#C08606"/>
<stop offset="1" stop-color="#BF8506"/>
</linearGradient>
<linearGradient id="paint57_linear_693_40" x1="147.314" y1="586.088" x2="169.547" y2="602.506" gradientUnits="userSpaceOnUse">
<stop stop-color="#FBB509"/>
<stop offset="0.4984" stop-color="#F9B309"/>
<stop offset="0.6778" stop-color="#F2AE09"/>
<stop offset="0.8058" stop-color="#E7A508"/>
<stop offset="0.9085" stop-color="#D69707"/>
<stop offset="0.9961" stop-color="#C08606"/>
<stop offset="1" stop-color="#BF8506"/>
</linearGradient>
<linearGradient id="paint58_linear_693_40" x1="143.125" y1="601.802" x2="165.357" y2="618.22" gradientUnits="userSpaceOnUse">
<stop stop-color="#FBB509"/>
<stop offset="0.4984" stop-color="#F9B309"/>
<stop offset="0.6778" stop-color="#F2AE09"/>
<stop offset="0.8058" stop-color="#E7A508"/>
<stop offset="0.9085" stop-color="#D69707"/>
<stop offset="0.9961" stop-color="#C08606"/>
<stop offset="1" stop-color="#BF8506"/>
</linearGradient>
<linearGradient id="paint59_linear_693_40" x1="138.546" y1="615.416" x2="160.778" y2="631.834" gradientUnits="userSpaceOnUse">
<stop stop-color="#FBB509"/>
<stop offset="0.4984" stop-color="#F9B309"/>
<stop offset="0.6778" stop-color="#F2AE09"/>
<stop offset="0.8058" stop-color="#E7A508"/>
<stop offset="0.9085" stop-color="#D69707"/>
<stop offset="0.9961" stop-color="#C08606"/>
<stop offset="1" stop-color="#BF8506"/>
</linearGradient>
<linearGradient id="paint60_linear_693_40" x1="134.134" y1="630.024" x2="156.366" y2="646.442" gradientUnits="userSpaceOnUse">
<stop stop-color="#FBB509"/>
<stop offset="0.4984" stop-color="#F9B309"/>
<stop offset="0.6778" stop-color="#F2AE09"/>
<stop offset="0.8058" stop-color="#E7A508"/>
<stop offset="0.9085" stop-color="#D69707"/>
<stop offset="0.9961" stop-color="#C08606"/>
<stop offset="1" stop-color="#BF8506"/>
</linearGradient>
<linearGradient id="paint61_linear_693_40" x1="129.602" y1="643.097" x2="151.835" y2="659.515" gradientUnits="userSpaceOnUse">
<stop stop-color="#FBB509"/>
<stop offset="0.4984" stop-color="#F9B309"/>
<stop offset="0.6778" stop-color="#F2AE09"/>
<stop offset="0.8058" stop-color="#E7A508"/>
<stop offset="0.9085" stop-color="#D69707"/>
<stop offset="0.9961" stop-color="#C08606"/>
<stop offset="1" stop-color="#BF8506"/>
</linearGradient>
<linearGradient id="paint62_linear_693_40" x1="125.458" y1="656.566" x2="147.691" y2="672.983" gradientUnits="userSpaceOnUse">
<stop stop-color="#FBB509"/>
<stop offset="0.4984" stop-color="#F9B309"/>
<stop offset="0.6778" stop-color="#F2AE09"/>
<stop offset="0.8058" stop-color="#E7A508"/>
<stop offset="0.9085" stop-color="#D69707"/>
<stop offset="0.9961" stop-color="#C08606"/>
<stop offset="1" stop-color="#BF8506"/>
</linearGradient>
<linearGradient id="paint63_linear_693_40" x1="120.342" y1="669.993" x2="142.574" y2="686.41" gradientUnits="userSpaceOnUse">
<stop stop-color="#FBB509"/>
<stop offset="0.4984" stop-color="#F9B309"/>
<stop offset="0.6778" stop-color="#F2AE09"/>
<stop offset="0.8058" stop-color="#E7A508"/>
<stop offset="0.9085" stop-color="#D69707"/>
<stop offset="0.9961" stop-color="#C08606"/>
<stop offset="1" stop-color="#BF8506"/>
</linearGradient>
<linearGradient id="paint64_linear_693_40" x1="116.053" y1="683.989" x2="138.285" y2="700.407" gradientUnits="userSpaceOnUse">
<stop stop-color="#FBB509"/>
<stop offset="0.4984" stop-color="#F9B309"/>
<stop offset="0.6778" stop-color="#F2AE09"/>
<stop offset="0.8058" stop-color="#E7A508"/>
<stop offset="0.9085" stop-color="#D69707"/>
<stop offset="0.9961" stop-color="#C08606"/>
<stop offset="1" stop-color="#BF8506"/>
</linearGradient>
<linearGradient id="paint65_linear_693_40" x1="99.7005" y1="713.58" x2="121.933" y2="729.997" gradientUnits="userSpaceOnUse">
<stop stop-color="#FBB509"/>
<stop offset="0.4984" stop-color="#F9B309"/>
<stop offset="0.6778" stop-color="#F2AE09"/>
<stop offset="0.8058" stop-color="#E7A508"/>
<stop offset="0.9085" stop-color="#D69707"/>
<stop offset="0.9961" stop-color="#C08606"/>
<stop offset="1" stop-color="#BF8506"/>
</linearGradient>
<linearGradient id="paint66_linear_693_40" x1="93.6923" y1="727.201" x2="115.925" y2="743.618" gradientUnits="userSpaceOnUse">
<stop stop-color="#FBB509"/>
<stop offset="0.4984" stop-color="#F9B309"/>
<stop offset="0.6778" stop-color="#F2AE09"/>
<stop offset="0.8058" stop-color="#E7A508"/>
<stop offset="0.9085" stop-color="#D69707"/>
<stop offset="0.9961" stop-color="#C08606"/>
<stop offset="1" stop-color="#BF8506"/>
</linearGradient>
<linearGradient id="paint67_linear_693_40" x1="93.6923" y1="727.201" x2="115.925" y2="743.618" gradientUnits="userSpaceOnUse">
<stop stop-color="#FBB509"/>
<stop offset="0.4984" stop-color="#F9B309"/>
<stop offset="0.6778" stop-color="#F2AE09"/>
<stop offset="0.8058" stop-color="#E7A508"/>
<stop offset="0.9085" stop-color="#D69707"/>
<stop offset="0.9961" stop-color="#C08606"/>
<stop offset="1" stop-color="#BF8506"/>
</linearGradient>
<linearGradient id="paint68_linear_693_40" x1="88.3257" y1="735.978" x2="110.558" y2="752.396" gradientUnits="userSpaceOnUse">
<stop stop-color="#FBB509"/>
<stop offset="0.4984" stop-color="#F9B309"/>
<stop offset="0.6778" stop-color="#F2AE09"/>
<stop offset="0.8058" stop-color="#E7A508"/>
<stop offset="0.9085" stop-color="#D69707"/>
<stop offset="0.9961" stop-color="#C08606"/>
<stop offset="1" stop-color="#BF8506"/>
</linearGradient>
<linearGradient id="paint69_linear_693_40" x1="159.276" y1="532.185" x2="181.509" y2="548.603" gradientUnits="userSpaceOnUse">
<stop stop-color="#FBB509"/>
<stop offset="0.4984" stop-color="#F9B309"/>
<stop offset="0.6778" stop-color="#F2AE09"/>
<stop offset="0.8058" stop-color="#E7A508"/>
<stop offset="0.9085" stop-color="#D69707"/>
<stop offset="0.9961" stop-color="#C08606"/>
<stop offset="1" stop-color="#BF8506"/>
</linearGradient>
</defs>
</svg>
