<svg width="62" height="61" viewBox="0 0 62 61" fill="none" xmlns="http://www.w3.org/2000/svg">
<path d="M30.9299 61C23.4075 61.0132 16.1619 58.1344 10.6638 52.9478C4.74239 47.4103 1.3228 39.8534 1.02107 31.6742C0.861337 27.6754 1.48428 23.6841 2.85419 19.9289C4.22411 16.1738 6.31407 12.7286 9.00431 9.79094C11.6642 6.8583 14.8719 4.4859 18.4427 2.81021C22.0135 1.13452 25.8771 0.18861 29.8111 0.0269004C33.7451 -0.134809 37.672 0.490871 41.3658 1.86795C45.0595 3.24502 48.4474 5.34631 51.3343 8.05094C57.2557 13.5884 60.6753 21.1453 60.9771 29.3245C61.1368 33.3233 60.5139 37.3147 59.1439 41.0698C57.774 44.8249 55.6841 48.2701 52.9938 51.2078C50.3307 54.1533 47.1139 56.5338 43.5309 58.2106C39.9479 59.8874 36.0704 60.827 32.1243 60.9746C31.7157 61 31.3197 61 30.9299 61ZM31.0431 3.2882C30.6911 3.2882 30.339 3.3009 29.987 3.3136C15.24 3.88513 3.69891 16.5604 4.25208 31.5599C4.37035 35.1434 5.1926 38.6674 6.67102 41.9271C8.14944 45.1867 10.2545 48.1169 12.8639 50.5473C17.7677 55.1664 24.2252 57.7313 30.9299 57.7232C31.2819 57.7232 31.634 57.7105 31.986 57.6978C46.733 57.1136 58.2741 44.451 57.7209 29.4516C57.6026 25.868 56.7804 22.344 55.302 19.0844C53.8235 15.8247 51.7185 12.8945 49.1091 10.4641C44.2052 5.84501 37.7478 3.28008 31.0431 3.2882V3.2882Z" fill="white"/>
<path d="M30.9806 53.1765C29.8333 53.1734 28.6872 53.1013 27.5484 52.9606C21.7653 52.2112 16.573 49.6711 12.9272 45.772C9.28127 41.8729 7.14403 36.6021 6.95545 30.9503C6.76687 25.2985 8.55209 19.9008 11.9465 15.7476C15.341 11.5945 20.3447 8.69877 26.0649 7.55572C31.7852 6.41266 37.5558 7.1493 42.3331 9.63863L40.8496 12.5471C32.3258 8.10185 20.4829 10.4769 14.4609 17.8306C8.47666 25.1334 8.85382 36.6529 15.2907 43.5113C21.7779 50.4331 33.7464 51.9572 41.9685 46.9278L43.6532 49.7346C39.957 51.9953 35.5568 53.1765 30.9806 53.1765Z" fill="white"/>
<path d="M36.1475 25.5511C36.1475 26.4783 35.8835 27.2403 35.3555 27.8245C34.6012 28.6755 33.432 29.0946 31.8856 29.0946H26.7437V16.6226H31.521C33.8343 16.6226 34.9909 17.7021 34.9909 19.8739C35.0094 20.444 34.8793 21.009 34.6137 21.5123C34.3718 21.9085 34.0344 22.2362 33.6331 22.4649C34.6263 22.6681 35.2926 23.0745 35.6572 23.6587C35.9906 24.2316 36.1603 24.8867 36.1475 25.5511ZM32.0239 20.3058C32.0239 19.7342 31.7725 19.3659 31.2696 19.1881C31.0328 19.1192 30.7866 19.0892 30.5404 19.0992H29.9558V21.5377H30.5467C31.0999 21.5377 31.5022 21.398 31.741 21.1313C31.9316 20.9 32.0321 20.6065 32.0239 20.3058V20.3058ZM32.9417 25.3352C32.9417 24.6113 32.5645 24.1795 31.8353 24.0524C31.4346 24.0085 31.0314 23.9916 30.6284 24.0016H29.9621V26.6307H30.6787C31.4959 26.6307 32.0742 26.5291 32.4011 26.3386C32.5738 26.2377 32.7156 26.0907 32.811 25.9137C32.9064 25.7367 32.9516 25.5365 32.9417 25.3352V25.3352Z" fill="white"/>
<path d="M37.5682 37.5954C37.548 38.8862 37.1423 40.1407 36.4043 41.1946C35.6662 42.2484 34.6302 43.0524 33.432 43.5012C32.8065 43.7267 32.1474 43.8427 31.4833 43.8441H26.7437V31.3721H31.4833C32.628 31.3712 33.7475 31.7114 34.7017 32.35C35.66 32.9783 36.433 33.8558 36.9396 34.8901C37.3487 35.7324 37.5636 36.6573 37.5682 37.5954V37.5954ZM34.224 37.5954C34.2414 36.7861 33.989 35.9943 33.5074 35.3474C32.8788 34.4964 31.9359 34.0773 30.6787 34.0773H29.9558V41.1262H30.685C31.9422 41.1262 32.8851 40.7071 33.5137 39.8561C33.9937 39.2035 34.2458 38.4083 34.2303 37.5954H34.224Z" fill="white"/>
</svg>
