<svg width="250" height="100" viewBox="0 0 134 38" fill="none" xmlns="http://www.w3.org/2000/svg">
<path d="M8.75018 15.765V26.2051C8.75018 30.6077 5.28243 34.2551 1.00799 34.2551C0.564238 34.2551 0.44326 34.2551 0 34.2551V37.735C0.443756 37.735 0.564733 37.735 1.00799 37.735C7.13728 37.735 12.0974 32.5776 12.0974 26.2046V15.765C12.0974 11.3624 15.5652 7.71496 19.8396 7.71496C20.2834 7.71496 20.4044 7.71496 20.8476 7.71496V4.23511C20.4039 4.23511 20.2829 4.23511 19.8396 4.23511C13.7103 4.23459 8.75018 9.39198 8.75018 15.765Z" fill="black"/>
<path d="M27.9044 0H24.5576V33.207H41.3728V29.7267H27.9044V0Z" fill="black"/>
<path d="M55.2452 9.43372C49.1159 9.43372 44.1558 14.5906 44.1558 20.9641C44.1558 27.3372 49.1159 32.4946 55.2452 32.4946C61.3745 32.4946 66.3346 27.3372 66.3346 20.9641C66.3342 14.5906 61.3745 9.43372 55.2452 9.43372ZM55.2452 29.0142C50.9708 29.0142 47.503 25.4503 47.503 21.0059C47.503 16.5615 50.9708 12.9136 55.2452 12.9136C59.5196 12.9136 62.9874 16.5615 62.9874 21.0059C62.9874 25.4503 59.5196 29.0142 55.2452 29.0142Z" fill="black"/>
<path d="M77.7862 0H74.4394V8.76303H69.3989V12.2429H74.4394V20.9642C74.4394 27.3372 79.3996 32.4946 85.5288 32.4946C85.9726 32.4946 86.0931 32.4946 86.5368 32.4946V29.0147C86.0931 29.0147 85.9721 29.0147 85.5288 29.0147C81.2544 29.0147 77.7867 25.3668 77.7867 20.9647V12.2429H86.5368V8.76303H77.7867V0H77.7862Z" fill="black"/>
<path d="M110.852 17.4838H97.3839V0H94.0371V33.207H97.3839V20.9642H110.852V33.207H114.199V8.76303H110.852V17.4838Z" fill="black"/>
<path d="M120.137 26.7149C120.841 26.7149 121.327 26.9624 121.971 27.6532L122.546 27.0964C122.219 26.7252 122.041 26.5603 121.773 26.385C121.297 26.086 120.712 25.921 120.117 25.921C118.292 25.921 116.954 27.4264 116.954 29.4885C116.954 30.4474 117.281 31.3857 117.836 32.0352C118.401 32.6951 119.185 33.0457 120.107 33.0457C121.128 33.0457 121.862 32.6951 122.527 31.8806L121.971 31.3032C121.456 31.9528 120.9 32.2518 120.176 32.2518C118.808 32.2518 117.806 31.0867 117.806 29.4885C117.806 27.88 118.788 26.7149 120.137 26.7149Z" fill="black"/>
<path d="M127.267 29.7566C127.059 29.5917 126.88 29.5195 126.513 29.437C126.87 29.2927 127.029 29.1896 127.188 28.9937C127.435 28.705 127.564 28.3131 127.564 27.8698C127.564 26.7047 126.801 26.0448 125.452 26.0448H123.588V32.922H125.452C126.285 32.922 126.712 32.8292 127.098 32.5715C127.545 32.2724 127.812 31.7157 127.812 31.0764C127.812 30.5196 127.624 30.0556 127.267 29.7566ZM124.421 26.7562H125.105C125.71 26.7562 125.988 26.7975 126.226 26.9212C126.543 27.0759 126.751 27.4677 126.751 27.911C126.751 28.2925 126.602 28.6431 126.345 28.8596C126.107 29.0555 125.789 29.1277 125.264 29.1277L124.421 29.138V26.7562ZM126.503 31.9941C126.216 32.1693 125.948 32.2209 125.254 32.2209H124.421V29.8391H125.462C126.513 29.8391 126.979 30.2 126.979 31.0249C126.979 31.4785 126.821 31.8085 126.503 31.9941Z" fill="black"/>
<path d="M130.807 26.0448H129.052V32.922H130.658C131.62 32.922 132.384 32.6642 132.959 32.1281C133.633 31.4991 134 30.5403 134 29.3751C134 27.3027 132.8 26.0448 130.807 26.0448ZM132.255 31.6641C131.779 32.0559 131.303 32.1796 130.182 32.1796H129.885V26.7769H130.777C132.294 26.7769 133.147 27.7254 133.147 29.3855C133.147 30.4062 132.85 31.1692 132.255 31.6641Z" fill="black"/>
<path d="M55.1835 26.7433L55.0611 13.7565C53.3971 17.8586 53.4427 22.6757 55.1835 26.7433Z" fill="black"/>
<path d="M55.1836 13.7579L55.4969 26.7411C57.1004 22.6132 56.9844 17.7977 55.1836 13.7579Z" fill="black"/>
<path d="M55.9775 26.9279L60.841 17.8591C58.1224 20.0223 56.3187 23.3862 55.9775 26.9279Z" fill="black"/>
<path d="M60.9259 17.9106L56.1963 27.0557C58.8826 24.8497 60.6368 21.4575 60.9259 17.9106Z" fill="black"/>
<path d="M56.6221 27.3712L61.0869 23.9904C59.2395 24.4208 57.5835 25.6751 56.6221 27.3712Z" fill="black"/>
<path d="M61.1179 24.0367L56.7031 27.4882C58.5441 27.0284 60.1813 25.7478 61.1179 24.0367Z" fill="black"/>
<path d="M49.6104 23.9904L54.0752 27.3712C53.1143 25.6751 51.4583 24.4208 49.6104 23.9904Z" fill="black"/>
<path d="M53.9939 27.4882L49.5791 24.0367C50.5152 25.7478 52.1529 27.0284 53.9939 27.4882Z" fill="black"/>
<path d="M49.7974 17.8591L54.6608 26.9279C54.3197 23.3862 52.5159 20.0223 49.7974 17.8591Z" fill="black"/>
<path d="M54.443 27.0557L49.7134 17.9106C50.0019 21.4575 51.7561 24.8497 54.443 27.0557Z" fill="black"/>
</svg>
