<svg width="1728" height="955" viewBox="0 0 1728 955" fill="none" xmlns="http://www.w3.org/2000/svg">
<path d="M-353 755.583C-273.013 637.982 -129.245 566.505 50.0833 544.499C229.412 522.493 431.42 589.708 497.458 711.726C524.638 761.946 536.276 825.076 603.071 849.446C656.026 868.777 724.268 851.898 763.004 819.511C801.74 787.124 816.027 743.062 820.176 700.421C824.555 655.407 819.865 607.745 849.1 567.828C878.335 527.902 960.146 503.862 1004.44 535.792C1032.15 555.765 1032.82 587.918 1025.37 615.626C1017.93 643.333 1004.13 671.05 1009.33 699.021C1014.53 726.991 1048.45 755.146 1086.97 749.892C1113.01 746.341 1131 729.374 1144.29 712.865C1188.21 658.267 1208.97 595.4 1251.47 540.218C1293.96 485.037 1369.57 435.235 1457.07 438.981C1531.65 442.172 1603.08 483.548 1674.38 467.486C1728.55 455.277 1759.38 413.355 1769.16 373.108C1780.52 326.4 1771.38 278.554 1764.79 231.379C1758.19 184.205 1754.43 135.347 1775.83 90.4878C1797.21 45.6383 1849.42 5.37104 1914.93 0.389925C1938.34 -1.39043 1965.25 2.7151 1977.73 17.0747C1985.88 26.463 1986.16 38.1861 1986.2 49.2574C1987.13 349.37 1988.07 649.492 1989 949.604C1277.8 955.538 572.322 957.63 -138.747 946.033C-209.556 944.876 -282.177 947.191 -352.986 946.033" fill="#FCFFFF"/>
</svg>
