<svg style="object-fit:cover" id="my-svg" version="1" baseProfile="full" width="100%" height="100%" viewBox="0 0 1792 946" xmlns="http://www.w3.org/2000/svg"><rect width="1792" height="946" fill="#200404"/><path transform="scale(-1, 1)" d="M 0,946 V 0,756 C 248.66666666666663,682 497.33333333333326,608 796,608 C 1094.6666666666667,608 1443.3333333333335,682 1792,756 C 1792,756 1792,946 1792,946 Z" stroke="none" stroke-width="0" fill="#ffffff" class="transition-all duration-300 ease-in-out delay-150" style="transform-origin: center center;"/><path transform="scale(-1, 1)" d="M 0,946 V 0,1135 C 249.66666666666663,1051.5 499.33333333333326,968 798,968 C 1096.6666666666667,968 1444.3333333333335,1051.5 1792,1135 C 1792,1135 1792,946 1792,946 Z" stroke="none" stroke-width="0" fill="#ffffff" class="transition-all duration-300 ease-in-out delay-150" style="transform-origin: center center;"/><path transform="scale(-1, 1)" d="M 0,946 V 0,1702 C 366.66666666666663,1810.5 733.3333333333333,1919 1032,1919 C 1330.6666666666667,1919 1561.3333333333335,1810.5 1792,1702 C 1792,1702 1792,946 1792,946 Z" stroke="none" stroke-width="0" fill="#ffffff" class="transition-all duration-300 ease-in-out delay-150" style="transform-origin: center center;"/><path transform="scale(-1, 1)" d="M 0,946 V 0,2554 C 331.66666666666663,2533 663.3333333333333,2512 962,2512 C 1260.6666666666667,2512 1526.3333333333335,2533 1792,2554 C 1792,2554 1792,946 1792,946 Z" stroke="none" stroke-width="0" fill="#ffffff" class="transition-all duration-300 ease-in-out delay-150" style="transform-origin: center center;"/><path transform="scale(-1, 1)" d="M 0,946 V 0,3831 C 285.66666666666663,3902.5 571.3333333333333,3974 870,3974 C 1168.6666666666667,3974 1480.3333333333335,3902.5 1792,3831 C 1792,3831 1792,946 1792,946 Z" stroke="none" stroke-width="0" fill="#ffffff" class="transition-all duration-300 ease-in-out delay-150" style="transform-origin: center center;"/><path transform="scale(-1, 1)" d="M 0,946 V 0,5746 C 302.16666666666663,5756.5 604.3333333333333,5767 903,5767 C 1201.6666666666667,5767 1496.8333333333335,5756.5 1792,5746 C 1792,5746 1792,946 1792,946 Z" stroke="none" stroke-width="0" fill="#ffffff" class="transition-all duration-300 ease-in-out delay-150" style="transform-origin: center center;"/></svg>